<svg width="64" height="64" viewBox="0 0 64 64" fill="none" xmlns="http://www.w3.org/2000/svg">
<path d="M17 16.9993L17.3684 16.6612L17 16.2598L16.6316 16.6612L17 16.9993ZM33 6.99927L33.3633 6.65576L33 6.27148L32.6367 6.65576L33 6.99927ZM32 62.4993C15.1553 62.4993 1.5 48.8439 1.5 31.9993H0.5C0.499999 49.3962 14.603 63.4993 32 63.4993V62.4993ZM1.5 31.9993C1.5 15.1546 15.1553 1.49927 32 1.49927V0.499268C14.603 0.499267 0.500001 14.6023 0.5 31.9993H1.5ZM32 1.49927C48.8447 1.49927 62.5 15.1546 62.5 31.9993H63.5C63.5 14.6023 49.397 0.499268 32 0.499268V1.49927ZM62.5 31.9993C62.5 48.844 48.8447 62.4993 32 62.4993V63.4993C49.397 63.4993 63.5 49.3962 63.5 31.9993H62.5ZM11.5 27.4608C11.5 26.5924 11.8368 25.5294 12.3877 24.3886C12.9339 23.2577 13.6672 22.0974 14.4085 21.0472C15.1486 19.9987 15.8898 19.0698 16.4464 18.4025C16.7245 18.0691 16.956 17.8018 17.1176 17.6182C17.1983 17.5264 17.2615 17.4556 17.3043 17.4081C17.3257 17.3843 17.342 17.3663 17.3528 17.3544C17.3582 17.3485 17.3622 17.3441 17.3649 17.3412C17.3662 17.3398 17.3671 17.3387 17.3677 17.3381C17.368 17.3378 17.3682 17.3375 17.3683 17.3374C17.3684 17.3373 17.3684 17.3373 17.3684 17.3373C17.3684 17.3373 17.3684 17.3373 17 16.9993C16.6316 16.6612 16.6315 16.6613 16.6314 16.6614C16.6314 16.6615 16.6313 16.6616 16.6311 16.6617C16.6309 16.662 16.6305 16.6624 16.6301 16.6628C16.6293 16.6638 16.628 16.6651 16.6265 16.6668C16.6233 16.6703 16.6187 16.6753 16.6128 16.6819C16.6009 16.695 16.5835 16.7142 16.5609 16.7392C16.5158 16.7894 16.4501 16.8629 16.3668 16.9576C16.2002 17.1469 15.963 17.421 15.6786 17.7619C15.1102 18.4432 14.3514 19.394 13.5915 20.4705C12.8328 21.5454 12.0661 22.7552 11.4873 23.9537C10.9133 25.1422 10.5 26.3677 10.5 27.4608H11.5ZM17 16.9993C16.6316 17.3373 16.6316 17.3373 16.6316 17.3373C16.6316 17.3373 16.6316 17.3373 16.6317 17.3374C16.6318 17.3375 16.632 17.3378 16.6323 17.3381C16.6329 17.3387 16.6339 17.3398 16.6352 17.3412C16.6378 17.3441 16.6418 17.3485 16.6472 17.3544C16.658 17.3663 16.6743 17.3843 16.6957 17.4081C16.7385 17.4556 16.8017 17.5264 16.8824 17.6182C17.044 17.8018 17.2755 18.0691 17.5536 18.4025C18.1102 19.0698 18.8514 19.9987 19.5915 21.0472C20.3328 22.0974 21.0661 23.2577 21.6123 24.3886C22.1633 25.5294 22.5 26.5924 22.5 27.4608H23.5C23.5 26.3677 23.0868 25.1422 22.5127 23.9537C21.9339 22.7552 21.1672 21.5454 20.4085 20.4705C19.6486 19.394 18.8898 18.4432 18.3214 17.7619C18.037 17.421 17.7998 17.1469 17.6332 16.9576C17.5499 16.8629 17.4842 16.7894 17.4391 16.7392C17.4165 16.7142 17.3991 16.695 17.3872 16.6819C17.3813 16.6753 17.3767 16.6703 17.3736 16.6668C17.372 16.6651 17.3708 16.6638 17.3699 16.6628C17.3695 16.6624 17.3691 16.662 17.3689 16.6617C17.3687 16.6616 17.3686 16.6615 17.3686 16.6614C17.3685 16.6613 17.3684 16.6612 17 16.9993ZM22.5 27.4608C22.5 31.3574 19.6159 33.4993 17 33.4993L17 34.4993C20.1442 34.4993 23.5 31.9334 23.5 27.4608H22.5ZM17 33.4993C14.3842 33.4993 11.5 31.3574 11.5 27.4608H10.5C10.5 31.9334 13.8559 34.4993 17 34.4993L17 33.4993ZM29.5 13.7685C29.5 13.2496 29.7095 12.5925 30.0726 11.8626C30.4306 11.1432 30.9133 10.4012 31.4044 9.72605C31.8942 9.05254 32.3852 8.45526 32.7542 8.0259C32.9385 7.8115 33.0918 7.63964 33.1986 7.52185C33.2519 7.46297 33.2937 7.41764 33.3218 7.3873C33.3358 7.37214 33.3465 7.36072 33.3535 7.35324C33.357 7.3495 33.3596 7.34674 33.3612 7.34499C33.3621 7.34411 33.3627 7.34349 33.363 7.34312C33.3632 7.34293 33.3633 7.34281 33.3633 7.34275C33.3634 7.34273 33.3634 7.34273 33.3634 7.34272C33.3634 7.34274 33.3633 7.34277 33 6.99927C32.6367 6.65576 32.6366 6.65583 32.6365 6.65592C32.6365 6.65597 32.6364 6.65607 32.6363 6.65617C32.6361 6.65637 32.6359 6.65663 32.6355 6.65696C32.6349 6.65762 32.6341 6.65853 32.633 6.6597C32.6308 6.66204 32.6276 6.66539 32.6236 6.66973C32.6154 6.67841 32.6036 6.69106 32.5884 6.7075C32.5579 6.74038 32.5137 6.78843 32.4577 6.85019C32.3457 6.97368 32.1865 7.15218 31.9958 7.37408C31.6148 7.81732 31.1058 8.43639 30.5956 9.13788C30.0867 9.83768 29.5694 10.6294 29.1774 11.4171C28.7905 12.1945 28.5 13.0182 28.5 13.7685L29.5 13.7685ZM33 6.99927C32.6367 7.34277 32.6366 7.34274 32.6366 7.34272C32.6366 7.34273 32.6366 7.34273 32.6367 7.34275C32.6367 7.34281 32.6368 7.34293 32.637 7.34312C32.6374 7.34349 32.6379 7.34411 32.6388 7.34499C32.6404 7.34674 32.643 7.3495 32.6465 7.35324C32.6535 7.36072 32.6642 7.37214 32.6782 7.3873C32.7063 7.41764 32.7481 7.46297 32.8015 7.52185C32.9082 7.63964 33.0615 7.8115 33.2458 8.0259C33.6148 8.45526 34.1058 9.05254 34.5956 9.72605C35.0867 10.4012 35.5694 11.1432 35.9274 11.8626C36.2905 12.5925 36.5 13.2496 36.5 13.7685H37.5C37.5 13.0182 37.2095 12.1945 36.8226 11.4171C36.4306 10.6294 35.9133 9.83768 35.4044 9.13788C34.8942 8.43639 34.3852 7.81732 34.0042 7.37408C33.8135 7.15218 33.6543 6.97368 33.5423 6.85019C33.4863 6.78843 33.4421 6.74038 33.4116 6.7075C33.3964 6.69106 33.3846 6.67841 33.3764 6.66973C33.3724 6.66539 33.3692 6.66204 33.367 6.6597C33.3659 6.65853 33.3651 6.65762 33.3645 6.65696C33.3642 6.65663 33.3639 6.65637 33.3637 6.65617C33.3636 6.65607 33.3635 6.65597 33.3635 6.65592C33.3634 6.65583 33.3633 6.65576 33 6.99927ZM36.5 13.7685C36.5 16.1744 34.6702 17.4993 33 17.4993V18.4993C35.1698 18.4993 37.5 16.778 37.5 13.7685H36.5ZM33 17.4993C31.3298 17.4993 29.5 16.1744 29.5 13.7685L28.5 13.7685C28.5 16.778 30.8302 18.4993 33 18.4993V17.4993ZM63.3536 32.1457L48.8536 17.6457L48.1464 18.3528L62.6465 32.8528L63.3536 32.1457ZM33.3536 62.6457L18.8536 48.1457L18.1465 48.8528L32.6465 63.3528L33.3536 62.6457ZM60.8536 44.1457L41.8536 25.1457L41.1465 25.8528L60.1465 44.8528L60.8536 44.1457ZM54.3536 53.1458L33.8536 32.6457L33.1465 33.3528L53.6465 53.8529L54.3536 53.1458ZM44.8536 59.6457L25.8536 40.6457L25.1465 41.3528L44.1465 60.3528L44.8536 59.6457ZM54.6465 11.1457L10.6465 55.1457L11.3536 55.8528L55.3536 11.8528L54.6465 11.1457Z" fill="black"/>
</svg>
