<svg width="200" height="120" viewBox="0 0 200 120" fill="none" xmlns="http://www.w3.org/2000/svg">
<path d="M0.5 0.5H199.5V119.5H0.5V0.5Z" fill="white" stroke="#E7E7E7"/>
<path d="M28.9249 56.4471H31.8807L30.4375 52.3099L28.9249 56.4471ZM27.7829 59.6184C27.7292 59.7809 27.6901 59.9296 27.6632 60.0641C27.6367 60.1986 27.6241 60.322 27.6241 60.4345C27.6241 60.8102 27.7318 61.0826 27.9461 61.2521C28.1616 61.4217 28.5078 61.5066 28.9842 61.5066H29.1732V62.0343H25V61.5066C25.3377 61.5066 25.6296 61.3922 25.8748 61.1616C26.1193 60.9316 26.3348 60.5694 26.5208 60.0738L31.2728 47.3595H32.7995L37.5993 60.2866C37.779 60.7673 37.9616 61.0911 38.148 61.2577C38.3343 61.4239 38.5803 61.5066 38.886 61.5066V62.0343H31.5714V61.5066C32.2963 61.5066 32.7574 61.4522 32.9535 61.3419C33.1495 61.2324 33.2483 61.0185 33.2483 60.6998C33.2483 60.5877 33.236 60.4707 33.2133 60.3503C33.1902 60.2303 33.1548 60.1099 33.1082 59.9896L32.2099 57.3582H28.5977L27.7829 59.6184Z" fill="#489A84"/>
<path d="M47.5202 59.9797C47.0736 60.7306 46.5141 61.3004 45.8413 61.6894C45.1689 62.0788 44.4108 62.2741 43.5662 62.2741C42.9381 62.2741 42.3551 62.1619 41.8176 61.9395C41.2798 61.7162 40.7989 61.3849 40.374 60.9433C39.9014 60.4701 39.5428 59.9025 39.2994 59.2433C39.056 58.5844 38.9345 57.8578 38.9345 57.0655C38.9345 55.5685 39.3743 54.3518 40.2536 53.4153C41.1325 52.4796 42.2709 52.0112 43.6675 52.0112C44.2639 52.0112 44.8517 52.1159 45.4306 52.3253C46.0095 52.5344 46.3188 52.6387 46.3587 52.6387C46.4914 52.6387 46.5924 52.6018 46.6632 52.5269C46.7341 52.4524 46.7952 52.3123 46.8485 52.1077H47.2089V55.2481H46.8485C46.7251 54.4677 46.4493 53.8614 46.021 53.4276C45.5939 52.9954 45.0556 52.7788 44.4071 52.7788C43.6213 52.7788 43.0242 53.1358 42.6168 53.8502C42.2083 54.5642 42.004 55.6133 42.004 56.9943C42.004 58.4372 42.2045 59.5299 42.6071 60.2733C43.0097 61.0153 43.6016 61.3864 44.3832 61.3864C44.8774 61.3864 45.3534 61.2374 45.8108 60.9385C46.2681 60.64 46.6867 60.2059 47.0658 59.6361L47.5202 59.9797Z" fill="#489A84"/>
<path d="M49.2847 54.0262C49.2847 53.5235 49.1952 53.1665 49.0167 52.9556C48.8389 52.7446 48.5362 52.6295 48.1091 52.6108V52.2505H51.9352L56.3119 57.9346V54.0262C56.3119 53.5235 56.2247 53.1695 56.0506 52.963C55.8765 52.7562 55.572 52.6414 55.1363 52.6176V52.2505H58.11V52.6108C57.6832 52.6295 57.3809 52.7446 57.2024 52.9556C57.0238 53.1665 56.9351 53.5235 56.9351 54.0262V62.0342H55.9L49.9083 54.2871V60.2585C49.9083 60.7608 49.9959 61.1167 50.1718 61.3261C50.3481 61.5348 50.6515 61.6511 51.0835 61.6746V62.0342H48.1091V61.6746C48.5362 61.6604 48.8389 61.546 49.0167 61.3325C49.1952 61.1193 49.2847 60.7608 49.2847 60.2585V54.0262Z" fill="#489A84"/>
<path d="M58.8068 62.3936L58.5884 61.6744C59.0155 61.6606 59.3174 61.5473 59.496 61.3364C59.6745 61.1248 59.764 60.7707 59.764 60.2732V54.035C59.764 53.5297 59.6745 53.1708 59.496 52.958C59.3174 52.746 59.0155 52.6297 58.5884 52.6107V52.2507H66.6708V54.913H66.335C66.2336 54.1583 66.0096 53.6299 65.6622 53.3281C65.3148 53.0258 64.7438 52.8742 63.948 52.8742H62.6415V56.7107H62.794C63.2975 56.7107 63.6733 56.556 63.9219 56.246C64.1686 55.9363 64.3267 55.4198 64.3927 54.6965H64.7285V59.3964H64.3927C64.3267 58.6582 64.1668 58.1342 63.9148 57.8234C63.6628 57.5141 63.2759 57.3583 62.7548 57.3583H62.6415V60.3858C62.6415 60.8587 62.7101 61.1475 62.8462 61.2526C62.9833 61.358 63.3248 61.4102 63.8716 61.4102C64.7251 61.4102 65.3808 61.2205 65.837 60.8393C66.2932 60.4577 66.6272 59.8253 66.8389 58.9406H67.2225L66.9135 62.3936H58.8068Z" fill="#489A84"/>
<path d="M69.8559 62.3724V57.0226H70.3684C70.5342 58.2967 71.0811 59.3546 72.0099 60.1961C72.938 61.0372 74.0056 61.4583 75.2125 61.4583C75.9885 61.4583 76.6162 61.2675 77.0974 60.8833C77.5775 60.4994 77.8183 60.0053 77.8183 59.3997C77.8183 58.4718 76.687 57.4824 74.4226 56.4341L74.3936 56.4233C74.2542 56.3604 74.0447 56.265 73.7666 56.1383C72.2015 55.4351 71.1582 54.7076 70.6338 53.9541C70.4016 53.6165 70.226 53.2561 70.1075 52.8723C69.9882 52.4892 69.9274 52.0867 69.9274 51.6642C69.9274 50.3133 70.4094 49.1987 71.3729 48.3188C72.3361 47.4394 73.5695 47 75.0723 47C75.8864 47 76.7374 47.174 77.6241 47.5213C78.512 47.8698 78.9954 48.0438 79.0748 48.0438C79.2992 48.0438 79.4583 47.9708 79.5512 47.8247C79.644 47.6801 79.7032 47.4114 79.7304 47.0212H80.2888V51.7473H79.8087C79.6171 50.6256 79.1124 49.714 78.2958 49.0123C77.4791 48.3103 76.5219 47.9592 75.4235 47.9592C74.7361 47.9592 74.183 48.1269 73.7666 48.4612C73.3503 48.7966 73.1415 49.2348 73.1415 49.7778C73.1415 50.5671 74.0186 51.3493 75.7731 52.1251L75.9923 52.2198C77.2547 52.7829 78.1366 53.2129 78.6379 53.5114C79.1408 53.811 79.5176 54.1069 79.77 54.4028C80.155 54.8459 80.4461 55.3288 80.6422 55.8521C80.8378 56.3756 80.9366 56.9365 80.9366 57.5338C80.9366 58.9671 80.4427 60.1361 79.4565 61.0387C78.4706 61.9424 77.1872 62.3936 75.6076 62.3936C74.7108 62.3936 73.7793 62.2267 72.8132 61.8947C71.8474 61.5623 71.3244 61.3949 71.2451 61.3949C71.0113 61.3949 70.8205 61.4803 70.6714 61.6502C70.5219 61.8201 70.434 62.0605 70.4075 62.3724H69.8559Z" fill="#489A84"/>
<path d="M85.975 56.9506H86.101C86.5937 56.9506 86.956 56.7769 87.1871 56.4296C87.4186 56.0815 87.5345 55.5389 87.5345 54.8015C87.5345 54.1109 87.4074 53.6008 87.154 53.2717C86.9009 52.943 86.5084 52.7791 85.975 52.7791V56.9506ZM85.975 60.2597C85.975 60.7856 86.0723 61.1522 86.2661 61.3609C86.4592 61.57 86.8006 61.6747 87.29 61.6747H87.3426V62.0343H81.9222V61.6747C82.349 61.6605 82.6513 61.5461 82.8302 61.3326C83.008 61.1195 83.0975 60.7617 83.0975 60.2597V54.0189C83.0975 53.5177 83.008 53.1614 82.8302 52.9501C82.6513 52.7384 82.349 52.6237 81.9222 52.6054V52.2506H86.9523C88.1074 52.2506 88.9845 52.4731 89.5846 52.9173C90.184 53.3611 90.4844 54.0103 90.4844 54.8652C90.4844 55.7439 90.1731 56.411 89.5518 56.8663C88.9297 57.3221 88.0172 57.5502 86.814 57.5502H85.975V60.2597Z" fill="#489A84"/>
<path d="M90.7956 62.0343V61.6747C91.2221 61.6605 91.5247 61.5473 91.7033 61.3363C91.8818 61.125 91.9713 60.7706 91.9713 60.2732V54.0349C91.9713 53.5296 91.8818 53.1707 91.7033 52.9579C91.5247 52.7459 91.2221 52.6296 90.7956 52.6106V52.2506H98.8781V54.9129H98.5423C98.4409 54.1582 98.2161 53.6302 97.8695 53.328C97.5221 53.0261 96.9503 52.8741 96.1549 52.8741H94.8488V56.7106H95.0009C95.5044 56.7106 95.8805 56.5559 96.128 56.2459C96.3759 55.9366 96.5325 55.4197 96.5999 54.6967H96.935V59.3963H96.5999C96.5325 58.6581 96.3733 58.1341 96.1221 57.8237C95.8694 57.5144 95.4832 57.3582 94.9614 57.3582H94.8488V60.3857C94.8488 60.859 94.9166 61.1478 95.0534 61.2525C95.1895 61.358 95.5313 61.4105 96.0773 61.4105C96.9324 61.4105 97.5881 61.2204 98.0435 60.8392C98.5001 60.458 98.8334 59.8256 99.0455 58.9409H99.429L98.9027 62.0343H90.7956Z" fill="#489A84"/>
<path d="M108.935 59.9797C108.488 60.7306 107.928 61.3004 107.256 61.6894C106.584 62.0788 105.824 62.2741 104.98 62.2741C104.352 62.2741 103.769 62.1619 103.231 61.9395C102.694 61.7162 102.213 61.3849 101.788 60.9433C101.315 60.4701 100.957 59.9025 100.713 59.2433C100.47 58.5844 100.349 57.8578 100.349 57.0655C100.349 55.5685 100.788 54.3518 101.667 53.4153C102.547 52.4796 103.685 52.0112 105.082 52.0112C105.678 52.0112 106.266 52.1159 106.844 52.3253C107.423 52.5344 107.733 52.6387 107.773 52.6387C107.905 52.6387 108.007 52.6018 108.078 52.5269C108.148 52.4524 108.21 52.3123 108.263 52.1077H108.623V55.2481H108.263C108.14 54.4677 107.864 53.8614 107.436 53.4276C107.008 52.9954 106.469 52.7788 105.821 52.7788C105.036 52.7788 104.439 53.1358 104.031 53.8502C103.622 54.5642 103.418 55.6133 103.418 56.9943C103.418 58.4372 103.62 59.5299 104.022 60.2733C104.423 61.0153 105.015 61.3864 105.797 61.3864C106.291 61.3864 106.767 61.2374 107.224 60.9385C107.682 60.64 108.1 60.2059 108.481 59.6361L108.935 59.9797Z" fill="#489A84"/>
<path d="M113.601 60.2584C113.601 60.7611 113.689 61.117 113.865 61.326C114.041 61.5351 114.344 61.6514 114.776 61.6745V62.0345H109.547V61.6745C109.979 61.6558 110.283 61.5399 110.459 61.329C110.635 61.1181 110.723 60.7611 110.723 60.2584V54.0261C110.723 53.5238 110.634 53.1668 110.455 52.9555C110.277 52.7445 109.974 52.6298 109.547 52.6107V52.2508H114.776V52.6175C114.34 52.6413 114.035 52.7561 113.862 52.9629C113.688 53.1697 113.601 53.5238 113.601 54.0261V60.2584Z" fill="#489A84"/>
<path d="M117.302 58.3176H119.279L118.314 55.5547L117.302 58.3176ZM116.542 60.4186C116.508 60.5274 116.481 60.6258 116.463 60.7153C116.445 60.804 116.437 60.8871 116.437 60.9616C116.437 61.2113 116.508 61.392 116.651 61.5045C116.795 61.6182 117.024 61.6745 117.341 61.6745H117.467V62.0345H114.685V61.6745C114.91 61.6745 115.104 61.5985 115.267 61.4453C115.43 61.2925 115.574 61.0514 115.698 60.722L118.873 52.2508H119.89L123.085 60.8632C123.205 61.1829 123.326 61.3983 123.45 61.5083C123.574 61.6197 123.738 61.6745 123.942 61.6745V62.0345H119.074V61.6745C119.556 61.6745 119.863 61.638 119.994 61.5645C120.124 61.4922 120.189 61.3499 120.189 61.1375C120.189 61.0633 120.182 60.9862 120.166 60.9053C120.15 60.8259 120.127 60.7458 120.096 60.6657L119.498 58.9168H117.083L116.542 60.4186Z" fill="#489A84"/>
<path d="M127.965 60.2512C127.965 60.6853 128.032 60.986 128.166 61.156C128.3 61.3263 128.535 61.4105 128.87 61.4105C129.579 61.4105 130.165 61.1329 130.629 60.5765C131.094 60.0201 131.398 59.2349 131.538 58.2209L131.922 58.2712L131.565 62.0343H123.912V61.6747C124.339 61.6602 124.641 61.5461 124.819 61.3307C124.998 61.1157 125.087 60.7561 125.087 60.2512V54.0222C125.087 53.5214 124.998 53.1655 124.819 52.9549C124.641 52.7448 124.339 52.6296 123.912 52.611V52.2506H129.14V52.611C128.708 52.6348 128.404 52.7504 128.229 52.9587C128.052 53.1666 127.965 53.5214 127.965 54.0222V60.2512Z" fill="#489A84"/>
<path d="M136.418 60.2584C136.418 60.7611 136.505 61.117 136.681 61.326C136.857 61.5351 137.161 61.6514 137.592 61.6745V62.0345H132.364V61.6745C132.796 61.6558 133.099 61.5399 133.275 61.329C133.452 61.1181 133.539 60.7611 133.539 60.2584V54.0261C133.539 53.5238 133.45 53.1668 133.272 52.9555C133.093 52.7445 132.791 52.6298 132.364 52.6107V52.2508H137.592V52.6175C137.156 52.6413 136.852 52.7561 136.678 52.9629C136.505 53.1697 136.418 53.5238 136.418 54.0261V60.2584Z" fill="#489A84"/>
<path d="M138.556 62.2592V58.7011H138.913C139.023 59.5485 139.388 60.2517 140.007 60.8111C140.626 61.3708 141.339 61.6499 142.143 61.6499C142.66 61.6499 143.079 61.5228 143.4 61.2672C143.72 61.0115 143.881 60.6829 143.881 60.2796C143.881 59.6614 143.119 59.0037 141.599 58.3053L141.58 58.2979C141.487 58.2558 141.347 58.1928 141.162 58.1078C140.119 57.639 139.423 57.1534 139.075 56.6507C138.921 56.4256 138.803 56.1849 138.724 55.9293C138.644 55.6736 138.604 55.4046 138.604 55.1225C138.604 54.2221 138.926 53.4779 139.569 52.8914C140.212 52.3045 141.035 52.0112 142.038 52.0112C142.582 52.0112 143.149 52.1245 143.741 52.351C144.334 52.5776 144.656 52.6909 144.709 52.6909C144.86 52.6909 144.966 52.6439 145.028 52.5489C145.089 52.4535 145.13 52.2791 145.148 52.025H145.511V55.1527H145.199C145.071 54.4066 144.733 53.8014 144.187 53.3341C143.641 52.8683 143 52.6346 142.266 52.6346C141.806 52.6346 141.435 52.746 141.157 52.9685C140.878 53.1914 140.739 53.4835 140.739 53.8446C140.739 54.3701 141.328 54.8911 142.506 55.4072L142.654 55.4705C143.494 55.8465 144.08 56.1346 144.414 56.334C144.748 56.5341 144.999 56.7327 145.167 56.9299C145.423 57.2261 145.617 57.5496 145.747 57.8991C145.878 58.2491 145.943 58.6247 145.943 59.0231C145.943 59.9826 145.615 60.7634 144.96 61.3674C144.303 61.9719 143.45 62.2741 142.399 62.2741C141.802 62.2741 141.182 62.1627 140.54 61.9409C139.897 61.7192 139.549 61.6085 139.496 61.6085C139.342 61.6085 139.215 61.6648 139.116 61.7785C139.016 61.8918 138.958 62.0516 138.94 62.2592H138.556Z" fill="#489A84"/>
<path d="M155.203 52.2506V54.7687H154.867C154.806 54.0904 154.627 53.6056 154.334 53.3134C154.04 53.0209 153.584 52.8741 152.966 52.8741H152.372V60.2564C152.372 60.7595 152.459 61.1157 152.633 61.3248C152.807 61.5346 153.112 61.6512 153.548 61.6747V62.0343H148.32V61.6747C148.742 61.6605 149.043 61.5461 149.223 61.3322C149.404 61.118 149.495 60.7595 149.495 60.2564V52.8741H148.9C148.278 52.8741 147.82 53.0209 147.53 53.3134C147.239 53.6056 147.062 54.0904 147 54.7687H146.665V52.2506H155.203Z" fill="#489A84"/>
<path d="M155.661 62.0343V61.6747C156.088 61.6605 156.391 61.5473 156.569 61.3363C156.747 61.125 156.836 60.7706 156.836 60.2732V54.0349C156.836 53.5296 156.747 53.1707 156.569 52.9579C156.391 52.7459 156.088 52.6296 155.661 52.6106V52.2506H163.743V54.9129H163.408C163.307 54.1582 163.082 53.6302 162.735 53.328C162.388 53.0261 161.817 52.8741 161.02 52.8741H159.714V56.7106H159.867C160.371 56.7106 160.746 56.5559 160.994 56.2459C161.242 55.9366 161.399 55.4197 161.465 54.6967H161.801V59.3963H161.465C161.399 58.6581 161.24 58.1341 160.987 57.8237C160.735 57.5144 160.349 57.3582 159.827 57.3582H159.714V60.3857C159.714 60.859 159.783 61.1478 159.919 61.2525C160.056 61.358 160.398 61.4105 160.944 61.4105C161.798 61.4105 162.454 61.2204 162.909 60.8392C163.366 60.458 163.7 59.8256 163.911 58.9409H164.295L163.768 62.0343H155.661Z" fill="#489A84"/>
<path d="M166.174 54.0262C166.174 53.5235 166.085 53.1665 165.906 52.9556C165.729 52.7446 165.425 52.6295 164.999 52.6108V52.2505H168.825L173.201 57.9346V54.0262C173.201 53.5235 173.114 53.1695 172.94 52.963C172.767 52.7562 172.461 52.6414 172.026 52.6176V52.2505H175V52.6108C174.572 52.6295 174.271 52.7446 174.091 52.9556C173.914 53.1665 173.825 53.5235 173.825 54.0262V62.0342H172.789L166.798 54.2871V60.2585C166.798 60.7608 166.885 61.1167 167.062 61.3261C167.238 61.5348 167.541 61.6511 167.973 61.6746V62.0342H164.999V61.6746C165.425 61.6604 165.729 61.546 165.906 61.3325C166.085 61.1193 166.174 60.7608 166.174 60.2585V54.0262Z" fill="#489A84"/>
<path d="M25.6283 69.4268C59.5531 63.3879 106.838 70.4419 113.655 71.2808C120.472 72.1196 143.543 76.6239 174.194 66.4828C147.797 73.6803 117.641 69.4171 113.764 68.8812C109.887 68.3457 51.263 59.5026 25.6283 69.4268Z" fill="#489A84"/>
</svg>
