<svg width="65" height="64" viewBox="0 0 65 64" fill="none" xmlns="http://www.w3.org/2000/svg">
<path d="M11.5166 8.99927C15.5996 26.7567 31.5033 39.9993 50.5 39.9993C54.8744 39.9993 59.0848 39.2971 63.0247 37.9993M33 0.999268L15.5 18.4993M62.5693 24.43L47 39.9993M43.5 2.99927L20 26.4993M52.0552 7.94404L27.5 32.4993M58.6523 15.347L36.5 37.4993M63.5 31.9993C63.5 49.1201 49.6208 62.9993 32.5 62.9993C15.3792 62.9993 1.5 49.1201 1.5 31.9993C1.5 14.8784 15.3792 0.999268 32.5 0.999268C49.6208 0.999268 63.5 14.8784 63.5 31.9993Z" stroke="black"/>
</svg>
