<svg width="72" height="72" viewBox="0 0 72 72" fill="none" xmlns="http://www.w3.org/2000/svg">
<circle cx="26" cy="26" r="24" fill="white"/>
<path d="M27.9364 40.8343L31.2429 46.9724L37.5546 44.089C38.3812 43.6452 39.4338 43.6452 40.2604 44.089L46.4235 47.0469L49.8064 41.0557C50.2573 40.2415 51.084 39.7242 51.9106 39.5763L58.6743 38.4672L57.8476 31.6639C57.697 30.7762 57.9983 29.8886 58.6743 29.2233L63.4844 24.3423L58.7496 19.3132C58.149 18.7214 57.8476 17.7603 57.9983 16.8727L58.9756 10.0693L52.1366 8.73786C51.31 8.6644 50.5587 8.07263 50.1077 7.33291L46.8012 1.19482H46.7259L40.4885 4.00471C39.6619 4.44854 38.6092 4.44854 37.7826 4.00471L31.6196 1.04688L28.2377 7.03703C27.7867 7.85122 26.9601 8.36851 26.1335 8.51646L19.2945 9.7C19.2192 9.77448 19.2192 9.84794 19.2192 9.84794L20.0458 16.5778C20.1964 17.4655 19.8951 18.3531 19.2192 19.0184L14.4844 23.8994L19.1438 28.9285C19.7444 29.5202 20.0458 30.4814 19.8951 31.369L18.9178 38.1724L25.8322 39.4294C26.7341 39.5028 27.4854 40.0946 27.9364 40.8343Z" stroke="black" stroke-width="0.75" stroke-miterlimit="10" stroke-linejoin="round"/>
<path d="M26.4844 24.4809L33.908 33.0469L50.4844 14.0469" stroke="black" stroke-width="0.75" stroke-miterlimit="10" stroke-linecap="round" stroke-linejoin="round"/>
<path d="M37.4844 44.128L52.4758 71.0469L57.4783 62.9321H69.4844L55.191 39.0469" stroke="black" stroke-width="0.75" stroke-miterlimit="10" stroke-linejoin="round"/>
<path d="M39.4844 48.0469L28.467 68.0469L9.48438 64.2537L23.8325 39.0469" stroke="black" stroke-width="0.75" stroke-miterlimit="10" stroke-linejoin="round"/>
<path d="M28.4844 68.0469C28.4844 68.0469 25.4016 55.03 26.7578 52.0469C21.5372 54.7713 18.4177 58.5768 18.4177 58.5768L8.48438 54.6121L9.48438 64.5469L28.4844 68.0469Z" fill="black"/>
<path d="M69.1094 40.5469C69.1094 41.7205 68.158 42.6719 66.9844 42.6719C65.8108 42.6719 64.8594 41.7205 64.8594 40.5469C64.8594 39.3733 65.8108 38.4219 66.9844 38.4219C68.158 38.4219 69.1094 39.3733 69.1094 40.5469Z" stroke="black" stroke-width="0.75" stroke-miterlimit="10"/>
<path d="M7.10938 8.04688C7.10938 8.94434 6.38184 9.67188 5.48437 9.67188C4.58691 9.67188 3.85938 8.94434 3.85938 8.04688C3.85938 7.14941 4.58691 6.42188 5.48437 6.42188C6.38184 6.42188 7.10938 7.14941 7.10938 8.04688Z" stroke="black" stroke-width="0.75" stroke-miterlimit="10"/>
</svg>
