<svg width="72" height="72" viewBox="0 0 72 72" fill="none" xmlns="http://www.w3.org/2000/svg">
<circle cx="48.3057" cy="25.0605" r="22" fill="white"/>
<path d="M19.625 8.5C19.625 9.67361 18.6736 10.625 17.5 10.625C16.3264 10.625 15.375 9.6736 15.375 8.5C15.375 7.3264 16.3264 6.375 17.5 6.375C18.6736 6.375 19.625 7.32639 19.625 8.5Z" stroke="black" stroke-width="0.75" stroke-miterlimit="10"/>
<path d="M4.625 30.5C4.625 31.1213 4.12132 31.625 3.5 31.625C2.87868 31.625 2.375 31.1213 2.375 30.5C2.375 29.8787 2.87868 29.375 3.5 29.375C4.12132 29.375 4.625 29.8787 4.625 30.5Z" stroke="black" stroke-width="0.75" stroke-miterlimit="10"/>
<path d="M51.4385 33.1089C52.1546 31.1884 51.158 29.068 49.2086 28.3625C47.2591 27.6571 45.1067 28.6389 44.3906 30.5593C44.0632 31.4387 44.0897 32.3683 44.4212 33.1963L37.8752 30.8287L37.8018 30.8025L37.6549 30.7493L40.1388 24.0834C39.2973 24.4091 38.3547 24.4362 37.4621 24.1136C35.5117 23.4081 34.516 21.2887 35.2321 19.3672C35.9483 17.4458 38.0997 16.4649 40.0501 17.1704C40.9427 17.493 41.6445 18.115 42.0719 18.8999L45.0159 11L50.5959 13.0179L61.5395 16.9754C63.4828 17.6779 64.4835 19.8074 63.7695 21.7218L57.704 38L49.6849 35.0997C50.4796 34.6796 51.11 33.9892 51.4385 33.1089Z" fill="black"/>
<path d="M24.99 42.375V42C24.8425 42 24.7087 42.0864 24.6481 42.2209C24.5875 42.3553 24.6113 42.5127 24.7089 42.6233L24.99 42.375ZM32.625 42.375H33V42L32.625 42V42.375ZM32.625 49.4595H32.25C32.25 49.6075 32.337 49.7416 32.4721 49.8019C32.6072 49.8623 32.7651 49.8375 32.8753 49.7388L32.625 49.4595ZM32.625 55.6639L32.8753 55.3847C32.7651 55.2859 32.6072 55.2612 32.4721 55.3215C32.337 55.3818 32.25 55.516 32.25 55.6639H32.625ZM32.625 63.625V64C32.8321 64 33 63.8321 33 63.625H32.625ZM25.9795 63.625V64V63.625ZM14.2953 63.625L14.2953 63.25H14.2953V63.625ZM10.625 42.375L10.625 42L10.25 42V42.375H10.625ZM19.1544 42.375L19.4355 42.6233C19.5331 42.5127 19.5569 42.3553 19.4963 42.2209C19.4356 42.0864 19.3019 42 19.1544 42L19.1544 42.375ZM17.7898 44.9988C17.7898 47.3811 19.7007 49.31 22.0722 49.31V48.56C20.1201 48.56 18.5398 46.9721 18.5398 44.9988H17.7898ZM22.0722 49.31C24.4437 49.31 26.3545 47.3811 26.3545 44.9988H25.6045C25.6045 46.9721 24.0243 48.56 22.0722 48.56V49.31ZM26.3545 44.9988C26.3545 43.9087 25.9558 42.9021 25.271 42.1268L24.7089 42.6233C25.2749 43.2641 25.6045 44.0951 25.6045 44.9988H26.3545ZM32.8753 49.7388C33.4869 49.1906 34.2083 48.9958 35.1411 48.9958V48.2458C34.0946 48.2458 33.1689 48.4684 32.3747 49.1803L32.8753 49.7388ZM35.1411 48.9958C37.0931 48.9958 38.6734 50.5838 38.6734 52.557H39.4234C39.4234 50.1748 37.5126 48.2458 35.1411 48.2458V48.9958ZM38.6734 52.557C38.6734 54.4952 36.8275 56.1182 34.8388 56.1182V56.8682C37.1737 56.8682 39.4234 54.9744 39.4234 52.557H38.6734ZM34.8388 56.1182C34.3681 56.1182 34.0401 56.0705 33.7564 55.9638C33.4737 55.8575 33.2072 55.6821 32.8753 55.3847L32.3747 55.9432C32.7457 56.2757 33.0913 56.515 33.4924 56.6658C33.8925 56.8163 34.3199 56.8682 34.8388 56.8682V56.1182ZM32.625 63.25H25.9795V64H32.625V63.25ZM25.9795 63.25L14.2953 63.25L14.2953 64L25.9795 64V63.25ZM14.2953 63.25C13.298 63.25 12.478 62.9331 11.9103 62.3949C11.3448 61.8588 11 61.0754 11 60.0814H10.25C10.25 61.2576 10.6632 62.246 11.3943 62.9392C12.1231 63.6302 13.1383 64 14.2953 64V63.25ZM11 60.0814V42.375H10.25V60.0814H11ZM10.625 42.75L19.1544 42.75L19.1544 42L10.625 42L10.625 42.75ZM18.8734 42.1268C18.1886 42.9021 17.7898 43.9087 17.7898 44.9988H18.5398C18.5398 44.0951 18.8695 43.2641 19.4355 42.6233L18.8734 42.1268ZM32.25 42.375V45.6545H33V42.375H32.25ZM32.25 45.6545V49.4595H33V45.6545H32.25ZM32.25 55.6639V59.793H33V55.6639H32.25ZM32.25 59.793V63.625H33V59.793H32.25ZM24.99 42.75L32.625 42.75V42L24.99 42V42.75Z" fill="black"/>
<path d="M32.625 42.0599V38.7163V34.7065C31.9397 35.3172 30.6828 35.7004 29.718 35.7004C27.6103 35.7004 25.9083 33.9957 25.9083 31.8845C25.9083 29.7733 27.6103 28.0686 29.718 28.0686C30.6828 28.0686 31.9397 28.5822 32.625 29.193V25.2471V20.625H14.4531C12.3526 20.625 10.625 22.6289 10.625 24.7328V42.0599" stroke="black" stroke-width="0.75" stroke-miterlimit="10" stroke-linejoin="round"/>
<path d="M32.3057 63.6248L50.7181 63.6248C52.8603 63.6248 54.3778 61.692 54.3778 59.5585V42.4149H50.2078L45.5426 42.415C46.1644 41.7188 46.5513 40.7325 46.5513 39.7525C46.5513 37.6115 44.8156 35.8828 42.666 35.8828C40.5165 35.8828 38.7808 37.6115 38.7808 39.7525C38.7808 40.7325 39.307 41.6787 39.9288 42.3748H36.3565H32.7841" stroke="black" stroke-width="0.75" stroke-miterlimit="10" stroke-linejoin="round"/>
</svg>
