<svg width="72" height="72" viewBox="0 0 72 72" fill="none" xmlns="http://www.w3.org/2000/svg">
<path d="M60.5 34.5C60.5 36.1569 59.1569 37.5 57.5 37.5C55.8431 37.5 54.5 36.1569 54.5 34.5C54.5 32.8431 55.8431 31.5 57.5 31.5C59.1569 31.5 60.5 32.8431 60.5 34.5Z" fill="#DAF3EC"/>
<path d="M64.5 43C65.5 46.5 59.1569 47.5 57.5 47.5C55.8431 47.5 51 46 50.5 43.5C51.5 38.5 55.8431 37.5 57.5 37.5C59.1569 37.5 64 39 64.5 43Z" fill="#DAF3EC"/>
<circle cx="57.5" cy="37.5" r="10" stroke="black"/>
<path d="M64.5 44.5C64.5 43.9851 64.4444 43.4832 64.3389 43C63.6522 39.8548 60.8511 37.5 57.5 37.5C54.2532 37.5 51.5227 39.7105 50.7313 42.7086C50.5804 43.2804 50.5 43.8808 50.5 44.5" stroke="black"/>
<circle cx="57.5" cy="34.5" r="3" stroke="black"/>
<path d="M21.5 48.4991H9.5V44.5L10 41.5L11.5 38.9991C12.5 38.3325 15.3 37.2991 18.5 38.4991C21.7 39.6991 21.8333 45.6658 21.5 48.4991Z" fill="#DAF3EC"/>
<path d="M15.5 37.5V48.5" stroke="black"/>
<path d="M2.5 22.5H28.5V26.5H2.5V22.5Z" fill="#DAF3EC"/>
<path d="M3.5 48.5H27.5V51.5H3.5V48.5Z" fill="#DAF3EC"/>
<path d="M3.5 51.5V48.5H27.5V51.5H3.5Z" stroke="black" stroke-linecap="round" stroke-linejoin="round"/>
<path d="M5.5 48.5V26.5M25.5 48.5V26.5M2.5 26.5H28.5V22.5H2.5V26.5Z" stroke="black" stroke-linecap="round" stroke-linejoin="round"/>
<path d="M5.5 34.5H25" stroke="black"/>
<path d="M8.5 30.5H22.5" stroke="black" stroke-linecap="round" stroke-linejoin="round"/>
<path d="M21.5 48.5V43.5C21.5 40.1863 18.8137 37.5 15.5 37.5C12.1863 37.5 9.5 40.1863 9.5 43.5V48.5" stroke="black"/>
<path d="M28.5 38.5L44.5 38.5M28.5 38.5L30.5 36.5M28.5 38.5L30.5 40.5" stroke="black" stroke-linecap="round" stroke-linejoin="round"/>
<path d="M18.5 43.5V44.5" stroke="black" stroke-linecap="round"/>
<path d="M12.5 43.5V44.5" stroke="black" stroke-linecap="round"/>
</svg>
