<svg width="32" height="32" viewBox="0 0 32 32" fill="none" xmlns="http://www.w3.org/2000/svg">
<path d="M17.318 30.4425H26.7435C27.6306 30.4425 28.2959 29.7733 28.2959 28.881V22.0772C28.2959 21.1849 27.6306 20.5156 26.7435 20.5156H17.318C16.4309 20.5156 15.7656 21.1849 15.7656 22.0772V28.881C15.7656 29.7733 16.4309 30.4425 17.318 30.4425Z" fill="#DAF3EC"/>
<path d="M8.49907 8.83594V9.92124C8.49907 10.1449 8.5402 10.2568 8.31529 10.3686L5.84127 11.3752C5.60674 11.4921 5.50391 11.5989 5.50391 11.8226V28.1647C5.50391 28.3884 5.61636 28.5002 5.84127 28.5002L11.5057 28.5002" stroke="black" stroke-miterlimit="10" stroke-linecap="round" stroke-linejoin="round"/>
<path d="M14.5048 8.83594V9.92124C14.5048 10.1449 14.4637 10.2568 14.6886 10.3686L17.1626 11.3752C17.3972 11.4921 17.5 11.5989 17.5 11.8226V17.5281" stroke="black" stroke-miterlimit="10" stroke-linecap="round" stroke-linejoin="round"/>
<path d="M17.1201 30.5002H26.8379C27.7526 30.5002 28.4385 29.8271 28.4385 28.9296V22.0862C28.4385 21.1887 27.7526 20.5156 26.8379 20.5156H17.1201C16.2055 20.5156 15.5195 21.1887 15.5195 22.0862V28.9296C15.6339 29.8271 16.3198 30.5002 17.1201 30.5002Z" stroke="black" stroke-miterlimit="10" stroke-linejoin="round"/>
<path d="M15.5 23.5H28.5" stroke="black"/>
<path d="M8.5 8.5L14.5 8.5C15.0523 8.5 15.5 8.05228 15.5 7.5L15.5 2.5C15.5 1.94772 15.0523 1.5 14.5 1.5L8.5 1.5C7.94772 1.5 7.5 1.94772 7.5 2.5L7.5 7.5C7.5 8.05228 7.94772 8.5 8.5 8.5Z" stroke="black" stroke-miterlimit="10" stroke-linejoin="round"/>
</svg>
