<svg width="81" height="80" viewBox="0 0 81 80" fill="none" xmlns="http://www.w3.org/2000/svg">
<path d="M66.625 6.5C66.625 7.6736 65.6736 8.625 64.5 8.625C63.3264 8.625 62.375 7.6736 62.375 6.5C62.375 5.32639 63.3264 4.375 64.5 4.375C65.6736 4.375 66.625 5.32639 66.625 6.5Z" stroke="black" stroke-width="0.75" stroke-miterlimit="10"/>
<path d="M72.625 52C72.625 52.8975 71.8975 53.625 71 53.625C70.1025 53.625 69.375 52.8975 69.375 52C69.375 51.1025 70.1025 50.375 71 50.375C71.8975 50.375 72.625 51.1025 72.625 52Z" stroke="black" stroke-width="0.75" stroke-miterlimit="10"/>
<path d="M38.5 65L38.5 79M43.5 63V72M33.5 63L33.5 73" stroke="black" stroke-width="0.75" stroke-miterlimit="10" stroke-linecap="round"/>
<path d="M52.8955 31.5123L50.8955 52.0123M25.1956 31.5122L27.5 52.5122M52.8896 31.6097L53.3204 25.2603C53.3204 21.1004 52.3512 17.0499 50.6283 13.3278C50.5743 13.2112 50.5697 13.2087 50.5206 13.1089C50.1975 12.4521 49.8745 11.7952 49.4437 11.1384C47.0747 6.97845 43.6288 3.58481 39.5368 1.17642C39.1061 0.957471 38.5676 0.957471 38.2446 1.17642C34.1526 3.58481 30.7067 6.97845 28.3377 11.1384C28.0146 11.7952 27.5582 12.4124 27.2608 13.1089C27.2608 13.1089 27.2045 13.1953 27.1531 13.3278C25.7532 16.9404 24.7841 20.9909 24.7841 25.0414L25.2148 31.6097C20.5844 36.2076 18 42.4475 18 49.0158C18 51.0958 18.2154 53.2853 18.7538 55.2558C18.8615 55.6936 19.1845 56.0221 19.5076 56.1315C19.9383 56.241 20.369 56.241 20.6921 56.0221L27.3685 52.0811L29.0915 55.9126C29.9529 57.7736 31.454 58.5122 33.5 58.5122H44.5C45.8999 58.5122 46.967 58.5399 47.9362 57.4452C48.3669 57.0073 48.6899 56.4599 49.013 55.9126L50.7359 52.0811L57.3047 56.0221C57.6277 56.241 58.0585 56.241 58.4892 56.1315C58.7046 56.0221 58.8122 55.9126 58.9199 55.8031C59.1353 55.5842 59.3095 55.4842 59.4309 55.0156C59.9693 52.9356 59.9968 50.9863 59.9968 48.9064C60.1045 42.4475 57.52 36.0981 52.8896 31.6097Z" stroke="black" stroke-width="0.75" stroke-miterlimit="10"/>
<path fill-rule="evenodd" clip-rule="evenodd" d="M39 29C43.4183 29 47 25.4183 47 21C47 16.5817 43.4183 13 39 13C34.5817 13 31 16.5817 31 21C31 25.4183 34.5817 29 39 29ZM39 17C38.4477 17 38 17.4477 38 18V20H36C35.4477 20 35 20.4477 35 21C35 21.5523 35.4477 22 36 22H38V24C38 24.5523 38.4477 25 39 25C39.5523 25 40 24.5523 40 24V22H42C42.5523 22 43 21.5523 43 21C43 20.4477 42.5523 20 42 20H40V18C40 17.4477 39.5523 17 39 17Z" fill="black"/>
<path d="M10.625 26C10.625 26.8975 9.89746 27.625 9 27.625C8.10254 27.625 7.375 26.8975 7.375 26C7.375 25.1025 8.10254 24.375 9 24.375C9.89746 24.375 10.625 25.1025 10.625 26Z" stroke="black" stroke-width="0.75" stroke-miterlimit="10"/>
</svg>
