<svg width="32" height="32" viewBox="0 0 32 32" fill="none" xmlns="http://www.w3.org/2000/svg">
<path d="M31.4978 9.5H3.50391V25.5H31.4978V9.5Z" stroke="black" stroke-miterlimit="10" stroke-linecap="round" stroke-linejoin="round"/>
<path d="M0.503906 19.0149V6.5H26.5" stroke="black" stroke-miterlimit="10" stroke-linecap="round" stroke-linejoin="round"/>
<path d="M17.5 21C19.433 21 21 19.433 21 17.5C21 15.567 19.433 14 17.5 14C15.567 14 14 15.567 14 17.5C14 19.433 15.567 21 17.5 21Z" fill="#DAF3EC"/>
<path d="M21.5 17.5C21.5 19.7091 19.7091 21.5 17.5 21.5C15.2909 21.5 13.5 19.7091 13.5 17.5C13.5 15.2909 15.2909 13.5 17.5 13.5C19.7091 13.5 21.5 15.2909 21.5 17.5Z" stroke="black" stroke-miterlimit="10" stroke-linecap="round" stroke-linejoin="round"/>
<path d="M4 13.5C5.60714 13.5 7.5 11.6071 7.5 10" stroke="black" stroke-miterlimit="10" stroke-linecap="round" stroke-linejoin="round"/>
<path d="M31 13.5C29.3929 13.5 27.5 11.6071 27.5 10" stroke="black" stroke-miterlimit="10" stroke-linecap="round" stroke-linejoin="round"/>
<path d="M4 21.5C5.60714 21.5 7.5 23.3929 7.5 25" stroke="black" stroke-miterlimit="10" stroke-linecap="round" stroke-linejoin="round"/>
<path d="M31 21.5C29.3929 21.5 27.5 23.3929 27.5 25" stroke="black" stroke-miterlimit="10" stroke-linecap="round" stroke-linejoin="round"/>
</svg>
