<svg width="32" height="32" viewBox="0 0 32 32" fill="none" xmlns="http://www.w3.org/2000/svg">
<circle cx="18" cy="6" r="2" fill="#DAF3EC"/>
<path d="M13.6367 10.4415L13 12.1987C13.7475 12.8573 15.8017 14.2348 18.0383 14.4762C20.2749 14.7177 21.9781 13.0585 22.5502 12.1987L22.1627 10.6069L20.6679 8.74031L18.6473 8H16.9587L15.0765 8.74031L13.6367 10.4415Z" fill="#DAF3EC"/>
<circle cx="18" cy="8" r="6.5" stroke="black"/>
<path d="M22.5502 12.55C22.5502 12.2153 22.5141 11.8891 22.4455 11.575C21.9992 9.53063 20.1784 8 18.0002 8C15.8898 8 14.1149 9.43682 13.6005 11.3856C13.5025 11.7573 13.4502 12.1475 13.4502 12.55" stroke="black"/>
<ellipse cx="17.9998" cy="6.04766" rx="1.95" ry="1.95" stroke="black"/>
<path d="M15.5 29.5V25.5M9.5 29.5H21.5M2.5 21.5V6.5C2.5 5.94772 2.94772 5.5 3.5 5.5H9.5M2.5 21.5V24.5C2.5 25.0523 2.94772 25.5 3.5 25.5H28.5C29.0523 25.5 29.5 25.0523 29.5 24.5V21.5M2.5 21.5H29.5M29.5 21.5V6.5C29.5 5.94772 29.0523 5.5 28.5 5.5H26.5" stroke="black" stroke-linecap="round"/>
<circle r="0.5" transform="matrix(-1 0 0 1 15.5 23.5)" fill="black"/>
</svg>
