<svg width="32" height="32" viewBox="0 0 32 32" fill="none" xmlns="http://www.w3.org/2000/svg">
<path d="M15 25.5H2.5C1.39543 25.5 0.5 24.6046 0.5 23.5V7.5C0.5 6.39543 1.39543 5.5 2.5 5.5H29.5C30.6046 5.5 31.5 6.39543 31.5 7.5V23.5C31.5 24.6046 30.6046 25.5 29.5 25.5H28" stroke="black"/>
<path d="M21.5 21C24.5376 21 27 18.5376 27 15.5C27 12.4624 24.5376 10 21.5 10C18.4624 10 16 12.4624 16 15.5C16 18.5376 18.4624 21 21.5 21Z" fill="#DAF3EC"/>
<path d="M24.5002 19.5V28.0041L21.5156 25.0034L18.5039 28.0041V19.5" stroke="black" stroke-miterlimit="10" stroke-linejoin="round"/>
<path d="M26.5 15.5C26.5 18.2614 24.2614 20.5 21.5 20.5C18.7386 20.5 16.5 18.2614 16.5 15.5C16.5 12.7386 18.7386 10.5 21.5 10.5C24.2614 10.5 26.5 12.7386 26.5 15.5Z" stroke="black" stroke-miterlimit="10" stroke-linejoin="round"/>
<path d="M3.5 12.5H12.5" stroke="black" stroke-miterlimit="10" stroke-linecap="round" stroke-linejoin="round"/>
<path d="M3.5 17.5H10.5" stroke="black" stroke-miterlimit="10" stroke-linecap="round" stroke-linejoin="round"/>
</svg>
