<svg width="72" height="72" viewBox="0 0 72 72" fill="none" xmlns="http://www.w3.org/2000/svg">
<circle cx="48.3057" cy="25.0608" r="22" fill="#DAF3EC"/>
<path d="M19.625 8.5C19.625 9.67361 18.6736 10.625 17.5 10.625C16.3264 10.625 15.375 9.6736 15.375 8.5C15.375 7.3264 16.3264 6.375 17.5 6.375C18.6736 6.375 19.625 7.32639 19.625 8.5Z" stroke="black" stroke-width="0.75" stroke-miterlimit="10"/>
<path d="M4.625 30.5C4.625 31.1213 4.12132 31.625 3.5 31.625C2.87868 31.625 2.375 31.1213 2.375 30.5C2.375 29.8787 2.87868 29.375 3.5 29.375C4.12132 29.375 4.625 29.8787 4.625 30.5Z" stroke="black" stroke-width="0.75" stroke-miterlimit="10"/>
<path d="M51.4385 33.1089C52.1546 31.1884 51.158 29.068 49.2086 28.3625C47.2591 27.6571 45.1067 28.6389 44.3906 30.5593C44.0632 31.4387 44.0897 32.3683 44.4212 33.1963L37.8752 30.8287L37.8018 30.8025L37.6549 30.7493L40.1388 24.0834C39.2973 24.4091 38.3547 24.4362 37.4621 24.1136C35.5117 23.4081 34.516 21.2887 35.2321 19.3672C35.9483 17.4458 38.0997 16.4649 40.0501 17.1704C40.9427 17.493 41.6445 18.115 42.0719 18.8999L45.0159 11L50.5959 13.0179L61.5395 16.9754C63.4828 17.6779 64.4835 19.8074 63.7695 21.7218L57.704 38L49.6849 35.0997C50.4796 34.6796 51.11 33.9892 51.4385 33.1089Z" fill="black"/>
<path d="M24.99 42.375V42C24.8426 42 24.7088 42.0864 24.6482 42.2208C24.5876 42.3552 24.6113 42.5127 24.709 42.6232L24.99 42.375ZM32.6251 42.375H33.0001V42L32.6251 42V42.375ZM32.6251 49.4595H32.2501C32.2501 49.6074 32.3371 49.7415 32.4721 49.8019C32.6072 49.8622 32.7652 49.8375 32.8754 49.7387L32.6251 49.4595ZM32.6251 55.6638L32.8754 55.3846C32.7652 55.2858 32.6072 55.2611 32.4721 55.3214C32.3371 55.3818 32.2501 55.5159 32.2501 55.6638H32.6251ZM32.6251 63.6249V63.9999C32.8322 63.9999 33.0001 63.832 33.0001 63.6249H32.6251ZM25.9796 63.6249V63.9999V63.6249ZM14.2954 63.6249L14.2954 63.2499H14.2954V63.6249ZM10.6251 42.3749L10.6251 41.9999L10.2501 41.9999V42.3749H10.6251ZM19.1545 42.375L19.4356 42.6232C19.5332 42.5127 19.5569 42.3552 19.4963 42.2208C19.4357 42.0864 19.3019 42 19.1545 42L19.1545 42.375ZM17.7899 44.9987C17.7899 47.381 19.7008 49.31 22.0723 49.31V48.56C20.1202 48.56 18.5399 46.972 18.5399 44.9987H17.7899ZM22.0723 49.31C24.4437 49.31 26.3546 47.381 26.3546 44.9987H25.6046C25.6046 46.972 24.0243 48.56 22.0723 48.56V49.31ZM26.3546 44.9987C26.3546 43.9087 25.9558 42.902 25.2711 42.1267L24.709 42.6232C25.275 43.2641 25.6046 44.095 25.6046 44.9987H26.3546ZM32.8754 49.7387C33.4869 49.1905 34.2084 48.9957 35.1411 48.9957V48.2457C34.0947 48.2457 33.169 48.4684 32.3748 49.1802L32.8754 49.7387ZM35.1411 48.9957C37.0932 48.9957 38.6735 50.5837 38.6735 52.557H39.4235C39.4235 50.1747 37.5126 48.2457 35.1411 48.2457V48.9957ZM38.6735 52.557C38.6735 54.4951 36.8276 56.1182 34.8389 56.1182V56.8682C37.1737 56.8682 39.4235 54.9743 39.4235 52.557H38.6735ZM34.8389 56.1182C34.3682 56.1182 34.0402 56.0705 33.7565 55.9638C33.4737 55.8574 33.2073 55.6821 32.8754 55.3846L32.3748 55.9431C32.7458 56.2756 33.0914 56.5149 33.4925 56.6658C33.8925 56.8162 34.32 56.8682 34.8389 56.8682V56.1182ZM32.6251 63.2499H25.9796V63.9999H32.6251V63.2499ZM25.9796 63.2499L14.2954 63.2499L14.2954 63.9999L25.9796 63.9999V63.2499ZM14.2954 63.2499C13.298 63.2499 12.4781 62.9331 11.9103 62.3948C11.3449 61.8587 11.0001 61.0753 11.0001 60.0813H10.2501C10.2501 61.2576 10.6632 62.2459 11.3943 62.9391C12.1232 63.6301 13.1384 63.9999 14.2954 63.9999V63.2499ZM11.0001 60.0813V42.3749H10.2501V60.0813H11.0001ZM10.6251 42.7499L19.1545 42.75L19.1545 42L10.6251 41.9999L10.6251 42.7499ZM18.8734 42.1267C18.1887 42.902 17.7899 43.9087 17.7899 44.9987H18.5399C18.5399 44.095 18.8695 43.2641 19.4356 42.6232L18.8734 42.1267ZM32.2501 42.375V45.6545H33.0001V42.375H32.2501ZM32.2501 45.6545V49.4595H33.0001V45.6545H32.2501ZM32.2501 55.6638V59.7929H33.0001V55.6638H32.2501ZM32.2501 59.7929V63.6249H33.0001V59.7929H32.2501ZM24.99 42.75L32.6251 42.75V42L24.99 42V42.75Z" fill="black"/>
<path d="M32.625 42.0608V38.7172V34.7074C31.9397 35.3181 30.6828 35.7013 29.718 35.7013C27.6103 35.7013 25.9083 33.9966 25.9083 31.8854C25.9083 29.7742 27.6103 28.0695 29.718 28.0695C30.6828 28.0695 31.9397 28.5831 32.625 29.1939V25.248V20.6259H14.4531C12.3526 20.6259 10.625 22.6298 10.625 24.7337V42.0608" stroke="black" stroke-width="0.75" stroke-miterlimit="10" stroke-linejoin="round"/>
<path d="M32.3057 63.625L50.7181 63.6249C52.8603 63.6249 54.3778 61.6922 54.3778 59.5586V42.4151H50.2078L45.5426 42.4151C46.1644 41.719 46.5513 40.7327 46.5513 39.7527C46.5513 37.6117 44.8156 35.883 42.666 35.883C40.5165 35.883 38.7808 37.6117 38.7808 39.7527C38.7808 40.7327 39.307 41.6789 39.9288 42.375H36.3565H32.7841" stroke="black" stroke-width="0.75" stroke-miterlimit="10" stroke-linejoin="round"/>
</svg>
