<svg width="80" height="80" viewBox="0 0 80 80" fill="none" xmlns="http://www.w3.org/2000/svg">
<path d="M15.625 8.5C15.625 9.6736 14.6736 10.625 13.5 10.625C12.3264 10.625 11.375 9.6736 11.375 8.5C11.375 7.32639 12.3264 6.375 13.5 6.375C14.6736 6.375 15.625 7.32639 15.625 8.5Z" stroke="black" stroke-width="0.75" stroke-miterlimit="10"/>
<path d="M55.375 12.2267C55.375 6.2361 60.1482 1.375 66 1.375C71.8518 1.375 76.625 6.2361 76.625 12.2267C76.625 14.0743 76.0312 16.1655 75.1112 18.289C74.1931 20.408 72.9615 22.5335 71.7118 24.4426C69.2127 28.2601 66.6605 31.1834 66.4552 31.4171C66.2118 31.6939 65.79 31.6947 65.5447 31.417C65.3392 31.183 62.7871 28.2599 60.2882 24.4426C59.0385 22.5335 57.8069 20.408 56.8888 18.289C55.9688 16.1655 55.375 14.0743 55.375 12.2267Z" stroke="black" stroke-width="0.75" stroke-miterlimit="10"/>
<path d="M76.625 42C76.625 42.8975 75.8975 43.625 75 43.625C74.1025 43.625 73.375 42.8975 73.375 42C73.375 41.1025 74.1025 40.375 75 40.375C75.8975 40.375 76.625 41.1025 76.625 42Z" stroke="black" stroke-width="0.75" stroke-miterlimit="10"/>
<path d="M17.5006 30C8.40165 30 1 37.4739 1 46.6599C1 58.0589 15.7656 74.7958 16.3946 75.5027C16.9847 76.1658 18.0153 76.1658 18.6054 75.5027C19.2344 74.7958 34 58.0589 34 46.6599C34 37.4739 26.5984 30 17.5006 30ZM17.4994 56.0235C12.013 56.0235 7.56537 51.5525 7.56537 46.0359C7.56537 40.5193 12.013 36.0494 17.4994 36.0494C22.9859 36.0494 27.4346 40.5205 27.4346 46.0359C27.4346 51.5513 22.9859 56.0235 17.4994 56.0235Z" fill="black"/>
<path d="M60 32.5C53 32.8333 39.5 35 39.5 43C39.5 48.5 47 51.5 56 51.5C65 51.5 73.5 55 73.5 63C73.5 71 57 75.5 25 75.5" stroke="black" stroke-dasharray="4 4"/>
<circle cx="66" cy="11" r="4.625" stroke="black" stroke-width="0.75"/>
<path d="M12 46.5C12 45.6716 12.6716 45 13.5 45H21.5C22.3284 45 23 45.6716 23 46.5C23 47.3284 22.3284 48 21.5 48H13.5C12.6716 48 12 47.3284 12 46.5Z" fill="black"/>
<path d="M17.5 41C18.3284 41 19 41.6716 19 42.5L19 50.5C19 51.3284 18.3284 52 17.5 52C16.6716 52 16 51.3284 16 50.5L16 42.5C16 41.6716 16.6716 41 17.5 41Z" fill="black"/>
</svg>
