<svg width="72" height="72" viewBox="0 0 72 72" fill="none" xmlns="http://www.w3.org/2000/svg">
<circle cx="59.3366" cy="52.6443" r="1.64425" fill="#DAF3EC" stroke="#DAF3EC"/>
<path d="M21.5 48.4991H9.5V44.5L10 41.5L11.5 38.9991C12.5 38.3325 15.3 37.2991 18.5 38.4991C21.7 39.6991 21.8333 45.6658 21.5 48.4991Z" fill="#DAF3EC" stroke="#DAF3EC"/>
<path d="M3 23H28V26H3V23Z" fill="#DAF3EC" stroke="#DAF3EC"/>
<path d="M62.8974 27.062L62.9022 27.1003L62.9128 27.1374C63.1145 27.8434 62.9516 28.3944 62.5679 28.8629C62.1633 29.3568 61.4995 29.7704 60.6993 30.1002C59.1008 30.7592 57.167 31 56.3936 31C55.6603 31 54.1086 30.652 52.6703 29.984C51.9579 29.6532 51.3004 29.2559 50.7986 28.807C50.3269 28.3851 50.0213 27.9438 49.9051 27.4948C50.3911 25.2048 51.619 23.8471 52.9098 23.0505C54.2373 22.2313 55.6434 22 56.3936 22C57.1208 22 58.6589 22.3446 60.073 23.1804C61.4778 24.0108 62.6736 25.2718 62.8974 27.062ZM58.8936 18.5C58.8936 19.8807 57.7743 21 56.3936 21C55.0128 21 53.8936 19.8807 53.8936 18.5C53.8936 17.1193 55.0128 16 56.3936 16C57.7743 16 58.8936 17.1193 58.8936 18.5Z" fill="#DAF3EC" stroke="#DAF3EC"/>
<path d="M4 49H27V51H4V49Z" fill="#DAF3EC" stroke="#DAF3EC"/>
<path d="M48.3191 62.8578C48.1224 62.8502 47.964 62.8438 47.8375 62.8386C47.8136 61.4376 48.0473 59.0939 48.6168 57.0202C48.9343 55.8642 49.3458 54.8317 49.8482 54.101C50.3535 53.366 50.8861 53.0226 51.443 53.0274C52.7476 53.0386 53.5315 53.8706 54.0441 55.133C54.5621 56.4084 54.7393 57.9901 54.8632 59.2155C54.9066 59.6448 54.9823 60.0783 55.0503 60.4677C55.0811 60.6437 55.1102 60.8107 55.1341 60.9643C55.2167 61.4946 55.2405 61.8822 55.1667 62.1721C55.105 62.4143 54.9704 62.6114 54.6172 62.7625C54.2269 62.9294 53.5774 63.0336 52.5157 63.0002C50.3448 62.932 49.0603 62.8863 48.3191 62.8578Z" fill="#DAF3EC" stroke="#DAF3EC"/>
<circle cx="56.5" cy="21.5" r="10" stroke="black"/>
<path d="M63.5 28.5C63.5 27.9851 63.4444 27.4832 63.3389 27C62.6522 23.8548 59.8511 21.5 56.5 21.5C53.2532 21.5 50.5227 23.7105 49.7313 26.7086C49.5804 27.2804 49.5 27.8808 49.5 28.5" stroke="black"/>
<circle cx="56.5" cy="18.5" r="3" stroke="black"/>
<path d="M15.5 37.5V48.5" stroke="black"/>
<path d="M3.5 51.5V48.5H27.5V51.5H3.5Z" stroke="black" stroke-linecap="round" stroke-linejoin="round"/>
<path d="M5.5 48.5V26.5M25.5 48.5V26.5M2.5 26.5H28.5V22.5H2.5V26.5Z" stroke="black" stroke-linecap="round" stroke-linejoin="round"/>
<path d="M5.5 34.5H25" stroke="black"/>
<path d="M8.5 30.5H22.5" stroke="black" stroke-linecap="round" stroke-linejoin="round"/>
<circle cx="45.4196" cy="52.5407" r="1.64425" fill="#DAF3EC" stroke="#DAF3EC"/>
<path d="M42.3188 63.3462C42.1957 63.3417 42.0916 63.3378 42.0038 63.3345C41.9704 61.996 42.1508 60.0092 42.6583 58.2995C42.9423 57.343 43.3176 56.5117 43.7847 55.931C44.2448 55.3589 44.7628 55.0633 45.3631 55.0684C46.6677 55.0796 47.4516 55.9117 47.9642 57.174C48.4821 58.4495 48.6594 60.0311 48.7833 61.2565C48.8343 61.7613 48.924 62.1954 48.9939 62.5331C49.0122 62.6221 49.0292 62.7043 49.0438 62.7794C49.0804 62.9685 49.0994 63.0998 49.1015 63.1984C49.103 63.2724 49.0942 63.3033 49.0911 63.3116C49.0761 63.3265 48.982 63.4003 48.5974 63.4493C48.1427 63.5072 47.4372 63.5135 46.3489 63.4793C44.1777 63.411 42.9767 63.37 42.3188 63.3462ZM49.0934 63.3089C49.0935 63.3089 49.0931 63.3094 49.0923 63.3103C49.093 63.3094 49.0934 63.3089 49.0934 63.3089Z" fill="#DAF3EC" stroke="#DAF3EC"/>
<path d="M21.5 48.5V43.5C21.5 40.1863 18.8137 37.5 15.5 37.5C12.1863 37.5 9.5 40.1863 9.5 43.5V48.5" stroke="black"/>
<path d="M48.1258 56.5C47.4232 55.2543 46.5049 54.5 45.5 54.5C43.2909 54.5 41.5 58.1457 41.5 62.6429C41.5 63.1053 41.5189 63.0586 41.5553 63.5H47.5" stroke="black" stroke-linejoin="round"/>
<path d="M56.2358 63.4497C56.1127 63.4452 56.0086 63.4414 55.9208 63.438C55.8874 62.0995 56.0678 60.1127 56.5753 58.403C56.8593 57.4465 57.2345 56.6153 57.7017 56.0345C58.1618 55.4625 58.6798 55.1668 59.2801 55.1719C60.5846 55.1831 61.3686 56.0152 61.8812 57.2776C62.3991 58.553 62.5764 60.1346 62.7003 61.3601C62.7513 61.8648 62.841 62.2989 62.9108 62.6366C62.9292 62.7256 62.9462 62.8078 62.9608 62.8829C62.9974 63.072 63.0164 63.2033 63.0184 63.302C63.02 63.3759 63.0111 63.4068 63.0081 63.4151C62.9931 63.43 62.899 63.5038 62.5144 63.5528C62.0597 63.6107 61.3542 63.617 60.2659 63.5828C58.0947 63.5145 56.8937 63.4735 56.2358 63.4497ZM63.0104 63.4124C63.0105 63.4125 63.0101 63.4129 63.0093 63.4139C63.01 63.4129 63.0104 63.4124 63.0104 63.4124Z" fill="#DAF3EC" stroke="#DAF3EC"/>
<circle cx="45.5" cy="52.5" r="2" stroke="black"/>
<path d="M63.4999 62.6429C63.4999 58.1457 61.7091 54.5 59.4999 54.5C58.1887 54.5 57.0249 55.7843 56.2954 57.7686C55.7958 59.1276 55.4999 60.8149 55.4999 62.6429C55.4999 63.1053 55.4631 63.0586 55.4994 63.5H56.5333H63.478C63.5144 63.0586 63.4999 63.1053 63.4999 62.6429Z" stroke="black" stroke-linejoin="round"/>
<circle cx="51.4997" cy="50.4997" r="1.64425" fill="#DAF3EC" stroke="#DAF3EC"/>
<circle cx="59.5" cy="52.5" r="2" stroke="black"/>
<path d="M51.5 52.5C49.2909 52.5 47.5 56.1457 47.5 60.6429C47.5 61.1053 47.5189 63.0586 47.5553 63.5H55.4447C55.4811 63.0586 55.5 61.1053 55.5 60.6429C55.5 56.1457 53.7091 52.5 51.5 52.5Z" stroke="black"/>
<circle cx="51.5" cy="50.5" r="2" stroke="black"/>
<path d="M58.1877 50.8632C60.3087 47.2171 61.5204 42.9972 61.5204 38.5C61.5204 35.7022 61.0514 33.0117 60.1863 30.5M48 16.4277C44.4257 14.5592 40.3442 13.5 36.0102 13.5C28.1317 13.5 21.0874 17 16.408 22.5M41.8424 62.8244C39.9213 63.2774 38.0732 63.5 36.0102 63.5C26.9719 63.5 19.0315 58.8936 14.5 51.9458" stroke="black" stroke-dasharray="2 2"/>
<path d="M12.5 43.5V44.5" stroke="black" stroke-linecap="round"/>
<path d="M18.5 43.5V44.5" stroke="black" stroke-linecap="round"/>
</svg>
