<svg width="32" height="32" viewBox="0 0 32 32" fill="none" xmlns="http://www.w3.org/2000/svg">
<path d="M9.81798 26.0102C9.34704 24.9815 8.53809 21.3435 8.53809 19.5102C8.53809 19.5102 9.43173 11.8155 15.7495 12.3488C22.0672 12.882 21.8336 16.9915 22.2336 17.3915C22.7336 17.8915 22.5209 23.3918 21.3719 25.7848C20.2064 28.2121 17.9554 30.9379 14.5 30.5C13.0119 30.3114 10.5 27.5 9.81798 26.0102Z" fill="#DAF3EC"/>
<path d="M8.50977 19.3105V20.919C8.50977 25.6868 11.6388 30.5 15.4986 30.5C19.3584 30.5 22.4874 25.6868 22.4874 20.919V19.311" stroke="black" stroke-linejoin="round"/>
<path d="M22.4874 19.4956C22.4874 15.6353 19.3584 12.5059 15.4986 12.5059C11.6388 12.5059 8.50977 15.6353 8.50977 19.4956" stroke="black"/>
<circle cx="11.9329" cy="20.9202" r="1.42409" fill="white"/>
<circle cx="18.9993" cy="20.9202" r="1.42409" fill="white"/>
<circle cx="11.999" cy="20.9062" r="1.5" stroke="black"/>
<path d="M17.6562 25.6387H13.2598L13.7484 27.1041L15.2747 27.623C15.753 27.5111 16.7766 27.2506 17.0453 27.1041C17.3139 26.9575 17.5645 26.0661 17.6562 25.6387Z" fill="white"/>
<circle cx="18.999" cy="20.9062" r="1.5" stroke="black"/>
<path d="M13 25.5117C13.3776 26.1048 13.5 27.5 15.5 27.5C17.5 27.5 17.6224 26.1048 18 25.5117H13Z" stroke="black" stroke-linecap="round" stroke-linejoin="round"/>
<path d="M22.1338 10.2676C27.9022 12.9661 27.501 19.5 22.4301 22.6147" stroke="black" stroke-linecap="round"/>
<path d="M8.8303 23.623C7.08386 22.8573 3.8396 19.4778 4.5006 12.4997C5.32684 3.77715 11.5 1.55871 15.0001 1.50038C16.5486 1.47458 25.2618 2.72009 25.499 12.9995" stroke="black"/>
<path d="M16.1781 9.11914C13 9.11914 10.7161 11.0092 9.5 13" stroke="black" stroke-linecap="round"/>
</svg>
