<svg width="72" height="72" viewBox="0 0 72 72" fill="none" xmlns="http://www.w3.org/2000/svg">
<circle cx="49.0614" cy="27" r="22" fill="#DAF3EC"/>
<path d="M4.625 52.5C4.625 53.1213 4.12132 53.625 3.5 53.625C2.87868 53.625 2.375 53.1213 2.375 52.5C2.375 51.8787 2.87868 51.375 3.5 51.375C4.12132 51.375 4.625 51.8787 4.625 52.5Z" stroke="black" stroke-width="0.75" stroke-miterlimit="10"/>
<path d="M58.625 17C58.625 17.8975 57.8975 18.625 57 18.625C56.1025 18.625 55.375 17.8975 55.375 17C55.375 16.1025 56.1025 15.375 57 15.375C57.8975 15.375 58.625 16.1025 58.625 17Z" stroke="black" stroke-width="0.75" stroke-miterlimit="10"/>
<path d="M70 50.8049C70 49.8048 69.4679 48.9222 68.6306 48.5085V33C68.8205 32.9286 66.6728 33.5617 66.6728 33.5617V48.4C65.8377 48.8115 65 49.7602 65 50.7539C65 51.7913 65.6335 52.6922 66.538 53.0781C65.6325 54.865 65 58.5305 65 59.5765C65 60.971 66.1327 61.9944 67.5278 61.9944C68.9207 61.9944 69.8634 60.971 69.8634 59.5765C69.8634 58.5305 69.4188 54.864 68.5154 53.0781C69.422 52.6954 70 51.8434 70 50.8049Z" fill="black"/>
<path d="M11.3609 41.6764C11.3632 45.3294 11.3654 49.7518 11.3654 50.4345C11.3654 57.2375 21.9939 63.2751 35.4995 63.6225C49.0029 63.2751 60.6157 57.244 60.6157 50.4345C60.6157 49.7561 60.6111 45.3316 60.6157 41.6764" stroke="black" stroke-width="0.75" stroke-miterlimit="10" stroke-linecap="round" stroke-linejoin="bevel"/>
<path d="M68.6935 33.3621C68.8836 33.2902 69.0021 33.1101 69 32.9085C69 32.7068 68.8686 32.5288 68.6849 32.4634L36.6333 21.1102C36.2232 20.9633 35.7757 20.9633 35.3635 21.1102L3.31719 32.4645C3.12924 32.5299 3.00216 32.709 3.00003 32.9095C2.99789 33.1111 3.11856 33.2913 3.30438 33.3631L35.3069 45.8713C35.7523 46.0429 36.2445 46.0429 36.6909 45.8713L68.6935 33.3621Z" fill="black"/>
</svg>
