<svg width="32" height="32" viewBox="0 0 32 32" fill="none" xmlns="http://www.w3.org/2000/svg">
<path d="M22.4597 30.0469C26.0506 30.0469 28.9617 27.1359 28.9617 23.5449C28.9617 19.954 26.0506 17.043 22.4597 17.043C18.8688 17.043 15.9578 19.954 15.9578 23.5449C15.9578 27.1359 18.8688 30.0469 22.4597 30.0469Z" fill="#DAF3EC"/>
<path d="M28.4617 23.5449C28.4617 26.8597 25.7745 29.5469 22.4597 29.5469C19.1449 29.5469 16.4578 26.8597 16.4578 23.5449C16.4578 20.2301 19.1449 17.543 22.4597 17.543C25.7745 17.543 28.4617 20.2301 28.4617 23.5449Z" stroke="black" stroke-miterlimit="10"/>
<path d="M23.5 21.5L22.5 24.5" stroke="black" stroke-miterlimit="10" stroke-linecap="round"/>
<path d="M22.5 24.5002L19.5 24.5001" stroke="black" stroke-miterlimit="10" stroke-linecap="round"/>
<path d="M15.4993 3.00586L15.4993 7.01334" stroke="black" stroke-miterlimit="10" stroke-linecap="round"/>
<path d="M9.49927 3.00586L9.49927 7.01335" stroke="black" stroke-miterlimit="10" stroke-linecap="round"/>
<path d="M21.511 3.00586L21.511 7.01334" stroke="black" stroke-miterlimit="10" stroke-linecap="round"/>
<path d="M14.5 26.5H5.5C4.39543 26.5 3.5 25.6046 3.5 24.5V6.5C3.5 5.39543 4.39543 4.5 5.5 4.5H25.5C26.6046 4.5 27.5 5.39543 27.5 6.5V16.5" stroke="black" stroke-miterlimit="10" stroke-linejoin="round"/>
<rect x="9" y="10" width="1" height="2" rx="0.5" fill="black"/>
<rect x="15" y="10" width="1" height="2" rx="0.5" fill="black"/>
<rect x="21" y="10" width="1" height="2" rx="0.5" fill="black"/>
<rect x="9" y="15" width="1" height="2" rx="0.5" fill="black"/>
<rect x="15" y="15" width="1" height="2" rx="0.5" fill="black"/>
<rect x="9" y="20" width="1" height="2" rx="0.5" fill="black"/>
</svg>
