<svg width="32" height="32" viewBox="0 0 32 32" fill="none" xmlns="http://www.w3.org/2000/svg">
<path d="M7 12.0009C7.4 11.6009 8.98191 11.4121 9.64858 11.4121C9.64858 13.5788 9.5 18.1009 9.5 18.5009C9.5 19.0009 8.5 18.5009 8 18.5009C7.6 18.5009 6.83333 17.8343 6.5 17.5009C6.5 15.8343 6.6 12.4009 7 12.0009Z" fill="#DAF3EC"/>
<path d="M26.145 17.6103C25.745 18.0103 24.0907 18.6348 23.4241 18.6348L23.4241 11.6378C23.4241 11.1378 25.1034 11.5108 25.6034 11.5108C26.0034 11.5108 26.1671 12.2107 26.5004 12.544C26.5004 14.2107 26.545 17.2103 26.145 17.6103Z" fill="#DAF3EC"/>
<path d="M16.5 24.4991C20.366 24.4991 23.5 20.6935 23.5 15.9991V10.4991C20 12.4982 16 11.4991 14 9.99912C12.4 8.79912 10.3333 9.83245 9.5 10.4991V15.9991C9.5 20.6935 12.634 24.4991 16.5 24.4991Z" stroke="black" stroke-linejoin="round"/>
<path d="M13.5 23.5V27.5C14 28.5 17.1 29.9 19.5 27.5V23.5" stroke="black" stroke-linejoin="round"/>
<path d="M10 18.5H8.5C7.39543 18.5 6.5 17.6046 6.5 16.5V13C6.5 12.1716 7.17157 11.5 8 11.5V11.5H9.5" stroke="black"/>
<path d="M23 18.5H24.5C25.6046 18.5 26.5 17.6046 26.5 16.5V13C26.5 12.1716 25.8284 11.5 25 11.5V11.5H23.5" stroke="black"/>
<path d="M25.5 11.5V11C25.5 8.93305 24.6653 7.03841 23.3302 5.56505M7.5 11.5V11C7.5 6.30558 11.8056 2.5 16.5 2.5C17.4396 2.5 18.3635 2.65244 19.2405 2.93393" stroke="black" stroke-linecap="round"/>
<path d="M19.5 27.5L26.5 29.5" stroke="black" stroke-linecap="round"/>
<path d="M13.5 27.5L5.5 29.5" stroke="black" stroke-linecap="round"/>
</svg>
