<svg width="72" height="72" viewBox="0 0 72 72" fill="none" xmlns="http://www.w3.org/2000/svg">
<circle cx="46" cy="29" r="24" fill="white"/>
<path d="M39.9339 11.2742C38.6485 11.0935 37.3352 11 36 11C30.9 11 26.1184 12.3635 22 14.7459M55.9277 19.3306C60.919 24.387 64 31.3337 64 39C64 54.464 51.464 67 36 67C20.536 67 8 54.464 8 39C8 36.4229 8.34816 33.9272 9 31.5572" stroke="black" stroke-dasharray="4 4"/>
<path d="M49.4995 2C42.6074 2 37 7.52363 37 14.3132C37 22.7398 48.1857 35.1092 48.6625 35.6322C49.1102 36.1226 49.8908 36.1226 50.3375 35.6322C50.8133 35.1092 62 22.7398 62 14.3132C61.999 7.52363 56.3916 2 49.4995 2ZM49.4995 20.5088C46.0318 20.5088 43.211 17.7292 43.211 14.3132C43.211 10.8972 46.0318 8.11764 49.4995 8.11764C52.9672 8.11764 55.788 10.8972 55.788 14.3132C55.788 17.7292 52.9672 20.5088 49.4995 20.5088Z" fill="black"/>
<path d="M15.6108 40.4486L15.6106 40.4484C15.4254 40.2394 13.106 37.6002 10.8352 34.1535C9.69977 32.4302 8.58139 30.5124 7.74794 28.601C6.91251 26.6851 6.375 24.8019 6.375 23.1406C6.375 17.7513 10.6982 13.375 15.9995 13.375C21.3019 13.375 25.625 17.7503 25.625 23.1406C25.625 24.8016 25.0875 26.6847 24.2521 28.6006C23.4186 30.5119 22.3002 32.4298 21.1648 34.1532C18.8943 37.5994 16.5754 40.2385 16.3895 40.4483C16.1805 40.6839 15.8188 40.6838 15.6108 40.4486ZM10.5932 23.1406C10.5932 26.156 13.0135 28.6173 15.9995 28.6173C18.9865 28.6173 21.4058 26.156 21.4058 23.1406C21.4058 20.1252 18.9855 17.6639 15.9995 17.6639C13.0135 17.6639 10.5932 20.1252 10.5932 23.1406Z" stroke="black" stroke-width="0.75" stroke-miterlimit="10"/>
<path d="M35 39.375C30.2468 39.375 26.375 43.2667 26.375 48.0541C26.375 49.5288 26.8563 51.204 27.6071 52.9122C28.356 54.6158 29.3612 56.326 30.3824 57.8635C32.4236 60.9369 34.5085 63.291 34.6769 63.4802L35 39.375ZM35 39.375C39.7543 39.375 43.625 43.2666 43.625 48.0541C43.625 49.5288 43.1437 51.2041 42.3929 52.9124C41.644 54.6161 40.6388 56.3264 39.6176 57.8639C37.5753 60.9391 35.4893 63.294 35.3232 63.4801M35 39.375L35.3232 63.4801M35.3232 63.4801C35.15 63.6734 34.8492 63.6731 34.6771 63.4805L35.3232 63.4801ZM30.0964 48.0541C30.0964 50.7718 32.2943 52.9847 35 52.9847C37.7069 52.9847 39.9036 50.7717 39.9036 48.0541C39.9036 45.3363 37.7057 43.1234 35 43.1234C32.2931 43.1234 30.0964 45.3364 30.0964 48.0541Z" stroke="black" stroke-width="0.75" stroke-miterlimit="10"/>
<path d="M3.5 10C4.88072 10 6 8.88071 6 7.5C6 6.11929 4.88072 5 3.5 5C2.11929 5 1 6.11929 1 7.5C1 8.88071 2.11929 10 3.5 10Z" stroke="black" stroke-width="0.75" stroke-miterlimit="10"/>
<path d="M69.6246 6.95099C69.6246 7.82138 68.919 8.52698 68.0486 8.52698C67.1783 8.52698 66.4727 7.82138 66.4727 6.95099C66.4727 6.08059 67.1783 5.375 68.0486 5.375C68.919 5.375 69.6246 6.08059 69.6246 6.95099Z" stroke="black" stroke-width="0.75" stroke-miterlimit="10"/>
</svg>
