<svg width="32" height="32" viewBox="0 0 32 32" fill="none" xmlns="http://www.w3.org/2000/svg">
<path d="M29 6H3V13H29V6Z" fill="#DAF3EC"/>
<path d="M29.5 5.5H2.5V26.5H29.5V5.5Z" stroke="black" stroke-miterlimit="10" stroke-linecap="round" stroke-linejoin="round"/>
<path d="M5.5 10C5.2 10 5 9.8 5 9.5C5 9.2 5.2 9 5.5 9C5.8 9 6 9.2 6 9.5C6 9.8 5.8 10 5.5 10Z" fill="black"/>
<path d="M7.5 10C7.2 10 7 9.8 7 9.5C7 9.2 7.2 9 7.5 9C7.8 9 8 9.2 8 9.5C8 9.8 7.7 10 7.5 10Z" fill="black"/>
<path d="M9.5 10C9.2 10 9 9.8 9 9.5C9 9.2 9.2 9 9.5 9C9.8 9 10 9.2 10 9.5C10 9.8 9.8 10 9.5 10Z" fill="black"/>
<path d="M2.5 13.5H29" stroke="black" stroke-miterlimit="10" stroke-linecap="round" stroke-linejoin="round"/>
<path d="M26.5 9.5H12.5" stroke="black" stroke-miterlimit="10" stroke-linecap="round" stroke-linejoin="round"/>
</svg>
