<svg width="72" height="72" viewBox="0 0 72 72" fill="none" xmlns="http://www.w3.org/2000/svg">
<circle cx="49.0615" cy="27" r="22" fill="white"/>
<path d="M4.625 52.5C4.625 53.1213 4.12132 53.625 3.5 53.625C2.87868 53.625 2.375 53.1213 2.375 52.5C2.375 51.8787 2.87868 51.375 3.5 51.375C4.12132 51.375 4.625 51.8787 4.625 52.5Z" stroke="black" stroke-width="0.75" stroke-miterlimit="10"/>
<path d="M58.625 17C58.625 17.8975 57.8975 18.625 57 18.625C56.1025 18.625 55.375 17.8975 55.375 17C55.375 16.1025 56.1025 15.375 57 15.375C57.8975 15.375 58.625 16.1025 58.625 17Z" stroke="black" stroke-width="0.75" stroke-miterlimit="10"/>
<path d="M70 50.8047C70 49.8046 69.4679 48.922 68.6306 48.5083V32.9998C68.8205 32.9283 66.6728 33.5615 66.6728 33.5615V48.3997C65.8377 48.8113 65 49.76 65 50.7536C65 51.791 65.6335 52.6919 66.538 53.0779C65.6325 54.8648 65 58.5303 65 59.5762C65 60.9708 66.1327 61.9941 67.5278 61.9941C68.9207 61.9941 69.8634 60.9708 69.8634 59.5762C69.8634 58.5303 69.4188 54.8637 68.5154 53.0779C69.422 52.6951 70 51.8431 70 50.8047Z" fill="black"/>
<path d="M11.3613 41.6758C11.3636 45.3288 11.3659 49.7512 11.3659 50.4339C11.3659 57.2369 21.9944 63.2745 35.5 63.6219C49.0033 63.2745 60.6162 57.2434 60.6162 50.4339C60.6162 49.7555 60.6116 45.331 60.6162 41.6758" stroke="black" stroke-width="0.75" stroke-miterlimit="10" stroke-linecap="round" stroke-linejoin="bevel"/>
<path d="M68.6935 33.3621C68.8836 33.2902 69.0021 33.1101 69 32.9085C69 32.7068 68.8686 32.5288 68.6849 32.4634L36.6333 21.1102C36.2232 20.9633 35.7757 20.9633 35.3635 21.1102L3.31719 32.4645C3.12924 32.5299 3.00216 32.709 3.00003 32.9095C2.99789 33.1111 3.11856 33.2913 3.30438 33.3631L35.3069 45.8713C35.7523 46.0429 36.2445 46.0429 36.6909 45.8713L68.6935 33.3621Z" fill="black"/>
</svg>
