<svg width="72" height="72" viewBox="0 0 72 72" fill="none" xmlns="http://www.w3.org/2000/svg">
<circle cx="26" cy="26" r="24" fill="#DAF3EC"/>
<path d="M27.9359 40.8348L31.2424 46.9729L37.5541 44.0895C38.3807 43.6457 39.4333 43.6457 40.2599 44.0895L46.423 47.0474L49.8059 41.0562C50.2568 40.242 51.0835 39.7247 51.9101 39.5768L58.6738 38.4677L57.8472 31.6644C57.6965 30.7767 57.9978 29.8891 58.6738 29.2238L63.4839 24.3427L58.7491 19.3137C58.1485 18.7219 57.8471 17.7608 57.9978 16.8732L58.9751 10.0698L52.1361 8.73835C51.3095 8.66489 50.5582 8.07311 50.1072 7.3334L46.8007 1.19531H46.7254L40.488 4.0052C39.6614 4.44903 38.6088 4.44903 37.7821 4.0052L31.6191 1.04736L28.2372 7.03752C27.7863 7.85171 26.9596 8.369 26.133 8.51694L19.294 9.70049C19.2187 9.77497 19.2187 9.84843 19.2187 9.84843L20.0453 16.5783C20.196 17.466 19.8946 18.3536 19.2187 19.0188L14.4839 23.8999L19.1433 28.929C19.7439 29.5207 20.0453 30.4819 19.8946 31.3695L18.9173 38.1728L25.8317 39.4298C26.7336 39.5033 27.4849 40.0951 27.9359 40.8348Z" stroke="black" stroke-width="0.75" stroke-miterlimit="10" stroke-linejoin="round"/>
<path d="M26.4839 24.4815L33.9075 33.0475L50.4839 14.0475" stroke="black" stroke-width="0.75" stroke-miterlimit="10" stroke-linecap="round" stroke-linejoin="round"/>
<path d="M37.4839 44.1286L52.4753 71.0475L57.4778 62.9327H69.4839L55.1905 39.0475" stroke="black" stroke-width="0.75" stroke-miterlimit="10" stroke-linejoin="round"/>
<path d="M39.4839 48.0475L28.4665 68.0475L9.48389 64.2543L23.832 39.0475" stroke="black" stroke-width="0.75" stroke-miterlimit="10" stroke-linejoin="round"/>
<path d="M28.4839 68.0474C28.4839 68.0474 25.4011 55.0305 26.7573 52.0474C21.5368 54.7718 18.4172 58.5772 18.4172 58.5772L8.48389 54.6126L9.48389 64.5474L28.4839 68.0474Z" fill="black"/>
<path d="M69.1089 40.5475C69.1089 41.7211 68.1575 42.6725 66.9839 42.6725C65.8103 42.6725 64.8589 41.7211 64.8589 40.5475C64.8589 39.3739 65.8103 38.4225 66.9839 38.4225C68.1575 38.4225 69.1089 39.3739 69.1089 40.5475Z" stroke="black" stroke-width="0.75" stroke-miterlimit="10"/>
<path d="M7.10889 8.04749C7.10889 8.94495 6.38135 9.67249 5.48389 9.67249C4.58642 9.67249 3.85889 8.94495 3.85889 8.04749C3.85889 7.15002 4.58642 6.42249 5.48389 6.42249C6.38135 6.42249 7.10889 7.15002 7.10889 8.04749Z" stroke="black" stroke-width="0.75" stroke-miterlimit="10"/>
</svg>
