<svg width="65" height="64" viewBox="0 0 65 64" fill="none" xmlns="http://www.w3.org/2000/svg">
<path d="M32.5 45L32.1359 45.3427L32.5 45.7296L32.8641 45.3427L32.5 45ZM63 32C63 48.8447 49.3447 62.5 32.5 62.5V63.5C49.897 63.5 64 49.397 64 32H63ZM32.5 62.5C15.6553 62.5 2 48.8447 2 32H1C1 49.397 15.103 63.5 32.5 63.5V62.5ZM2 32C2 15.1553 15.6553 1.5 32.5 1.5V0.5C15.103 0.5 1 14.603 1 32H2ZM32.5 1.5C49.3447 1.5 63 15.1553 63 32H64C64 14.603 49.897 0.5 32.5 0.5V1.5ZM42 28.7744C42 30.0486 41.4233 31.6732 40.4949 33.4396C39.5743 35.1911 38.341 37.0211 37.099 38.6885C35.8584 40.3542 34.6166 41.8476 33.6844 42.9251C33.2185 43.4636 32.8305 43.8976 32.5593 44.1966C32.4238 44.3461 32.3174 44.4617 32.2452 44.5398C32.2091 44.5788 32.1816 44.6085 32.1631 44.6282C32.1539 44.6381 32.147 44.6455 32.1424 44.6504C32.1401 44.6528 32.1385 44.6546 32.1374 44.6558C32.1368 44.6563 32.1364 44.6568 32.1362 44.657C32.136 44.6572 32.136 44.6572 32.1359 44.6573C32.1359 44.6573 32.1359 44.6573 32.5 45C32.8641 45.3427 32.8642 45.3426 32.8643 45.3425C32.8644 45.3424 32.8646 45.3422 32.8647 45.342C32.8651 45.3416 32.8656 45.3411 32.8663 45.3404C32.8676 45.3389 32.8695 45.3369 32.8721 45.3342C32.8771 45.3288 32.8845 45.3209 32.8942 45.3105C32.9137 45.2897 32.9422 45.259 32.9794 45.2188C33.0537 45.1385 33.1622 45.0204 33.3 44.8684C33.5758 44.5644 33.969 44.1245 34.4406 43.5794C35.3834 42.4896 36.6416 40.9767 37.901 39.2859C39.159 37.597 40.4257 35.7205 41.3801 33.9048C42.3267 32.1039 43 30.3003 43 28.7744H42ZM32.5 45C32.8641 44.6573 32.8641 44.6573 32.8641 44.6573C32.864 44.6572 32.864 44.6572 32.8638 44.657C32.8636 44.6568 32.8632 44.6563 32.8626 44.6558C32.8615 44.6546 32.8599 44.6528 32.8576 44.6504C32.853 44.6455 32.8461 44.6381 32.8369 44.6282C32.8184 44.6085 32.7909 44.5788 32.7548 44.5398C32.6826 44.4617 32.5762 44.3461 32.4407 44.1966C32.1695 43.8976 31.7815 43.4636 31.3156 42.9251C30.3834 41.8476 29.1416 40.3542 27.901 38.6885C26.659 37.0211 25.4257 35.1911 24.5051 33.4396C23.5767 31.6732 23 30.0486 23 28.7744H22C22 30.3003 22.6733 32.1039 23.6199 33.9048C24.5743 35.7205 25.841 37.597 27.099 39.2859C28.3584 40.9767 29.6166 42.4896 30.5594 43.5794C31.031 44.1245 31.4242 44.5644 31.7 44.8684C31.8378 45.0204 31.9463 45.1385 32.0206 45.2188C32.0578 45.259 32.0863 45.2897 32.1058 45.3105C32.1155 45.3209 32.1229 45.3288 32.1279 45.3342C32.1305 45.3369 32.1324 45.3389 32.1337 45.3404C32.1344 45.3411 32.1349 45.3416 32.1353 45.342C32.1354 45.3422 32.1356 45.3424 32.1357 45.3425C32.1358 45.3426 32.1359 45.3427 32.5 45ZM23 28.7744C23 26.0261 24.2828 23.712 26.1258 22.0754C27.9753 20.4329 30.3599 19.5 32.5 19.5V18.5C30.0901 18.5 27.4747 19.54 25.4617 21.3276C23.4422 23.1211 22 25.6942 22 28.7744H23ZM32.5 19.5C34.6401 19.5 37.0247 20.4329 38.8742 22.0754C40.7172 23.712 42 26.0261 42 28.7744H43C43 25.6942 41.5578 23.1211 39.5383 21.3276C37.5253 19.54 34.9099 18.5 32.5 18.5V19.5ZM36 28.4737C36 30.2653 34.4588 31.7632 32.5 31.7632V32.7632C34.9595 32.7632 37 30.8678 37 28.4737H36ZM32.5 31.7632C30.5412 31.7632 29 30.2653 29 28.4737H28C28 30.8678 30.0405 32.7632 32.5 32.7632V31.7632ZM29 28.4737C29 26.6821 30.5412 25.1842 32.5 25.1842V24.1842C30.0405 24.1842 28 26.0795 28 28.4737H29ZM32.5 25.1842C34.4588 25.1842 36 26.6821 36 28.4737H37C37 26.0795 34.9595 24.1842 32.5 24.1842V25.1842Z" fill="black"/>
</svg>
