<svg width="65" height="70" viewBox="0 0 65 70" fill="none" xmlns="http://www.w3.org/2000/svg">
<path d="M28.4451 20.2412C29.248 20.7172 30.1328 21.111 31.0831 21.4557C32.0499 21.7839 32.9183 22.1449 33.7212 22.5224C34.524 22.8998 35.1958 23.3429 35.7529 23.8517C36.2936 24.3604 36.5722 25.0497 36.5722 25.9031C36.5722 26.3954 36.4411 26.8878 36.1953 27.3637C35.9496 27.8396 35.6218 28.2663 35.1958 28.6602C34.7862 29.054 34.2946 29.3659 33.7375 29.6284C33.1804 29.8746 32.5906 30.0059 31.9516 30.0059C31.1487 30.0059 30.4441 29.891 29.8379 29.6448C29.2316 29.4151 28.7237 29.1197 28.2976 28.7915C27.8716 28.4632 27.5275 28.1022 27.2818 27.7411C27.036 27.3801 26.8557 27.0847 26.7738 26.8714H26.3478C26.3478 27.1996 26.315 27.6755 26.2495 28.2827C26.1839 28.8899 26.0856 29.3987 25.9709 29.7925C26.2495 30.0059 26.5936 30.2028 26.9868 30.3998C27.3801 30.5967 27.7897 30.7444 28.2321 30.8757C28.6745 31.007 29.1333 31.1054 29.5921 31.1875C30.0672 31.2696 30.526 31.3188 30.9848 31.3188C32.1973 31.3188 33.2624 31.1219 34.1799 30.728C35.0975 30.3341 35.884 29.8254 36.523 29.1853C37.1621 28.5453 37.6372 27.8232 37.9649 27.0355C38.2926 26.2477 38.4401 25.4108 38.4401 24.5245C38.4401 23.7696 38.3254 23.1296 38.0796 22.6208C37.8502 22.1121 37.5225 21.6854 37.1129 21.3572C37.3259 21.1438 37.5553 20.8813 37.7847 20.553C38.0141 20.2248 38.2435 19.8638 38.4401 19.4699C38.6367 19.0596 38.817 18.6329 38.9481 18.1734C39.0955 17.7139 39.1611 17.238 39.1611 16.7292C39.1611 15.6789 38.8989 14.8419 38.391 14.1855C37.883 13.529 37.244 12.9875 36.4903 12.5444C35.7365 12.1013 34.9173 11.7238 34.0325 11.412C33.1641 11.0838 32.3448 10.7391 31.5747 10.3617C30.821 9.98423 30.1819 9.52471 29.674 8.99956C29.1661 8.4744 28.9039 7.76871 28.9039 6.91533C28.9039 6.37376 29.0186 5.88143 29.2644 5.43832C29.4938 4.99522 29.8051 4.63418 30.1656 4.32236C30.526 4.01055 30.9521 3.78079 31.4272 3.61668C31.9024 3.45257 32.3776 3.37051 32.8855 3.37051C33.3771 3.37051 33.8359 3.45257 34.2455 3.61668C34.6551 3.78079 35.032 4.01055 35.3433 4.27313C35.6546 4.55212 35.9332 4.86393 36.1626 5.20857C36.392 5.56961 36.5394 5.93066 36.6377 6.30812H37.0637C37.1129 5.94707 37.2276 5.56961 37.4406 5.15933C37.6372 4.74905 37.8666 4.43724 38.096 4.2239C37.6208 3.68233 37.0146 3.17358 36.2445 2.73048C35.4908 2.28737 34.524 2.05762 33.3771 2.05762C32.3284 2.05762 31.4108 2.22173 30.6243 2.54995C29.8379 2.87818 29.1661 3.32128 28.6417 3.86285C28.1174 4.40442 27.7078 5.02804 27.4456 5.73373C27.1834 6.43941 27.0524 7.14509 27.0524 7.88359C27.0524 8.37593 27.0687 8.78621 27.1179 9.11443C27.1671 9.44266 27.2326 9.70524 27.3145 9.9514C27.3965 10.1812 27.4948 10.4109 27.6095 10.6079C27.7242 10.8048 27.8552 11.0181 28.0027 11.2315C27.7733 11.3792 27.5112 11.5761 27.2162 11.8387C26.9377 12.1013 26.6591 12.4131 26.4133 12.807C26.1676 13.1844 25.9546 13.6111 25.7907 14.087C25.6268 14.563 25.5449 15.0881 25.5449 15.6461C25.5449 16.8113 25.8235 17.7467 26.3642 18.4688C26.9541 19.1745 27.6422 19.7817 28.4451 20.2412ZM27.7078 12.889C28.0027 12.4131 28.2976 12.052 28.609 11.7895C28.7564 11.9043 28.9039 12.0192 29.0841 12.1505C29.2644 12.2654 29.5429 12.4295 29.9362 12.6428C30.3294 12.8562 30.8701 13.1352 31.5747 13.4634C32.2793 13.7916 33.1968 14.2183 34.3602 14.7435C34.9501 15.0061 35.4416 15.2522 35.8512 15.4984C36.2609 15.7281 36.5722 15.9907 36.818 16.2369C37.0474 16.4995 37.2276 16.7949 37.3259 17.1231C37.4406 17.4513 37.4898 17.8452 37.4898 18.2883C37.4898 18.9283 37.3915 19.4535 37.1948 19.8474C36.9982 20.2576 36.7688 20.6187 36.5394 20.9469C36.1789 20.7172 35.6055 20.4053 34.8026 20.0279C33.9997 19.6504 32.7544 19.0924 31.0667 18.3539C29.7232 17.7631 28.74 17.1887 28.1502 16.6308C27.5603 16.0728 27.2654 15.3507 27.2654 14.4481C27.2654 13.8901 27.4128 13.3649 27.7078 12.889Z" fill="black"/>
<path d="M1.52383 67.0783L1.35998 66.947C1.1142 66.7665 0.933959 66.6024 0.852033 66.4711C0.753721 66.3398 0.720951 66.2085 0.720951 66.0608C0.720951 65.8803 0.786492 65.7162 0.917574 65.6013C1.04866 65.4864 1.22889 65.4208 1.45829 65.4208C1.73684 65.4208 1.96623 65.5192 2.13008 65.7162C2.22839 65.8475 2.29393 65.9788 2.29393 66.1265C2.29393 66.2085 2.31032 66.2413 2.35948 66.2413C2.40863 66.2413 2.42502 66.1757 2.42502 66.0608C2.42502 65.8639 2.42502 65.6998 2.4414 65.5357C2.4414 65.388 2.45779 65.3059 2.45779 65.3223C2.45779 65.2895 2.42502 65.2731 2.37586 65.2567C2.09731 65.191 1.81876 65.1582 1.5566 65.1582C1.13058 65.1582 0.786492 65.2731 0.524328 65.4864C0.262164 65.6998 0.131082 65.9788 0.131082 66.3234C0.131082 66.8157 0.426016 67.3081 1.03227 67.784L1.31082 67.9973C1.70407 68.3092 1.91707 68.6374 1.91707 68.982C1.91707 69.1625 1.85153 69.3266 1.72045 69.4579C1.57298 69.6056 1.35998 69.6877 1.09781 69.6877C0.639025 69.6877 0.34409 69.4743 0.213008 69.0641C0.180238 68.9492 0.163852 68.8343 0.163852 68.7523C0.163852 68.6866 0.147467 68.6538 0.0983115 68.6538C0.065541 68.6538 0.0327705 68.703 0.0327705 68.8179C0.0163852 69.1297 0 69.4087 0 69.622C0 69.7205 0.0327705 69.8026 0.114697 69.8354C0.360475 69.9339 0.65541 69.9995 1.01589 69.9995C1.40913 69.9995 1.73684 69.9175 1.999 69.7533C2.37586 69.5072 2.57248 69.1461 2.57248 68.6866C2.57248 68.3912 2.49056 68.1286 2.34309 67.8989C2.14647 67.6199 1.90069 67.3573 1.52383 67.0783Z" fill="black"/>
<path d="M8.22427 69.7709C8.12596 69.7709 7.99488 69.7381 7.84741 69.6888C7.69994 69.6232 7.53609 69.5411 7.38862 69.4098C7.3067 69.3442 7.17562 69.2129 6.97899 69.0324C6.84791 68.9175 6.56936 68.6221 6.14335 68.1462C5.70094 67.6703 5.4224 67.3584 5.32408 67.2107C5.60263 66.9153 6.04503 66.4722 6.65129 65.8814C6.88068 65.6517 7.11008 65.504 7.3067 65.4219C7.42139 65.3727 7.53609 65.3563 7.66717 65.3563C7.73271 65.3563 7.76548 65.3399 7.76548 65.307C7.76548 65.2742 7.73271 65.2578 7.66717 65.2578C7.60163 65.2578 7.48694 65.2578 7.3067 65.2742C7.12646 65.2742 7.01176 65.2906 6.94622 65.2906C6.89707 65.2906 6.78237 65.2906 6.61852 65.2742C6.45467 65.2742 6.35635 65.2578 6.3072 65.2578C6.24166 65.2578 6.20889 65.2742 6.20889 65.307C6.20889 65.3399 6.24166 65.3563 6.29081 65.3727C6.33997 65.3891 6.37274 65.4219 6.37274 65.4876C6.37274 65.5532 6.27443 65.7009 6.06142 65.9471C5.56986 66.4722 5.14385 66.9153 4.78337 67.2928H4.7506V67.0302C4.7506 66.2917 4.7506 65.865 4.76699 65.7173C4.78337 65.5696 4.79976 65.4876 4.8653 65.4383C4.91445 65.3891 5.02915 65.3727 5.16023 65.3727C5.20939 65.3727 5.24216 65.3563 5.24216 65.3235C5.24216 65.2906 5.193 65.2742 5.11108 65.2742C5.04553 65.2742 4.91445 65.2742 4.71783 65.2906C4.53759 65.2906 4.40651 65.307 4.37374 65.307C4.34097 65.307 4.22627 65.307 4.01326 65.2906C3.80026 65.2906 3.6364 65.2742 3.52171 65.2742C3.43978 65.2742 3.39062 65.2906 3.39062 65.3235C3.39062 65.3563 3.4234 65.3727 3.48894 65.3727C3.58725 65.3727 3.66917 65.3727 3.73472 65.3891C3.89857 65.4219 3.98049 65.5368 3.99688 65.7337C3.99688 65.865 4.01326 66.3081 4.01326 67.0302V68.1134C4.01326 68.819 3.99688 69.2621 3.98049 69.4263C3.96411 69.6232 3.89857 69.7381 3.80026 69.7709C3.73472 69.7709 3.68556 69.7873 3.62002 69.7873C3.53809 69.7873 3.48894 69.8201 3.48894 69.8365C3.48894 69.8694 3.52171 69.9022 3.60363 69.9022C3.68556 69.9022 3.83303 69.9022 4.02965 69.8858C4.22627 69.8858 4.34097 69.8694 4.37374 69.8694C4.40651 69.8694 4.53759 69.8694 4.7506 69.8858C4.96361 69.8858 5.12746 69.9022 5.25854 69.9022C5.34047 69.9022 5.37324 69.8858 5.37324 69.8365C5.37324 69.8037 5.34047 69.7873 5.29131 69.7873C5.193 69.7873 5.09469 69.7873 4.99638 69.7709C4.8653 69.7545 4.78337 69.6396 4.78337 69.4427C4.76699 69.2621 4.76699 68.8355 4.76699 68.1298V67.5718H4.79976L4.8653 67.6703C4.94722 67.7851 5.193 68.0805 5.61902 68.5729C6.06142 69.098 6.35635 69.4098 6.47105 69.5083C6.61852 69.6396 6.73322 69.7381 6.83153 69.7873C6.94622 69.8529 7.07731 69.9022 7.24116 69.9022C7.32308 69.9022 7.47055 69.9186 7.66717 69.9186H8.15873C8.25704 69.9186 8.3062 69.9022 8.3062 69.8529C8.3062 69.7873 8.27343 69.7709 8.22427 69.7709Z" fill="black"/>
<path d="M10.0931 64.6664C10.1423 64.6007 10.175 64.5351 10.175 64.453C10.175 64.2725 10.0767 64.1904 9.88011 64.1904C9.79819 64.1904 9.71626 64.2233 9.6671 64.2725C9.61795 64.3381 9.60156 64.4038 9.60156 64.4694C9.60156 64.6664 9.69987 64.7648 9.88011 64.7648C9.96204 64.7648 10.044 64.732 10.0931 64.6664Z" fill="black"/>
<path d="M11.388 64.6664C11.4372 64.6007 11.47 64.5351 11.47 64.453C11.47 64.2725 11.3717 64.1904 11.175 64.1904C11.0931 64.1904 11.0112 64.2232 10.962 64.2889C10.9129 64.3545 10.8965 64.4202 10.8965 64.4858C10.8965 64.6828 10.9948 64.7812 11.175 64.7812C11.257 64.7648 11.3389 64.732 11.388 64.6664Z" fill="black"/>
<path d="M10.5682 65.1426C9.7326 65.1426 9.07719 65.4052 8.61841 65.9467C8.24154 66.3898 8.04492 66.9314 8.04492 67.5386C8.04492 68.1622 8.24154 68.7038 8.61841 69.1469C9.07719 69.6721 9.69983 69.9511 10.5191 69.9511C11.2892 69.9511 11.8955 69.7049 12.3706 69.2126C12.8294 68.7366 13.0588 68.1458 13.0588 67.4237C13.0588 66.7181 12.8294 66.1601 12.387 65.7498C11.9282 65.3559 11.322 65.1426 10.5682 65.1426ZM11.6333 69.3274C11.4039 69.5408 11.109 69.6557 10.7649 69.6557C10.1914 69.6557 9.7326 69.4259 9.38851 68.9828C9.06081 68.5561 8.88057 68.0145 8.88057 67.3581C8.88057 66.6688 9.04442 66.1437 9.37213 65.8154C9.63429 65.5529 9.962 65.4216 10.388 65.4216C10.896 65.4216 11.322 65.6185 11.6661 66.0124C12.0102 66.4226 12.1904 66.9806 12.1904 67.6535C12.174 68.4412 11.9938 68.9992 11.6333 69.3274Z" fill="black"/>
<path d="M18.6955 65.2409C18.5808 65.2409 18.4497 65.2409 18.3023 65.2573C18.1712 65.2573 18.0893 65.2737 18.0893 65.2737C18.0565 65.2737 17.9582 65.2737 17.7943 65.2573C17.6305 65.2573 17.483 65.2409 17.3519 65.2409C17.2536 65.2409 17.1881 65.2573 17.1881 65.2901C17.1881 65.3229 17.2209 65.3393 17.2864 65.3393C17.4339 65.3393 17.5486 65.3557 17.6141 65.3721C17.696 65.405 17.7616 65.487 17.7943 65.6183C17.8107 65.6675 17.8107 65.7824 17.8107 65.9301L17.8763 68.6872H17.8435C17.3683 68.1949 16.9095 67.7189 16.4999 67.2923C15.5659 66.3404 14.9269 65.684 14.5992 65.3229C14.4845 65.1916 14.4026 65.126 14.3698 65.126C14.3207 65.126 14.2879 65.1916 14.2879 65.3393L14.2387 68.9826C14.2387 69.2616 14.2224 69.4585 14.206 69.5406C14.1896 69.6555 14.124 69.7047 14.0585 69.7375C13.993 69.7539 13.911 69.7539 13.8455 69.7703C13.7472 69.7703 13.6816 69.8032 13.6816 69.8196C13.6816 69.8524 13.7308 69.8852 13.8127 69.8852C13.9438 69.8852 14.0749 69.8852 14.2387 69.8688C14.4026 69.8688 14.4681 69.8524 14.4681 69.8524C14.4845 69.8524 14.5828 69.8524 14.7467 69.8688C14.9105 69.8688 15.0744 69.8852 15.2382 69.8852C15.3366 69.8852 15.3857 69.8688 15.3857 69.8196C15.3857 69.8032 15.3202 69.7703 15.2055 69.7539C15.058 69.7375 14.9761 69.7211 14.9597 69.7211C14.8286 69.6719 14.7631 69.4421 14.7467 69.0318L14.6811 66.4553H14.6975C14.8614 66.6358 15.0416 66.8327 15.2219 67.0297C15.5659 67.4071 15.8773 67.7354 16.1558 68.0143C16.9751 68.8349 17.5649 69.4257 17.9582 69.8196C18.0565 69.9016 18.122 69.9509 18.1712 69.9509C18.2204 69.9509 18.2531 69.8852 18.2531 69.7539L18.3187 65.8809C18.3187 65.7332 18.3351 65.6183 18.3514 65.5363C18.4006 65.405 18.5153 65.3393 18.7283 65.3393C18.7938 65.3393 18.843 65.3229 18.843 65.2901C18.8266 65.2573 18.7775 65.2409 18.6955 65.2409Z" fill="black"/>
<path d="M24.7258 69.7701C24.6439 69.7701 24.5292 69.7701 24.4145 69.7537C24.2834 69.7373 24.2015 69.6224 24.1687 69.4255C24.1523 69.245 24.1359 68.8018 24.1359 68.1126V67.0294C24.1359 66.2909 24.1359 65.8642 24.1523 65.733C24.1687 65.5196 24.2342 65.4047 24.3817 65.3883C24.4473 65.3719 24.5128 65.3719 24.562 65.3719C24.6275 65.3719 24.6767 65.3555 24.6767 65.3227C24.6767 65.2899 24.6275 65.2734 24.5456 65.2734C24.4636 65.2734 24.3162 65.2734 24.1196 65.2898C23.9229 65.2898 23.8082 65.3063 23.7591 65.3063C23.7263 65.3063 23.5952 65.3063 23.3822 65.2898C23.1692 65.2898 23.0054 65.2734 22.8743 65.2734C22.7923 65.2734 22.7432 65.2899 22.7432 65.3227C22.7432 65.3555 22.776 65.3719 22.8415 65.3719C22.9398 65.3719 23.0217 65.3719 23.0873 65.3883C23.2511 65.4211 23.3331 65.536 23.3494 65.733C23.3494 65.8642 23.3658 66.3073 23.3658 67.0294V67.1607C23.3658 67.1935 23.3494 67.21 23.3331 67.21H20.99C20.9736 67.21 20.9572 67.1935 20.9572 67.1607V67.0294C20.9572 66.2909 20.9572 65.8642 20.9736 65.733C20.99 65.5196 21.0555 65.4047 21.203 65.3883C21.2685 65.3719 21.3341 65.3719 21.3832 65.3719C21.4488 65.3719 21.4979 65.3555 21.4979 65.3227C21.4979 65.2899 21.4488 65.2734 21.3668 65.2734C21.2849 65.2734 21.1374 65.2734 20.9408 65.2898C20.7442 65.2898 20.6295 65.3063 20.5803 65.3063C20.5476 65.3063 20.4165 65.3063 20.2035 65.2898C19.9905 65.2898 19.8266 65.2734 19.6955 65.2734C19.6136 65.2734 19.5645 65.2899 19.5645 65.3227C19.5645 65.3555 19.5972 65.3719 19.6628 65.3719C19.7611 65.3719 19.843 65.3719 19.9085 65.3883C20.0724 65.4211 20.1543 65.536 20.1707 65.733C20.1707 65.8642 20.1871 66.3073 20.1871 67.0294V68.1126C20.1871 68.8183 20.1707 69.2614 20.1543 69.4255C20.1216 69.6224 20.0724 69.7373 19.9741 69.7701C19.9085 69.7701 19.8594 69.7865 19.7938 69.7865C19.7119 69.7865 19.6628 69.8193 19.6628 69.8358C19.6628 69.8686 19.6955 69.9014 19.7775 69.9014C19.8594 69.9014 20.0069 69.9014 20.2035 69.885C20.4001 69.885 20.5148 69.8686 20.5476 69.8686C20.5803 69.8686 20.7114 69.8686 20.9408 69.885C21.1702 69.885 21.3504 69.9014 21.4979 69.9014C21.5798 69.9014 21.6126 69.885 21.6126 69.8358C21.6126 69.8029 21.5798 69.7865 21.5143 69.7865C21.4324 69.7865 21.3177 69.7865 21.203 69.7701C21.0719 69.7537 20.99 69.6388 20.9572 69.4419C20.9408 69.2614 20.9244 68.8183 20.9244 68.129V67.5874C20.9244 67.571 20.9408 67.5546 20.9572 67.5546H23.3003C23.3331 67.5546 23.3331 67.571 23.3331 67.5874V68.129C23.3331 68.8347 23.3167 69.2778 23.3003 69.4419C23.2675 69.6388 23.2184 69.7537 23.1201 69.7865C23.0545 69.7865 23.0054 69.8029 22.9398 69.8029C22.8579 69.8029 22.8087 69.8358 22.8087 69.8522C22.8087 69.885 22.8579 69.9178 22.9398 69.9178C23.0217 69.9178 23.1692 69.9178 23.3658 69.9014C23.5625 69.9014 23.6771 69.885 23.7099 69.885C23.7427 69.885 23.8738 69.885 24.1032 69.9014C24.3326 69.9014 24.5128 69.9178 24.6603 69.9178C24.7422 69.9178 24.775 69.9014 24.775 69.8522C24.8241 69.7865 24.7913 69.7701 24.7258 69.7701Z" fill="black"/>
<path d="M28.577 68.9492C28.5442 68.9492 28.5278 68.982 28.5114 69.0477C28.4786 69.2774 28.3803 69.4415 28.2329 69.5072C28.1182 69.5564 27.9379 69.5728 27.6594 69.5728C27.3481 69.5728 27.1514 69.54 27.0695 69.4743C26.9876 69.4087 26.9384 69.2774 26.922 69.0477V67.6035C26.922 67.5542 26.9384 67.5378 26.9548 67.5378C27.43 67.5378 27.7085 67.5378 27.8232 67.5542C28.0199 67.5707 28.1346 67.6527 28.1673 67.8004C28.1837 67.8989 28.2001 67.9645 28.2001 68.0138C28.2001 68.063 28.2165 68.0794 28.2492 68.0794C28.282 68.0794 28.2984 68.0466 28.2984 67.9645C28.2984 67.9317 28.2984 67.784 28.3312 67.5542C28.3312 67.4394 28.3476 67.3245 28.3639 67.226C28.3803 67.144 28.3803 67.1111 28.3803 67.1111C28.3803 67.0783 28.3639 67.0619 28.3312 67.0619C28.3148 67.0619 28.282 67.0947 28.2329 67.144C28.2001 67.1768 28.1509 67.1932 28.1018 67.2096C28.069 67.226 28.0035 67.226 27.9379 67.226C27.8396 67.226 27.5119 67.2424 26.9548 67.2424C26.922 67.2424 26.9057 67.226 26.9057 67.1768V65.6177C26.9057 65.5849 26.922 65.5521 26.9548 65.5521C27.3972 65.5521 27.6921 65.5521 27.8232 65.5685C28.0526 65.6013 28.1837 65.6669 28.2329 65.7818C28.2492 65.8146 28.2492 65.8475 28.2656 65.8967C28.2656 65.9459 28.282 65.9788 28.282 66.028C28.282 66.0772 28.2984 66.0936 28.3312 66.0936C28.3639 66.0936 28.3803 66.0772 28.3967 66.028C28.4131 65.8639 28.4295 65.7326 28.4295 65.6177C28.4295 65.5028 28.4459 65.4044 28.4623 65.3223C28.4786 65.2567 28.4786 65.2238 28.4786 65.2074C28.4786 65.1746 28.4623 65.1582 28.4459 65.1582C28.4459 65.1582 28.4131 65.1582 28.3476 65.1746C28.282 65.191 28.1837 65.2074 28.0854 65.2074C28.0362 65.2074 27.5283 65.2074 26.5452 65.2074C26.496 65.2074 26.3649 65.2074 26.1683 65.191C25.9553 65.191 25.7915 65.1746 25.6604 65.1746C25.5785 65.1746 25.5293 65.191 25.5293 65.2238C25.5293 65.2567 25.5621 65.2731 25.6276 65.2731C25.7259 65.2731 25.8078 65.2731 25.8734 65.2895C26.0372 65.3223 26.1192 65.4372 26.1356 65.6341C26.1356 65.7654 26.1519 66.2085 26.1519 66.9306V68.0138C26.1519 68.7194 26.1356 69.1625 26.1192 69.3266C26.1028 69.5236 26.0372 69.6385 25.9389 69.6713C25.8734 69.6713 25.8242 69.6877 25.7587 69.6877C25.6768 69.6877 25.6276 69.7205 25.6276 69.7369C25.6276 69.7697 25.6604 69.8026 25.7423 69.8026C25.8242 69.8026 25.9717 69.8026 26.1683 69.7862C26.3649 69.7862 26.4796 69.7698 26.5124 69.7698C26.578 69.7698 26.791 69.7697 27.1514 69.7862C27.4955 69.8026 27.856 69.8026 28.2165 69.8026C28.3476 69.8026 28.4295 69.7862 28.4623 69.7698C28.495 69.7533 28.5278 69.7041 28.5442 69.6385C28.5933 69.4415 28.6261 69.2118 28.6261 68.9492C28.6261 68.982 28.6097 68.9492 28.577 68.9492Z" fill="black"/>
<path d="M33.2127 65.191C33.1472 65.191 33.0489 65.2074 32.9178 65.2238C32.7867 65.2403 32.6884 65.2567 32.6229 65.2567H30.1979C30.0176 65.2567 29.8046 65.2403 29.5916 65.2238C29.5424 65.2238 29.4769 65.2074 29.4277 65.191C29.3786 65.1746 29.3458 65.1582 29.3294 65.1582C29.2967 65.1582 29.2803 65.191 29.2639 65.2731C29.182 65.6341 29.1328 65.8639 29.1328 65.9788C29.1328 66.0444 29.1492 66.0772 29.182 66.0772C29.2147 66.0772 29.2311 66.0608 29.2475 66.0116C29.2639 65.9459 29.2967 65.8803 29.3458 65.7982C29.4114 65.6834 29.6244 65.6341 29.9357 65.6177L30.8533 65.6013V68.1122C30.8533 68.8015 30.8369 69.2446 30.8205 69.4251C30.7877 69.622 30.7386 69.7369 30.6403 69.7698C30.5747 69.7698 30.5256 69.7862 30.46 69.7862C30.3781 69.7862 30.3289 69.819 30.3289 69.8354C30.3289 69.8682 30.3617 69.901 30.4436 69.901C30.5256 69.901 30.673 69.901 30.8696 69.8846C31.0663 69.8846 31.181 69.8682 31.2137 69.8682C31.2465 69.8682 31.3776 69.8682 31.607 69.8846C31.8364 69.8846 32.0166 69.901 32.1805 69.901C32.2624 69.901 32.2952 69.8846 32.2952 69.8354C32.2952 69.8026 32.2624 69.7862 32.1969 69.7862C32.1149 69.7862 32.0002 69.7862 31.8855 69.7698C31.7545 69.7533 31.6725 69.6385 31.6398 69.4415C31.6234 69.261 31.607 68.8179 31.607 68.1286V65.6177L32.3771 65.6341C32.8359 65.6505 33.0817 65.7654 33.098 65.9788V66.0444C33.098 66.1265 33.1308 66.1593 33.1636 66.1593C33.1964 66.1593 33.2127 66.1265 33.2127 66.0608C33.2127 65.9952 33.2291 65.8803 33.2291 65.6834C33.2291 65.5028 33.2455 65.388 33.2455 65.3387C33.2619 65.2403 33.2455 65.191 33.2127 65.191Z" fill="black"/>
<path d="M35.4899 67.0783L35.326 66.947C35.0802 66.7665 34.9 66.6024 34.8181 66.4711C34.7198 66.3398 34.687 66.2085 34.687 66.0608C34.687 65.8803 34.7525 65.7162 34.8836 65.6013C35.0147 65.4864 35.1949 65.4208 35.4243 65.4208C35.7029 65.4208 35.9323 65.5192 36.0961 65.7162C36.1944 65.8475 36.26 65.9788 36.26 66.1265C36.26 66.2085 36.2764 66.2413 36.3255 66.2413C36.3747 66.2413 36.3911 66.1757 36.3911 66.0608C36.3911 65.8639 36.3911 65.6998 36.4074 65.5357C36.4074 65.388 36.4238 65.3059 36.4238 65.3223C36.4238 65.2895 36.3911 65.2731 36.3419 65.2567C36.0633 65.191 35.7848 65.1582 35.5226 65.1582C35.0966 65.1582 34.7525 65.2731 34.5067 65.4864C34.2446 65.6998 34.1135 65.9788 34.1135 66.3234C34.1135 66.8157 34.4084 67.3081 35.0147 67.784L35.2932 67.9973C35.6865 68.3092 35.8995 68.6374 35.8995 68.982C35.8995 69.1625 35.834 69.3266 35.7029 69.4579C35.5554 69.6056 35.3424 69.6877 35.0802 69.6877C34.6214 69.6877 34.3265 69.4743 34.1954 69.0641C34.1627 68.9492 34.1463 68.8343 34.1463 68.7523C34.1463 68.6866 34.1299 68.6538 34.0807 68.6538C34.048 68.6538 34.0152 68.703 34.0152 68.8179C33.9988 69.1297 33.9824 69.4087 33.9824 69.622C33.9824 69.7205 34.0152 69.8026 34.0971 69.8354C34.3429 69.9339 34.6378 69.9995 34.9983 69.9995C35.3916 69.9995 35.7193 69.9175 35.9814 69.7533C36.3583 69.5072 36.5549 69.1461 36.5549 68.6866C36.5549 68.3912 36.473 68.1286 36.3255 67.8989C36.1125 67.6199 35.8503 67.3573 35.4899 67.0783Z" fill="black"/>
<path d="M39.865 65.4536C40.1436 65.4536 40.3893 65.4864 40.6187 65.5685C40.8317 65.6341 40.9956 65.7326 41.1103 65.8311C41.2578 65.9952 41.3397 66.1757 41.3561 66.389C41.3561 66.4711 41.3725 66.5203 41.4216 66.5203C41.4544 66.5203 41.4872 66.4711 41.4872 66.3726C41.5035 66.1101 41.5035 65.8967 41.5035 65.7162C41.5035 65.6341 41.5199 65.5521 41.5199 65.4864C41.5363 65.4372 41.5363 65.388 41.5363 65.388C41.5363 65.3387 41.5035 65.3223 41.438 65.3223C41.1758 65.2895 40.9628 65.2403 40.8154 65.2238C40.504 65.191 40.2091 65.1582 39.9306 65.1582C39.1113 65.1582 38.4559 65.3715 37.9807 65.8147C37.5055 66.2578 37.2598 66.8157 37.2598 67.4886C37.2598 68.2599 37.5219 68.8671 38.0299 69.3102C38.5378 69.7533 39.2424 69.9831 40.1272 69.9831C40.6351 69.9831 40.9956 69.9339 41.225 69.8354C41.3069 69.8026 41.3561 69.7369 41.3888 69.6549C41.4216 69.5728 41.438 69.4087 41.4708 69.1954C41.5035 68.9984 41.5199 68.8835 41.5199 68.8343C41.5199 68.7687 41.5035 68.7358 41.4708 68.7358C41.438 68.7358 41.4052 68.7687 41.3888 68.8507C41.3561 68.9984 41.2905 69.1297 41.1758 69.261C41.0448 69.4087 40.8809 69.5072 40.6679 69.5564C40.5204 69.5892 40.3238 69.6056 40.0616 69.6056C39.5865 69.6056 39.1605 69.4251 38.7836 69.0641C38.3412 68.6538 38.1282 68.0958 38.1282 67.4229C38.1282 66.7009 38.3084 66.1757 38.6853 65.8311C38.9802 65.5685 39.3735 65.4536 39.865 65.4536Z" fill="black"/>
<path d="M45.2906 68.9492C45.2578 68.9492 45.2415 68.982 45.2251 69.0477C45.1923 69.2774 45.094 69.4415 44.9465 69.5072C44.8318 69.5564 44.6516 69.5728 44.373 69.5728C44.0617 69.5728 43.8651 69.54 43.7832 69.4743C43.7012 69.4087 43.6521 69.2774 43.6357 69.0477V67.6035C43.6357 67.5542 43.6521 67.5378 43.6685 67.5378C44.1436 67.5378 44.4222 67.5378 44.5369 67.5542C44.7335 67.5707 44.8482 67.6527 44.881 67.8004C44.8974 67.8989 44.8974 67.9645 44.8974 68.0138C44.8974 68.063 44.9137 68.0794 44.9465 68.0794C44.9793 68.0794 44.9957 68.0466 44.9957 67.9645C44.9957 67.9317 45.0121 67.784 45.0284 67.5542C45.0284 67.4394 45.0448 67.3245 45.0612 67.226C45.0776 67.144 45.0776 67.1111 45.0776 67.1111C45.0776 67.0783 45.0612 67.0619 45.0284 67.0619C45.0121 67.0619 44.9793 67.0947 44.9301 67.144C44.8974 67.1768 44.8482 67.1932 44.799 67.2096C44.7663 67.226 44.7007 67.226 44.6352 67.226C44.5369 67.226 44.2092 67.2424 43.6521 67.2424C43.6193 67.2424 43.6029 67.226 43.6029 67.1768V65.6177C43.6029 65.5849 43.6193 65.5521 43.6521 65.5521C44.0945 65.5521 44.3894 65.5521 44.5205 65.5685C44.7499 65.6013 44.881 65.6669 44.9301 65.7818C44.9465 65.8146 44.9465 65.8475 44.9629 65.8967C44.9629 65.9459 44.9793 65.9788 44.9793 66.028C44.9793 66.0772 44.9957 66.0936 45.0284 66.0936C45.0612 66.0936 45.0776 66.0772 45.094 66.028C45.1104 65.8639 45.1268 65.7326 45.1268 65.6177C45.1268 65.5028 45.1431 65.4044 45.1595 65.3223C45.1759 65.2567 45.1759 65.2238 45.1759 65.2074C45.1759 65.1746 45.1595 65.1582 45.1431 65.1582C45.1431 65.1582 45.1104 65.1582 45.0448 65.1746C44.9793 65.191 44.881 65.2074 44.7827 65.2074C44.7335 65.2074 44.2256 65.2074 43.2424 65.2074C43.1933 65.2074 43.0622 65.2074 42.8656 65.191C42.6526 65.191 42.4887 65.1746 42.3576 65.1746C42.2757 65.1746 42.2266 65.191 42.2266 65.2238C42.2266 65.2567 42.2593 65.2731 42.3249 65.2731C42.4232 65.2731 42.5051 65.2731 42.5707 65.2895C42.7345 65.3223 42.8164 65.4372 42.8328 65.6341C42.8328 65.7654 42.8492 66.2085 42.8492 66.9306V68.0138C42.8492 68.7194 42.8328 69.1625 42.8164 69.3266C42.8 69.5236 42.7345 69.6385 42.6362 69.6713C42.5707 69.6713 42.5215 69.6877 42.456 69.6877C42.374 69.6877 42.3249 69.7205 42.3249 69.7369C42.3249 69.7697 42.3576 69.8026 42.4396 69.8026C42.5215 69.8026 42.669 69.8026 42.8656 69.7862C43.0622 69.7862 43.1769 69.7698 43.2097 69.7698C43.2752 69.7698 43.4882 69.7697 43.8487 69.7862C44.1928 69.8026 44.5533 69.8026 44.9137 69.8026C45.0448 69.8026 45.1267 69.7862 45.1595 69.7698C45.1923 69.7533 45.2251 69.7041 45.2414 69.6385C45.2906 69.4415 45.3234 69.2118 45.3234 68.9492C45.3398 68.982 45.3234 68.9492 45.2906 68.9492Z" fill="black"/>
<path d="M51.0412 65.2409C50.9265 65.2409 50.7954 65.2409 50.648 65.2573C50.5169 65.2573 50.435 65.2737 50.435 65.2737C50.4022 65.2737 50.3039 65.2737 50.14 65.2573C49.9762 65.2573 49.8287 65.2409 49.6976 65.2409C49.5993 65.2409 49.5338 65.2573 49.5338 65.2901C49.5338 65.3229 49.5666 65.3393 49.6321 65.3393C49.7796 65.3393 49.8943 65.3557 49.9598 65.3721C50.0417 65.405 50.1073 65.487 50.14 65.6183C50.1564 65.6675 50.1564 65.7824 50.1564 65.9301L50.222 68.6872H50.1892C49.714 68.1949 49.2552 67.7189 48.8456 67.2923C47.9116 66.3404 47.2726 65.684 46.9449 65.3229C46.8302 65.1916 46.7483 65.126 46.7155 65.126C46.6664 65.126 46.6336 65.1916 46.6336 65.3393L46.5844 68.9826C46.5844 69.2616 46.5681 69.4585 46.5517 69.5406C46.5353 69.6555 46.4697 69.7047 46.4042 69.7375C46.3387 69.7539 46.2567 69.7539 46.1912 69.7703C46.0929 69.7703 46.0273 69.8032 46.0273 69.8196C46.0273 69.8524 46.0765 69.8852 46.1584 69.8852C46.2895 69.8852 46.4206 69.8852 46.5844 69.8688C46.7483 69.8688 46.8138 69.8524 46.8138 69.8524C46.8302 69.8524 46.9285 69.8524 47.0924 69.8688C47.2562 69.8688 47.4201 69.8852 47.5839 69.8852C47.6823 69.8852 47.7314 69.8688 47.7314 69.8196C47.7314 69.8032 47.6659 69.7703 47.5512 69.7539C47.4037 69.7375 47.3218 69.7211 47.3054 69.7211C47.1743 69.6719 47.1088 69.4421 47.0924 69.0318L47.0268 66.4553H47.0432C47.2071 66.6358 47.3873 66.8327 47.5676 67.0297C47.9116 67.4071 48.223 67.7354 48.5015 68.0143C49.3208 68.8349 49.9106 69.4257 50.3039 69.8196C50.4022 69.9016 50.4677 69.9509 50.5169 69.9509C50.5661 69.9509 50.5988 69.8852 50.5988 69.7539L50.6644 65.8809C50.6644 65.7332 50.6808 65.6183 50.6971 65.5363C50.7463 65.405 50.861 65.3393 51.074 65.3393C51.1395 65.3393 51.1887 65.3229 51.1887 65.2901C51.1723 65.2573 51.1232 65.2409 51.0412 65.2409Z" fill="black"/>
<path d="M55.7264 65.191C55.6609 65.191 55.5626 65.2074 55.4315 65.2238C55.3004 65.2403 55.2021 65.2567 55.1365 65.2567H52.7115C52.5313 65.2567 52.3183 65.2403 52.1053 65.2238C52.0397 65.2238 51.9906 65.2074 51.9414 65.191C51.8923 65.1746 51.8595 65.1582 51.8431 65.1582C51.8103 65.1582 51.794 65.191 51.7776 65.2731C51.6956 65.6341 51.6465 65.8639 51.6465 65.9788C51.6465 66.0444 51.6629 66.0772 51.6956 66.0772C51.7284 66.0772 51.7448 66.0608 51.7612 66.0116C51.7776 65.9459 51.8103 65.8803 51.8595 65.7982C51.9414 65.6834 52.138 65.6341 52.4494 65.6177L53.3669 65.6013V68.1122C53.3669 68.8015 53.3506 69.2446 53.3342 69.4251C53.3178 69.622 53.2522 69.7369 53.1539 69.7698C53.0884 69.7698 53.0392 69.7862 52.9737 69.7862C52.8918 69.7862 52.8426 69.819 52.8426 69.8354C52.8426 69.8682 52.8754 69.901 52.9573 69.901C53.0392 69.901 53.1867 69.901 53.3833 69.8846C53.5799 69.8846 53.6946 69.8682 53.7274 69.8682C53.7602 69.8682 53.8913 69.8682 54.1207 69.8846C54.3501 69.8846 54.5303 69.901 54.6941 69.901C54.7761 69.901 54.8088 69.8846 54.8088 69.8354C54.8088 69.8026 54.7761 69.7862 54.7105 69.7862C54.6286 69.7862 54.5139 69.7862 54.3992 69.7698C54.2681 69.7533 54.1862 69.6385 54.1534 69.4415C54.137 69.261 54.1207 68.8179 54.1207 68.1286V65.6177L54.8908 65.6341C55.3496 65.6505 55.5953 65.7654 55.6117 65.9788V66.0444C55.6117 66.1265 55.6445 66.1593 55.6773 66.1593C55.71 66.1593 55.7264 66.1265 55.7264 66.0608C55.7264 65.9952 55.7428 65.8803 55.7428 65.6834C55.7428 65.5028 55.7592 65.388 55.7592 65.3387C55.7756 65.2403 55.7592 65.191 55.7264 65.191Z" fill="black"/>
<path d="M59.3133 68.9492C59.2805 68.9492 59.2641 68.982 59.2477 69.0477C59.215 69.2774 59.1167 69.4415 58.9692 69.5072C58.8545 69.5564 58.6743 69.5728 58.3957 69.5728C58.0844 69.5728 57.8878 69.54 57.8058 69.4743C57.7239 69.4087 57.6748 69.2774 57.6584 69.0477V67.6035C57.6584 67.5542 57.6748 67.5378 57.6911 67.5378C58.1663 67.5378 58.4449 67.5378 58.5596 67.5542C58.7562 67.5707 58.8709 67.6527 58.9037 67.8004C58.92 67.8989 58.9364 67.9645 58.9364 68.0138C58.9364 68.063 58.9528 68.0794 58.9856 68.0794C59.0183 68.0794 59.0347 68.0466 59.0347 67.9645C59.0347 67.9317 59.0347 67.784 59.0675 67.5542C59.0675 67.4394 59.0839 67.3245 59.1003 67.226C59.1167 67.144 59.1167 67.1111 59.1167 67.1111C59.1167 67.0783 59.1003 67.0619 59.0675 67.0619C59.0511 67.0619 59.0183 67.0947 58.9692 67.144C58.9364 67.1768 58.8873 67.1932 58.8381 67.2096C58.8053 67.226 58.7398 67.226 58.6743 67.226C58.5759 67.226 58.2482 67.2424 57.6911 67.2424C57.6584 67.2424 57.642 67.226 57.642 67.1768V65.6177C57.642 65.5849 57.6584 65.5521 57.6911 65.5521C58.1335 65.5521 58.4285 65.5521 58.5596 65.5685C58.789 65.6013 58.92 65.6669 58.9692 65.7818C58.9856 65.8146 58.9856 65.8475 59.002 65.8967C59.002 65.9459 59.0183 65.9788 59.0183 66.028C59.0183 66.0772 59.0347 66.0936 59.0675 66.0936C59.1003 66.0936 59.1167 66.0772 59.133 66.028C59.1494 65.8639 59.1658 65.7326 59.1658 65.6177C59.1658 65.5028 59.1822 65.4044 59.1986 65.3223C59.215 65.2567 59.215 65.2238 59.215 65.2074C59.215 65.1746 59.1986 65.1582 59.1822 65.1582C59.1822 65.1582 59.1494 65.1582 59.0839 65.1746C59.0183 65.191 58.92 65.2074 58.8217 65.2074C58.7726 65.2074 58.2646 65.2074 57.2815 65.2074C57.2324 65.2074 57.1013 65.2074 56.9046 65.191C56.6916 65.191 56.5278 65.1746 56.3967 65.1746C56.3148 65.1746 56.2656 65.191 56.2656 65.2238C56.2656 65.2567 56.2984 65.2731 56.3639 65.2731C56.4622 65.2731 56.5442 65.2731 56.6097 65.2895C56.7736 65.3223 56.8555 65.4372 56.8719 65.6341C56.8719 65.7654 56.8883 66.2085 56.8883 66.9306V68.0138C56.8883 68.7194 56.8719 69.1625 56.8555 69.3266C56.8391 69.5236 56.7736 69.6385 56.6753 69.6713C56.6097 69.6713 56.5606 69.6877 56.495 69.6877C56.4131 69.6877 56.3639 69.7205 56.3639 69.7369C56.3639 69.7697 56.3967 69.8026 56.4786 69.8026C56.5606 69.8026 56.708 69.8026 56.9046 69.7862C57.1013 69.7862 57.216 69.7698 57.2487 69.7698C57.3307 69.7698 57.5273 69.7697 57.8878 69.7862C58.2319 69.8026 58.5923 69.8026 58.9528 69.8026C59.0839 69.8026 59.1658 69.7862 59.1986 69.7698C59.2314 69.7533 59.2641 69.7041 59.2805 69.6385C59.3297 69.4415 59.3624 69.2118 59.3624 68.9492C59.3624 68.982 59.3461 68.9492 59.3133 68.9492Z" fill="black"/>
<path d="M64.8857 69.7543C64.8366 69.7543 64.7874 69.7379 64.7383 69.7379C64.5089 69.6886 64.2795 69.5574 64.0501 69.3276C63.8862 69.1635 63.6896 68.9337 63.4602 68.6383C63.4111 68.5891 63.1653 68.2773 62.7229 67.7193C63.2636 67.2762 63.5258 66.8167 63.5258 66.3408C63.5258 66.1602 63.4766 65.9797 63.3783 65.8156C63.2964 65.6843 63.2144 65.5694 63.1161 65.5038C62.854 65.3233 62.4771 65.2412 61.9855 65.2412C61.92 65.2412 61.7889 65.2412 61.5595 65.2576C61.3301 65.2576 61.1827 65.274 61.1171 65.274C61.1007 65.274 60.986 65.274 60.773 65.2576C60.5764 65.2576 60.3962 65.2412 60.2815 65.2412C60.1995 65.2412 60.1504 65.2576 60.1504 65.2904C60.1504 65.3233 60.1832 65.3397 60.2487 65.3397C60.347 65.3397 60.4289 65.3397 60.4945 65.3561C60.6583 65.3889 60.7403 65.5038 60.7566 65.7007C60.7566 65.832 60.773 66.2751 60.773 66.9972V68.0803C60.773 68.786 60.7566 69.2291 60.7403 69.3932C60.7239 69.5902 60.6583 69.7051 60.56 69.7379C60.4945 69.7379 60.4453 69.7543 60.3798 69.7543C60.2979 69.7543 60.2487 69.7871 60.2487 69.8035C60.2487 69.8363 60.2815 69.8692 60.3634 69.8692C60.4617 69.8692 60.5928 69.8692 60.7894 69.8528C60.9697 69.8528 61.0844 69.8363 61.1171 69.8363C61.1171 69.8363 61.2482 69.8363 61.4776 69.8528C61.707 69.8528 61.8872 69.8692 62.0183 69.8692C62.1002 69.8692 62.133 69.8528 62.133 69.8035C62.133 69.7707 62.1166 69.7543 62.0675 69.7543C61.9855 69.7543 61.8872 69.7543 61.7725 69.7379C61.6415 69.7215 61.5595 69.6066 61.5268 69.4097C61.5104 69.2291 61.494 68.8024 61.494 68.0968V68.0147C61.494 67.9819 61.5104 67.9655 61.5431 67.9655H62.0839C62.133 67.9655 62.1658 67.9819 62.1985 68.0147C62.4279 68.3265 62.6246 68.6055 62.8048 68.8681C63.1653 69.3604 63.4438 69.6722 63.6405 69.7707C63.7879 69.8528 64.0009 69.8856 64.2959 69.8856H64.8857C64.9677 69.8856 65.0004 69.8692 65.0004 69.8199C64.984 69.7871 64.9513 69.7707 64.8857 69.7543ZM62.4443 67.5716C62.346 67.6372 62.1985 67.6701 62.0019 67.6701C61.8053 67.6701 61.6578 67.6537 61.5431 67.6044C61.5104 67.588 61.494 67.5552 61.494 67.4895V65.6187C61.494 65.5858 61.5104 65.553 61.5268 65.553C61.5595 65.5202 61.6742 65.5202 61.8708 65.5202C62.1002 65.5202 62.2969 65.6023 62.4771 65.75C62.6901 65.9469 62.8048 66.2587 62.8048 66.6362C62.8048 67.0793 62.6901 67.3911 62.4443 67.5716Z" fill="black"/>
<path d="M0.557951 62.0579C1.08228 62.3204 1.68853 62.4025 2.29479 62.4025C2.99935 62.4025 3.68753 62.2384 4.24463 61.8609C5.14582 61.2209 5.34244 60.2362 5.34244 59.711C5.34244 58.6771 4.98197 57.873 3.45814 56.6586L3.09766 56.3796C1.85239 55.4113 1.52468 54.9354 1.52468 54.1969C1.52468 53.245 2.22925 52.6871 3.11405 52.6871C4.31017 52.6871 4.65426 53.2286 4.73619 53.3763C4.81811 53.524 4.88366 53.8687 4.90004 54.0328C4.91643 54.1312 4.93281 54.1969 4.99835 54.1969C5.06389 54.1969 5.09666 54.0984 5.09666 53.9015C5.09666 53.0153 5.14582 52.5886 5.14582 52.5229C5.14582 52.4573 5.11305 52.4245 5.01474 52.4245C4.91643 52.4245 4.80173 52.4081 4.55595 52.3588C4.22825 52.2768 3.85139 52.2275 3.34344 52.2275C1.70492 52.2275 0.656262 53.1794 0.656262 54.5579C0.656262 55.4441 0.967582 56.2483 2.34394 57.3807L2.93381 57.8566C4.04801 58.7756 4.42487 59.3008 4.42487 60.187C4.42487 61.0239 3.81861 61.9101 2.57334 61.9101C1.70492 61.9101 0.852885 61.5491 0.656262 60.5808C0.623492 60.4003 0.623492 60.2198 0.623492 60.1049C0.623492 60.0064 0.607107 59.9572 0.525181 59.9572C0.45964 59.9572 0.426869 60.0229 0.426869 60.1706C0.410484 60.3839 0.361328 60.8927 0.361328 61.5491C0.361328 61.9102 0.361328 61.9594 0.557951 62.0579Z" fill="black"/>
<path d="M15.6315 52.7523C15.8773 52.5882 16.1558 52.5882 16.2541 52.5882C16.3524 52.5882 16.4016 52.5553 16.4016 52.4897C16.4016 52.424 16.3197 52.3912 16.1886 52.3912C15.8117 52.3912 15.2546 52.424 15.1727 52.424C15.0088 52.424 14.419 52.3912 13.8946 52.3912C13.6816 52.3912 13.6161 52.424 13.6161 52.4897C13.6161 52.5553 13.6816 52.5717 13.7636 52.5717C13.911 52.5717 14.1077 52.5717 14.2551 52.621C14.3862 52.6866 14.419 52.8179 14.419 52.9164C14.419 53.0313 14.3698 53.2118 14.3043 53.4087C14.0257 54.3442 12.2889 58.8736 11.5352 60.6132L9.04461 53.9667C8.84799 53.4579 8.70052 53.0641 8.70052 52.8836C8.70052 52.7851 8.73329 52.6866 8.86438 52.621C8.97907 52.5717 9.20847 52.5553 9.35593 52.5553C9.45425 52.5553 9.48702 52.5225 9.48702 52.4569C9.48702 52.3912 9.37232 52.3584 9.14293 52.3584C8.65137 52.3584 8.0615 52.3912 7.93042 52.3912C7.76657 52.3912 7.02923 52.3584 6.40659 52.3584C6.19358 52.3584 6.0625 52.3748 6.0625 52.4569C6.0625 52.5061 6.09527 52.5553 6.16081 52.5553C6.24274 52.5553 6.45575 52.5553 6.65237 52.6046C7.11116 52.7359 7.30778 52.8836 7.58633 53.6057L10.7651 61.5651C11.0108 62.1887 11.0764 62.3692 11.2239 62.3692C11.3549 62.3692 11.4041 62.1559 11.7646 61.3846C12.0595 60.7445 12.6494 59.3496 13.4359 57.4459C14.0913 55.854 14.7467 54.2949 14.8941 53.9339C15.271 53.0805 15.4676 52.8671 15.6315 52.7523Z" fill="black"/>
<path d="M22.1035 62.2544C22.6114 62.2544 22.7098 62.2544 22.8081 61.9097C22.8736 61.6307 22.9719 60.761 22.9719 60.6461C22.9719 60.5476 22.9719 60.4491 22.89 60.4491C22.8245 60.4491 22.7917 60.4984 22.7753 60.6461C22.677 61.1712 22.5295 61.4338 22.1854 61.5815C21.8413 61.7292 21.2842 61.7292 20.9402 61.7292C19.6621 61.7292 19.4819 61.5651 19.4327 60.6625C19.4163 60.3835 19.4327 58.8901 19.4327 58.447V57.2982C19.4327 57.249 19.4655 57.1997 19.531 57.1997C19.744 57.1997 21.0385 57.2325 21.3826 57.2654C21.8905 57.3146 22.0052 57.5444 22.0543 57.7249C22.1035 57.889 22.1035 58.0203 22.1035 58.1516C22.1035 58.2172 22.1363 58.2665 22.2018 58.2665C22.3001 58.2665 22.3001 58.1188 22.3001 58.0203C22.3001 57.9218 22.3329 57.4459 22.3493 57.1833C22.3821 56.7566 22.4476 56.5269 22.4476 56.4612C22.4476 56.3792 22.4148 56.3628 22.3821 56.3628C22.3329 56.3628 22.2837 56.4284 22.1854 56.5269C22.0707 56.6582 21.8905 56.6746 21.5792 56.7074C21.2842 56.7402 19.6949 56.7402 19.5146 56.7402C19.4491 56.7402 19.4327 56.7074 19.4327 56.6089V53.0313C19.4327 52.9492 19.4655 52.9 19.5146 52.9C19.6621 52.9 21.0712 52.9164 21.2842 52.9328C21.9888 53.0149 22.1199 53.1626 22.2018 53.3759C22.2674 53.5236 22.2837 53.7534 22.2837 53.8354C22.2837 53.9339 22.3165 53.9995 22.3821 53.9995C22.4312 53.9995 22.464 53.9175 22.4804 53.8518C22.5131 53.7041 22.5295 53.1297 22.5459 52.9985C22.5787 52.6374 22.6442 52.4733 22.6442 52.3912C22.6442 52.3256 22.6278 52.2764 22.5951 52.2764C22.5295 52.2764 22.4804 52.3256 22.4148 52.342C22.3165 52.3748 22.1035 52.3912 21.8577 52.4077C21.5628 52.4241 18.9739 52.4241 18.892 52.4241L18.3677 52.3912C18.0891 52.3748 17.7286 52.3748 17.4337 52.3748C17.2862 52.3748 17.2207 52.4077 17.2207 52.4733C17.2207 52.5225 17.2699 52.5554 17.319 52.5554C17.4337 52.5554 17.6631 52.5718 17.7614 52.5882C18.1874 52.6866 18.2857 52.8836 18.3185 53.3267C18.3513 53.737 18.3513 54.098 18.3513 56.133V58.4142C18.3513 59.6614 18.3513 60.6789 18.2857 61.2369C18.2366 61.6143 18.171 61.8933 17.9089 61.959C17.7942 61.9918 17.6303 62.0082 17.5156 62.0082C17.4337 62.0082 17.4173 62.041 17.4173 62.0903C17.4173 62.1723 17.4829 62.1887 17.6303 62.1887C17.827 62.1887 18.1219 62.1559 18.3841 62.1559C18.6626 62.1395 18.8756 62.1395 18.9084 62.1395C19.105 62.1395 19.4163 62.1559 19.9243 62.1723C20.4158 62.238 21.1204 62.2544 22.1035 62.2544Z" fill="black"/>
<path d="M34.9324 62.1227C34.9324 62.0898 34.8832 62.0406 34.8177 62.0406C34.7358 62.0406 34.5555 62.0406 34.3097 62.0078C33.982 61.9585 33.4249 61.8108 32.7368 61.0723C31.983 60.2682 31.0982 59.1194 30.0496 57.7573C31.2129 56.6741 31.6226 55.7223 31.6226 54.754C31.6226 53.8514 31.0491 53.2278 30.7214 52.9816C30.0332 52.4893 29.1648 52.4072 28.3455 52.4072C27.9523 52.4072 26.9528 52.4401 26.8217 52.4401C26.7561 52.4401 25.9369 52.4072 25.3634 52.4072C25.2159 52.4072 25.1504 52.44 25.1504 52.5057C25.1504 52.5549 25.1995 52.5878 25.2487 52.5878C25.3634 52.5878 25.5928 52.6042 25.6911 52.6206C26.1171 52.719 26.2154 52.916 26.2482 53.3591C26.281 53.7694 26.281 54.1304 26.281 56.1654V58.4466C26.281 59.6938 26.281 60.7113 26.2154 61.2693C26.1663 61.6467 26.1007 61.9257 25.8386 61.9914C25.7239 62.0242 25.56 62.0406 25.4453 62.0406C25.3634 62.0406 25.347 62.0734 25.347 62.1227C25.347 62.2047 25.4126 62.2211 25.56 62.2211C25.9533 62.2211 26.7725 62.1883 26.7725 62.1883C26.8381 62.1883 27.6573 62.2211 28.3619 62.2211C28.5094 62.2211 28.5749 62.1883 28.5749 62.1227C28.5749 62.0898 28.5421 62.0406 28.4766 62.0406C28.3619 62.0406 28.067 62.0078 27.8867 61.9914C27.4935 61.9421 27.4279 61.6467 27.3788 61.2693C27.3132 60.7277 27.3132 59.6938 27.3132 58.4466V58.1347C27.3132 58.0691 27.346 58.0363 27.4116 58.0363L29.0009 58.0691C29.0828 58.0691 29.1156 58.1019 29.1648 58.1511C29.4269 58.4958 30.0332 59.3656 30.5739 60.0713C31.3112 61.0395 31.77 61.6796 32.3271 61.975C32.6712 62.1555 32.9825 62.2211 33.7199 62.2211H34.6374C34.8505 62.2211 34.9324 62.1883 34.9324 62.1227ZM29.7219 57.4126C29.4269 57.626 29.0665 57.6588 28.7551 57.6588C28.1817 57.6588 27.5918 57.5603 27.3952 57.4455C27.3296 57.4126 27.2969 57.347 27.2969 57.2814V53.0309C27.2969 52.9488 27.3296 52.8996 27.3952 52.8832C27.5263 52.8503 27.8703 52.8011 28.2636 52.8011C29.6563 52.8011 30.5084 53.7694 30.5084 55.3941C30.5084 56.4116 30.1807 57.1008 29.7219 57.4126Z" fill="black"/>
<path d="M38.3738 62.1227C38.3738 62.0898 38.3411 62.0406 38.2755 62.0406C38.1608 62.0406 37.8659 62.0078 37.6857 61.9914C37.2924 61.9421 37.2269 61.6467 37.1777 61.2693C37.1122 60.7277 37.1122 59.6938 37.1122 58.4466V56.1654C37.1122 54.1468 37.1122 53.7694 37.1449 53.3591C37.1777 52.8996 37.276 52.6862 37.6201 52.6206C37.7676 52.5878 37.8495 52.5878 37.9478 52.5878C37.997 52.5878 38.0461 52.5549 38.0461 52.5057C38.0461 52.4236 37.9806 52.4072 37.8331 52.4072C37.4399 52.4072 36.6206 52.4401 36.5551 52.4401C36.4895 52.4401 35.6703 52.4072 35.2443 52.4072C35.0968 52.4072 35.0312 52.44 35.0312 52.5057C35.0312 52.5549 35.0804 52.5878 35.1296 52.5878C35.2279 52.5878 35.3917 52.6042 35.5392 52.637C35.8177 52.7026 35.9488 52.916 35.9816 53.3591C36.0144 53.7694 36.0144 54.1304 36.0144 56.1654V58.4466C36.0144 59.6938 36.0144 60.7113 35.9488 61.2693C35.8997 61.6467 35.8341 61.9257 35.572 61.9914C35.4573 62.0242 35.2934 62.0406 35.1787 62.0406C35.0968 62.0406 35.0804 62.0734 35.0804 62.1227C35.0804 62.2047 35.1459 62.2211 35.2934 62.2211C35.6867 62.2211 36.5059 62.1883 36.5715 62.1883C36.637 62.1883 37.4563 62.2211 38.1608 62.2211C38.3247 62.2211 38.3738 62.1883 38.3738 62.1227Z" fill="black"/>
<path d="M48.7943 61.1226V59.662C48.7943 59.1204 48.7943 58.7266 48.8271 58.3163C48.8599 57.8568 48.9582 57.6434 49.3023 57.5778C49.4661 57.545 49.5317 57.545 49.63 57.545C49.6791 57.545 49.7283 57.5121 49.7283 57.4629C49.7283 57.3808 49.6627 57.3644 49.5153 57.3644C49.122 57.3644 48.3028 57.3973 48.2372 57.3973C48.1717 57.3973 47.3524 57.3644 46.7789 57.3644C46.6315 57.3644 46.5659 57.3973 46.5659 57.4629C46.5659 57.5121 46.6151 57.545 46.6642 57.545C46.7789 57.545 47.0083 57.5614 47.1066 57.5778C47.631 57.7255 47.6965 57.8568 47.6965 58.9071V61.1226C47.6965 61.3359 47.5982 61.4836 47.4343 61.5821C47.0903 61.779 46.4185 61.8611 45.9597 61.8611C44.7635 61.8611 43.5838 61.4672 42.5679 60.4662C42.1091 60.0231 41.1916 58.6937 41.1916 56.8721C41.1916 55.3459 41.7159 54.1643 42.4696 53.5734C43.4527 52.7857 44.4195 52.7201 45.2387 52.7201C46.91 52.7201 47.9587 53.278 48.2864 53.7704C48.483 54.0822 48.5485 54.4432 48.5649 54.6238C48.5813 54.7386 48.5977 54.8207 48.6632 54.8207C48.7615 54.8207 48.7779 54.7551 48.7779 54.5417C48.7779 53.2452 48.8762 52.8842 48.8762 52.7037C48.8762 52.6544 48.8435 52.6052 48.7288 52.5888C48.4011 52.5724 47.9587 52.5231 47.6801 52.4575C47.4343 52.4083 46.5168 52.2441 45.6975 52.2441C44.698 52.2441 43.42 52.3426 42.2566 53.0647C41.1096 53.7868 40.0938 55.2638 40.0938 57.3316C40.0938 58.9563 40.8475 60.3349 41.634 61.0241C43.0759 62.2878 44.911 62.4191 45.8941 62.4191C46.6478 62.4191 47.8112 62.2714 48.6468 61.8283C48.7779 61.7298 48.7943 61.697 48.7943 61.1226Z" fill="black"/>
<path d="M51.6945 52.588C51.8092 52.588 52.0386 52.6044 52.1369 52.6208C52.5629 52.7193 52.6612 52.9162 52.694 53.3593C52.7268 53.7696 52.7268 54.1306 52.7268 56.1656V58.4468C52.7268 59.694 52.7268 60.7115 52.6612 61.2695C52.6121 61.647 52.5465 61.926 52.2844 61.9916C52.1697 62.0244 52.0058 62.0408 51.8911 62.0408C51.8092 62.0408 51.7928 62.0737 51.7928 62.1229C51.7928 62.205 51.8584 62.2214 52.0058 62.2214C52.2025 62.2214 52.4974 62.1885 52.7596 62.1885C53.0381 62.1721 53.2511 62.1721 53.2839 62.1721C53.4805 62.1721 53.7918 62.1885 54.2998 62.205C54.8077 62.2214 55.5123 62.2378 56.4954 62.2378C57.0033 62.2378 57.1016 62.2378 57.2 61.8931C57.2655 61.6142 57.3638 60.7444 57.3638 60.6295C57.3638 60.531 57.3638 60.4325 57.2819 60.4325C57.2163 60.4325 57.1836 60.4818 57.1672 60.6295C57.0689 61.1546 56.9214 61.4172 56.5773 61.5649C56.2332 61.7126 55.6761 61.7126 55.332 61.7126C54.054 61.7126 53.8738 61.5485 53.8246 60.6459C53.8082 60.3669 53.8246 58.8735 53.8246 58.4304V57.2816C53.8246 57.2324 53.8574 57.1831 53.9229 57.1831C54.1359 57.1831 55.4303 57.2159 55.7744 57.2488C56.2824 57.298 56.3971 57.5278 56.4462 57.7083C56.4954 57.8724 56.4954 58.0037 56.4954 58.135C56.4954 58.2006 56.5282 58.2499 56.5937 58.2499C56.692 58.2499 56.692 58.1022 56.692 58.0037C56.692 57.9052 56.7248 57.4293 56.7412 57.1667C56.7739 56.74 56.8395 56.5103 56.8395 56.4446C56.8395 56.3626 56.8067 56.3462 56.7739 56.3462C56.7248 56.3462 56.6756 56.4118 56.5773 56.5103C56.4626 56.6416 56.2824 56.658 55.9711 56.6908C55.6761 56.7236 54.0868 56.7236 53.9065 56.7236C53.841 56.7236 53.8246 56.6908 53.8246 56.5923V53.0147C53.8246 52.9326 53.8574 52.8834 53.9065 52.8834C54.054 52.8834 55.4631 52.8998 55.6761 52.9162C56.3807 52.9983 56.5118 53.146 56.5937 53.3593C56.6592 53.507 56.6756 53.7368 56.6756 53.8188C56.6756 53.9173 56.7084 53.9829 56.7739 53.9829C56.8231 53.9829 56.8559 53.9009 56.8722 53.8352C56.905 53.6875 56.9214 53.1131 56.9378 52.9819C56.9706 52.6208 57.0361 52.4567 57.0361 52.3746C57.0361 52.309 57.0197 52.2598 56.9869 52.2598C56.9214 52.2598 56.8722 52.309 56.8067 52.3254C56.7084 52.3582 56.4954 52.3746 56.2496 52.3911C55.9547 52.4075 53.3658 52.4075 53.2839 52.4075L52.7596 52.3746C52.481 52.3582 52.1205 52.3582 51.8256 52.3582C51.6781 52.3582 51.6126 52.3911 51.6126 52.4567C51.5962 52.5552 51.6454 52.588 51.6945 52.588Z" fill="black"/>
<path d="M63.4927 61.8609C64.3939 61.2209 64.5905 60.2362 64.5905 59.711C64.5905 58.6771 64.23 57.873 62.7062 56.6586L62.3457 56.3796C61.1004 55.4113 60.7727 54.9354 60.7727 54.1969C60.7727 53.245 61.4773 52.6871 62.3621 52.6871C63.5582 52.6871 63.9023 53.2286 63.9842 53.3763C64.0662 53.524 64.1481 53.8687 64.1481 54.0328C64.1645 54.1312 64.1809 54.1969 64.2464 54.1969C64.3119 54.1969 64.3447 54.0984 64.3447 53.9015C64.3447 53.0153 64.3939 52.5886 64.3939 52.5229C64.3939 52.4573 64.3611 52.4245 64.2628 52.4245C64.1645 52.4245 64.0498 52.4081 63.804 52.3588C63.4763 52.2768 63.0994 52.2275 62.5915 52.2275C60.953 52.2275 59.9043 53.1794 59.9043 54.5579C59.9043 55.4441 60.2156 56.2483 61.592 57.3807L62.1819 57.8566C63.2961 58.7756 63.6729 59.3008 63.6729 60.187C63.6729 61.0239 63.0667 61.9101 61.8214 61.9101C60.953 61.9101 60.1009 61.5491 59.9043 60.5808C59.8715 60.4003 59.8715 60.2198 59.8715 60.1049C59.8715 60.0064 59.8552 59.9572 59.7732 59.9572C59.7077 59.9572 59.6749 60.0229 59.6749 60.1706C59.6585 60.3839 59.6094 60.8927 59.6094 61.5491C59.6094 61.8937 59.6258 61.9594 59.806 62.0414C60.3303 62.304 60.9366 62.3861 61.5428 62.3861C62.2474 62.4025 62.9356 62.2384 63.4927 61.8609Z" fill="black"/>
<path d="M53.1371 34.1747C53.2354 34.0763 53.9236 33.5675 53.8417 33.4526C53.7598 33.3377 53.0552 33.3706 52.9077 33.3706C51.8918 33.3377 50.7612 33.5511 49.8437 33.9778C50.3352 33.4526 50.8104 32.9111 51.2528 32.3531C51.8427 34.027 55.0214 30.6135 55.3983 30.0883C55.6113 29.7929 55.8571 29.4647 56.0209 29.1365C56.2503 28.7098 55.9881 28.8575 55.6277 28.9231C54.6446 29.1201 53.7434 29.4811 52.9077 30.0227C53.2027 29.5468 53.4648 29.0708 53.727 28.5785C54.6118 29.9899 56.9713 26.2481 57.217 25.6737C57.3153 25.4276 57.5939 24.9845 57.6267 24.7219C57.6594 24.3444 57.4464 24.5578 57.1187 24.6726C56.2503 25.0173 55.4638 25.526 54.792 26.1661C54.9886 25.6409 55.1689 25.0993 55.3163 24.5578C55.939 25.0009 56.7255 23.9177 57.004 23.491C57.4956 22.7361 57.8888 21.8171 58.0855 20.9309C58.1346 20.6847 58.3148 20.176 58.2985 19.9298C58.2657 19.5523 58.1346 19.7657 57.8233 19.9626C57.0532 20.455 56.4142 21.0786 55.8734 21.8171C55.939 21.3083 55.9881 20.7832 56.0045 20.2744C57.3317 21.0622 57.8724 16.9758 57.8724 16.4014C57.8724 16.2537 57.9216 15.4495 57.8561 15.3675C57.7086 15.1706 57.5611 15.466 57.3973 15.6137C56.7746 16.2701 56.2667 17.025 55.939 17.8784C55.8898 17.3861 55.8407 16.8937 55.7588 16.4014C56.4797 16.4342 56.791 15.2198 56.9057 14.6946C57.1023 13.8248 57.1515 12.9222 57.0532 12.036C57.0368 11.8883 57.0532 11.2483 56.9221 11.2155C56.8566 11.199 56.4469 11.757 56.3814 11.8391C55.8571 12.4955 55.4474 13.3489 55.2672 14.1695C55.0706 13.4966 54.8412 12.8238 54.579 12.1837C55.2344 12.1673 55.2508 10.9857 55.2344 10.559C55.2016 9.73845 55.0214 8.91789 54.7101 8.16297C54.6773 8.09733 54.4807 7.45729 54.3824 7.45729C54.3005 7.45729 54.153 7.91681 54.1038 7.99886C53.8089 8.68813 53.6778 9.49228 53.6778 10.2472C53.4484 9.80409 53.2027 9.3774 52.9241 8.95071C54.3005 8.88507 52.7439 5.53718 52.4325 5.06126C52.367 4.96279 52.0065 4.28993 51.9246 4.32275C51.8427 4.35558 51.7935 4.73303 51.7771 4.84791C51.6133 5.63565 51.5969 6.47262 51.7771 7.27677C51.515 6.91572 51.22 6.57109 50.9415 6.24286C52.0885 5.81617 50.2533 3.14115 49.8601 2.66522C49.5324 2.28776 49.3685 1.87748 49.303 2.55034C49.2374 3.30526 49.3194 4.07659 49.5651 4.78227C49.303 4.5361 49.0408 4.28993 48.7786 4.06017C49.2866 3.71554 48.8769 2.68163 48.6967 2.27135C48.4018 1.59849 48.0249 1.0241 47.5661 0.466122C47.5006 0.384066 47.222 -0.0590367 47.1073 0.00660807C47.0582 0.0394305 47.0418 0.613822 47.0418 0.679467C47.009 1.45079 47.1565 2.30418 47.4842 3.00986C47.091 2.71446 46.9435 2.32059 46.5502 1.99236C46.157 1.66414 45.6654 1.43438 45.1903 1.25386C44.7479 1.07334 44.3218 0.974869 43.8631 0.892813C43.7811 0.876402 43.3551 0.728701 43.2732 0.794346C43.1585 0.876402 43.306 0.909224 43.3551 1.0241C43.6337 1.76261 44.6004 2.4847 45.2558 2.84575C45.7146 3.09191 46.1242 3.17397 46.6322 3.2232C46.9107 3.25603 46.6813 3.12474 47.009 3.28885C47.2548 3.40373 47.4842 3.66631 47.6808 3.83042C46.9599 3.45296 46.0259 3.32167 45.223 3.32167C45.1083 3.32167 44.1908 3.32167 44.158 3.3709C44.0433 3.55143 44.2891 3.66631 44.4693 3.81401C45.0756 4.33916 45.8457 4.74944 46.6322 4.92997C46.9926 5.01202 48.6639 5.19255 48.2707 4.32275C48.8114 4.81509 49.3357 5.34025 49.8109 5.88182C49.0408 5.52077 48.0741 5.38948 47.2384 5.4223C47.0746 5.4223 46.4355 5.38948 46.3536 5.48795C46.2717 5.58642 46.6158 5.83258 46.7141 5.91464C47.2876 6.40698 48.0249 6.81726 48.7622 7.01419C49.221 7.12907 50.3352 7.35883 50.5319 6.71879C50.9251 7.21112 51.2856 7.71987 51.6297 8.24503C50.9579 7.88398 50.1714 7.65423 49.4177 7.55576C49.2374 7.53935 48.4182 7.37524 48.2707 7.45729C48.0741 7.57217 48.3198 7.70346 48.4345 7.85116C48.9261 8.40914 49.4832 8.88507 50.155 9.24611C50.6793 9.54151 51.8918 10.0831 52.3998 9.5251C52.6947 10.0503 52.9733 10.6082 53.219 11.1662C52.5964 10.6903 51.8099 10.2964 51.0562 10.0831C50.8596 10.0339 50.4335 9.85333 50.2369 9.86974C49.942 9.88615 50.1222 10.0339 50.2697 10.2636C50.6629 10.9201 51.1381 11.5109 51.728 11.9868C52.2032 12.3642 53.2027 13.0535 53.8253 12.6761C54.0711 13.3653 54.2841 14.0874 54.4479 14.8095C53.94 14.1531 53.301 13.5458 52.6128 13.0863C52.367 12.9222 52.0393 12.6761 51.7608 12.5612C51.3511 12.4135 51.515 12.6268 51.5969 12.9879C51.8263 13.9233 52.2359 14.8259 52.8422 15.5808C53.219 16.0403 54.1038 17.025 54.792 16.6476C54.8739 17.2712 54.9395 17.9112 54.9559 18.5513C54.3988 17.7307 53.7106 17.0578 52.9241 16.4835C52.7275 16.3358 52.367 15.8762 52.2523 16.1716C52.154 16.4506 52.4489 17.2548 52.5145 17.5009C52.8258 18.4692 53.3173 19.4539 54.1038 20.1267C54.2841 20.2744 54.5299 20.3565 54.7101 20.5042C54.9886 20.734 54.8248 20.2744 54.9231 20.7996C55.0214 21.3576 54.7756 22.1781 54.6609 22.7525C54.3824 21.8499 53.8744 20.9637 53.2682 20.2416C53.1043 20.0283 52.7439 19.5195 52.5145 19.3882C52.1868 19.2077 52.2851 19.4211 52.2687 19.7821C52.2032 20.7011 52.3179 21.6037 52.58 22.4735C52.793 23.1628 53.3501 24.5413 54.2185 24.5578C54.0055 25.2799 53.7598 26.0019 53.4648 26.6912C53.3501 25.7722 53.0388 24.8203 52.6128 24.0162C52.4817 23.7864 52.2359 23.1956 52.0557 23.0315C51.7771 22.7854 51.8263 23.0151 51.728 23.3762C51.4822 24.2624 51.4167 25.165 51.4986 26.084C51.5805 26.8061 51.8263 28.1846 52.6456 28.4472C52.2523 29.1857 51.8099 29.9078 51.3347 30.6135C51.4494 29.5632 51.2856 28.398 50.9579 27.3969C50.8432 27.0687 50.7285 26.5435 50.5482 26.2645C50.3189 25.8871 50.2861 26.2809 50.1222 26.5928C49.6798 27.5118 49.4177 28.5457 49.3849 29.5632C49.3685 30.2524 49.4177 31.7787 50.2369 32.0741C49.7781 32.6321 49.303 33.1736 48.795 33.6988C49.1063 32.7634 49.2374 31.6966 49.1883 30.7284C49.1719 30.3837 49.1883 29.8422 49.09 29.5304C48.9589 29.0873 48.7622 29.5468 48.5329 29.7929C47.8611 30.5478 47.3531 31.5325 47.0746 32.5008C46.8943 33.1408 46.5666 34.6342 47.3203 35.0773C46.6486 35.6517 45.9604 36.1933 45.2394 36.702C45.7637 35.7174 46.0915 34.5358 46.1898 33.4198C46.2225 33.1572 46.2062 32.8946 46.2225 32.6321C46.2225 32.5172 46.3536 32.0741 46.2881 31.992C46.1242 31.7295 45.9276 32.0741 45.7146 32.2546C44.8789 32.9767 44.1908 33.8957 43.7156 34.8968C43.3879 35.6025 42.7816 37.1287 43.519 37.7688C42.4212 38.3924 41.2742 38.9176 40.0781 39.3278C40.9629 38.5565 41.52 37.3257 41.8968 36.2425C42.0771 35.7174 42.1426 35.1758 42.2901 34.6342C42.4539 34.027 42.3392 34.0927 41.8641 34.4045C40.8973 34.9953 40.0617 35.783 39.4063 36.7349C39.013 37.3257 37.9644 39.1637 38.9475 39.6889C37.7841 40.0171 36.6044 40.2305 35.4083 40.2961C36.3914 39.7545 37.1615 38.7534 37.7677 37.8344C38.0791 37.3585 38.2757 36.8498 38.5379 36.3574C38.7836 35.8815 38.9475 35.701 38.3085 35.9143C37.1615 36.2918 36.0965 36.8826 35.2117 37.7195C34.7037 38.2119 33.3601 39.6725 34.1466 40.411C33.3601 40.7228 32.803 41.5762 32.3442 42.249C31.8854 41.5762 31.3284 40.7228 30.5419 40.411C31.312 39.6889 30.0503 38.2775 29.5587 37.7852C28.6739 36.899 27.5597 36.3082 26.38 35.9143C25.8557 35.7338 25.8557 35.783 26.1015 36.2754C26.3636 36.7677 26.5439 37.2764 26.8552 37.7524C27.4614 38.7206 28.2643 39.7381 29.2802 40.3125C28.0841 40.2469 26.888 40.0335 25.741 39.7053C26.6913 39.1801 25.7246 37.4241 25.3314 36.8333C24.6923 35.8487 23.8075 35.0281 22.8244 34.4209C22.4312 34.1747 22.2345 33.9778 22.3656 34.5522C22.4803 35.0938 22.5786 35.6189 22.7425 36.1441C23.1193 37.2764 23.6928 38.5401 24.594 39.3442C23.3979 38.934 22.2509 38.4088 21.1531 37.7852C21.8741 37.1451 21.2842 35.6189 20.9565 34.9132C20.4813 33.9121 19.7931 32.9931 18.9575 32.271C18.7281 32.0741 18.5642 31.7459 18.384 32.0084C18.3185 32.0905 18.4495 32.5336 18.4495 32.6485C18.4659 32.9111 18.4495 33.1736 18.4823 33.4362C18.5806 34.5358 18.9083 35.7338 19.4327 36.7185C18.7117 36.2261 18.0071 35.6846 17.3517 35.0938C18.0727 34.6671 17.7941 33.2393 17.6303 32.6157C17.3681 31.6146 16.8274 30.5971 16.1556 29.8093C15.959 29.5796 15.7788 29.1365 15.5985 29.4811C15.4838 29.7109 15.533 30.3673 15.5166 30.6299C15.451 31.6474 15.5821 32.7469 15.9098 33.7152C15.4019 33.1901 14.9267 32.6649 14.4679 32.0905C15.2872 31.7951 15.3364 30.2689 15.32 29.5796C15.2872 28.5621 15.025 27.5282 14.5826 26.6092C14.4352 26.3138 14.386 25.9035 14.1566 26.2809C13.9928 26.5763 13.8617 27.0851 13.747 27.4133C13.4357 28.4144 13.2718 29.5796 13.3701 30.6299C12.895 29.9406 12.4525 29.2185 12.0593 28.4636C12.8622 28.201 13.1243 26.8389 13.2063 26.1004C13.3046 25.1814 13.2227 24.2788 12.9769 23.3926C12.8786 23.0151 12.9277 22.8018 12.6492 23.0479C12.4525 23.212 12.2068 23.8028 12.0921 24.0326C11.6661 24.8532 11.3547 25.7886 11.24 26.7076C10.9451 26.0184 10.6993 25.2963 10.4863 24.5742C11.3547 24.5578 11.9118 23.1792 12.1248 22.49C12.4034 21.6202 12.5017 20.7011 12.4362 19.7985C12.4034 19.4046 12.5017 19.2077 12.1904 19.4046C11.9774 19.5359 11.6169 20.0611 11.4367 20.258C10.8468 20.9801 10.3389 21.8827 10.0439 22.7689C9.94561 22.2274 9.66706 21.3576 9.78175 20.816C9.92922 20.176 9.60152 20.8488 9.99476 20.5206C10.175 20.3729 10.4044 20.3073 10.601 20.1431C11.3875 19.4703 11.8791 18.4856 12.1904 17.5174C12.2723 17.2712 12.5672 16.467 12.4525 16.188C12.3379 15.8926 11.9938 16.3522 11.7808 16.4999C10.9943 17.0743 10.2897 17.7471 9.74898 18.5677C9.78175 17.9276 9.83091 17.304 9.91284 16.664C10.601 17.025 11.4858 16.0568 11.8627 15.5972C12.4689 14.8423 12.8786 13.9397 13.108 13.0043C13.1899 12.7089 13.3537 12.4791 13.0096 12.5284C12.7803 12.5612 12.3051 12.955 12.0921 13.1027C11.4039 13.5623 10.7649 14.1695 10.2569 14.8259C10.4208 14.1038 10.6338 13.3981 10.8796 12.6925C11.5022 13.0863 12.5345 12.3642 13.0096 11.9704C13.5995 11.4944 14.0911 10.9201 14.4515 10.2636C14.599 10.001 14.7629 9.93538 14.4679 9.88615C14.2385 9.85333 13.6487 10.0995 13.4357 10.1651C12.7475 10.3949 12.0757 10.7395 11.5022 11.1826C11.748 10.6247 12.0265 10.0831 12.3215 9.54151C12.8294 10.0995 14.0419 9.54151 14.5662 9.26252C15.238 8.90148 15.8115 8.42555 16.3031 7.85116C16.4997 7.6214 16.6636 7.58858 16.385 7.49011C16.172 7.40806 15.5494 7.55576 15.3036 7.57217C14.5499 7.67064 13.7634 7.90039 13.0916 8.26144C13.4357 7.73628 13.8125 7.22754 14.2058 6.7352C14.4024 7.37524 15.5166 7.14548 15.9754 7.0306C16.7127 6.83367 17.45 6.42339 18.0235 5.93105C18.1055 5.86541 18.4495 5.60283 18.4332 5.52077C18.4168 5.43871 17.6303 5.43871 17.4992 5.43871C16.6636 5.40589 15.6968 5.53718 14.9267 5.89823C15.4183 5.35666 15.9262 4.8315 16.4669 4.33916C16.0901 5.15972 17.6303 5.02843 17.9908 4.96279C18.8264 4.79868 19.6293 4.35558 20.2519 3.81401C20.3339 3.74836 20.6779 3.48578 20.6616 3.40373C20.6452 3.32167 19.8423 3.32167 19.7112 3.30526C18.8428 3.27244 17.8269 3.40373 17.0568 3.81401C17.2534 3.64989 17.4992 3.38732 17.7286 3.27244C18.2365 3.02627 17.6467 3.25603 18.1055 3.20679C18.6134 3.15756 19.023 3.0755 19.4818 2.82933C20.1536 2.46829 21.104 1.7462 21.3825 1.00769C21.3989 0.974869 21.5464 0.843579 21.5136 0.777934C21.4644 0.695878 20.9401 0.85999 20.8746 0.876402C20.4158 0.958458 19.9734 1.05692 19.5474 1.23745C19.0722 1.43438 18.5806 1.64773 18.1874 1.97595C17.8105 2.28776 17.6631 2.69804 17.2534 2.99345C17.5647 2.32059 17.7122 1.51644 17.6958 0.777934C17.6958 0.71229 17.6958 0.105075 17.6303 0.0394305C17.4992 -0.0754479 17.2698 0.351243 17.1715 0.466122C16.7291 0.99128 16.3686 1.53285 16.0737 2.17289C15.8771 2.59958 15.4183 3.69913 15.959 4.06017C15.6968 4.28993 15.4347 4.5361 15.1725 4.78227C15.4183 4.06017 15.4838 3.32167 15.4347 2.56676C15.3855 1.87748 15.2053 2.28776 14.8776 2.66522C14.4679 3.14115 12.6492 5.79976 13.7961 6.24286C13.5012 6.5875 13.2227 6.93213 12.9605 7.27677C13.1243 6.52185 13.1407 5.66847 12.9769 4.91356C12.9605 4.81509 12.895 4.33916 12.813 4.32275C12.6983 4.30634 12.3542 4.96279 12.3051 5.06126C11.9938 5.53718 10.4372 8.88507 11.8135 8.95071C11.6005 9.42664 11.3547 9.85333 11.109 10.2964C11.109 9.54151 10.9779 8.75378 10.6829 8.04809C10.6502 7.94963 10.5027 7.50653 10.4208 7.50653C10.3061 7.49011 10.1422 8.11374 10.0931 8.21221C9.8473 8.7866 8.88057 12.2001 10.2078 12.233C9.94561 12.8894 9.71621 13.5458 9.51959 14.2187C9.32297 13.3981 8.91334 12.5612 8.40539 11.8883C8.32347 11.7898 7.96299 11.2483 7.86468 11.2647C7.71721 11.2811 7.7336 11.954 7.7336 12.0852C7.63529 12.9715 7.68444 13.8741 7.88107 14.7439C7.99576 15.269 8.32347 16.4835 9.02803 16.4506C8.94611 16.943 8.88057 17.4353 8.8478 17.9276C8.52009 17.0743 8.01215 16.3193 7.38951 15.6629C7.24204 15.5152 7.07819 15.187 6.93072 15.4167C6.8488 15.548 6.93072 16.2701 6.91434 16.4506C6.91434 17.025 7.45505 21.095 8.78225 20.3237C8.79864 20.8488 8.8478 21.3576 8.91334 21.8663C8.38901 21.1278 7.7336 20.5206 6.99626 20.0119C6.66856 19.7985 6.53748 19.5688 6.48832 19.9626C6.45555 20.2252 6.63579 20.7175 6.70133 20.9637C6.89795 21.8335 7.27481 22.7033 7.74998 23.4582C8.01215 23.8849 8.83141 25.0501 9.47043 24.5742C9.6179 25.1157 9.79814 25.6573 9.99476 26.1825C9.32297 25.5424 8.53648 25.0337 7.66806 24.6891C7.35674 24.5578 7.12735 24.3444 7.16012 24.7383C7.1765 24.9845 7.45505 25.444 7.56975 25.6901C7.81553 26.2645 10.175 30.0063 11.0598 28.5949C11.322 29.0873 11.5841 29.5632 11.8791 30.0227C11.0434 29.4811 10.1258 29.1201 9.15911 28.9231C8.83141 28.8575 8.55286 28.6934 8.71671 29.0708C8.83141 29.3827 9.19189 29.8093 9.38851 30.0719C9.76537 30.5971 12.9441 34.0106 13.534 32.3367C13.9764 32.8946 14.4515 33.4362 14.9431 33.9614C14.0255 33.5347 12.895 33.3213 11.8791 33.3542C11.748 33.3542 11.027 33.3213 10.9451 33.4362C10.8632 33.5511 11.5022 34.027 11.6005 34.1091C12.3706 34.8312 13.3046 35.4056 14.2877 35.8158C14.812 36.0292 16.5489 36.5708 16.5652 35.5204C17.1551 36.0292 17.7614 36.5215 18.4004 36.981C17.3354 36.6528 16.0901 36.6036 15.0086 36.8005C14.8612 36.8333 14.0419 36.9318 14.0091 37.0631C13.9764 37.1944 14.7629 37.6047 14.8776 37.6867C15.7951 38.3268 16.8766 38.7863 17.958 39.0653C18.5642 39.213 20.7599 39.4755 20.3011 38.2447C20.8746 38.5729 21.448 38.8847 22.0379 39.1637C21.0056 39.1965 20.0225 39.3935 19.0558 39.8038C18.6462 39.9679 18.6626 39.9843 19.0722 40.1812C19.449 40.3617 19.8259 40.5587 20.2192 40.7064C20.9237 40.9854 25.528 42.1834 25.2003 40.3617C25.6591 40.493 26.1342 40.6079 26.6094 40.69C25.6754 40.969 24.8234 41.3792 24.0369 41.9536C23.742 42.167 23.6273 42.1998 24.0533 42.2983C24.4302 42.3967 24.8562 42.4788 25.2494 42.5444C26.1998 42.6921 27.2157 42.6757 28.1496 42.5444C28.7395 42.4624 30.3452 42.1342 30.1814 41.2315C30.5419 41.4613 30.8204 41.7895 31.0826 42.1177C31.23 42.3147 31.3775 42.5116 31.5086 42.725C31.7544 43.086 31.8199 43.1188 31.5905 43.4799C31.1317 44.2676 30.7057 45.0718 30.1814 45.8103C30.4763 45.8103 30.8368 45.8759 31.1153 45.8103C31.4267 45.7446 31.4594 45.5969 31.6397 45.3015C31.8854 44.9076 32.0985 44.4974 32.3442 44.0871C32.6064 44.5466 33.016 45.679 33.5076 45.8103C33.7861 45.8923 34.2122 45.8103 34.5071 45.8103C33.9828 45.0718 33.5567 44.2512 33.098 43.4799C32.9013 43.1516 32.9013 43.1516 33.1143 42.8234C33.2454 42.6101 33.3929 42.4131 33.5404 42.2162C33.8189 41.8552 34.1302 41.4777 34.5235 41.2315C34.3596 42.1177 35.9654 42.446 36.5552 42.5444C37.5056 42.6921 38.5215 42.7085 39.4554 42.5444C39.8323 42.4788 40.2092 42.3967 40.5696 42.3147C41.0284 42.2162 41.0448 42.2162 40.6679 41.9536C39.8814 41.3792 39.0294 40.969 38.0955 40.69C38.5706 40.5915 39.0294 40.493 39.5046 40.3617C39.3243 41.3464 41.0284 41.3792 41.6183 41.3464C42.585 41.2972 43.5845 41.0674 44.4857 40.7064C44.8789 40.5587 45.2558 40.3617 45.6327 40.1812C46.0423 39.9843 46.0587 39.9843 45.6491 39.8038C44.6987 39.4099 43.7156 39.1965 42.6669 39.1637C43.2568 38.8847 43.8467 38.5729 44.4038 38.2447C43.945 39.492 46.157 39.213 46.7469 39.0653C47.8283 38.8027 48.9097 38.3268 49.8273 37.6867C49.942 37.6047 50.7285 37.2108 50.6957 37.0631C50.6629 36.9318 49.8437 36.8333 49.6962 36.8005C48.5984 36.6036 47.3531 36.6692 46.3045 36.981C46.9435 36.5215 47.5497 36.0292 48.1396 35.5204C48.2379 37.4898 52.6783 34.6342 53.1371 34.1747Z" fill="black"/>
</svg>
