<svg width="24" height="24" viewBox="0 0 24 24" fill="none" xmlns="http://www.w3.org/2000/svg">
<path fill-rule="evenodd" clip-rule="evenodd" d="M16.0325 3H7.96724C5.22831 3 3 5.22841 3 7.96735V16.0327C3 18.7717 5.22831 21 7.96724 21H16.0325C18.7717 21 21 18.7716 21 16.0327V7.96735C21.0001 5.22841 18.7717 3 16.0325 3ZM19.4031 16.0326C19.4031 17.8911 17.8911 19.403 16.0326 19.403H7.96724C6.10892 19.4031 4.59705 17.8911 4.59705 16.0326V7.96735C4.59705 6.10903 6.10892 4.59705 7.96724 4.59705H16.0325C17.891 4.59705 19.403 6.10903 19.403 7.96735V16.0326H19.4031ZM7.35938 12.0014C7.35938 9.44391 9.44001 7.36328 11.9975 7.36328C14.555 7.36328 16.6357 9.44391 16.6357 12.0014C16.6357 14.5588 14.555 16.6394 11.9975 16.6394C9.44001 16.6394 7.35938 14.5588 7.35938 12.0014ZM12.002 15.0429C10.3252 15.0429 8.96094 13.6788 8.96094 12.002C8.96094 10.3251 10.3251 8.96094 12.002 8.96094C13.6789 8.96094 15.0431 10.3251 15.0431 12.002C15.0431 13.6788 13.6788 15.0429 12.002 15.0429ZM16.0041 6.35065C16.2214 6.13238 16.5236 6.00781 16.8313 6.00781C17.1401 6.00781 17.4425 6.13238 17.6597 6.35065C17.8779 6.56784 18.0025 6.87022 18.0025 7.17898C18.0025 7.48668 17.8779 7.78905 17.6597 8.00732C17.4414 8.22451 17.1401 8.35015 16.8313 8.35015C16.5236 8.35015 16.2213 8.22451 16.0041 8.00732C15.7858 7.78905 15.6602 7.48678 15.6602 7.17898C15.6602 6.87022 15.7857 6.56784 16.0041 6.35065Z" fill="black"/>
</svg>
