<svg width="42" height="37" viewBox="0 0 42 37" fill="none" xmlns="http://www.w3.org/2000/svg">
<path d="M17.802 16.3355C18.4528 16.7196 19.17 17.0374 19.9403 17.3156C20.7239 17.5805 21.4278 17.8718 22.0786 18.1765C22.7294 18.4811 23.2739 18.8387 23.7255 19.2493C24.1638 19.6598 24.3896 20.2161 24.3896 20.9048C24.3896 21.3021 24.2833 21.6995 24.0841 22.0836C23.8849 22.4677 23.6193 22.812 23.2739 23.1299C22.9419 23.4477 22.5435 23.6994 22.0919 23.9113C21.6403 24.11 21.1622 24.2159 20.6442 24.2159C19.9934 24.2159 19.4223 24.1232 18.9309 23.9245C18.4395 23.7391 18.0278 23.5007 17.6825 23.2358C17.3371 22.9709 17.0582 22.6796 16.859 22.3882C16.6598 22.0968 16.5137 21.8584 16.4473 21.6862H16.102C16.102 21.9511 16.0754 22.3352 16.0223 22.8253C15.9691 23.3153 15.8895 23.7259 15.7965 24.0438C16.0223 24.2159 16.3012 24.3749 16.6199 24.5338C16.9387 24.6927 17.2707 24.8119 17.6293 24.9179C17.9879 25.0238 18.3598 25.1033 18.7317 25.1695C19.1169 25.2358 19.4887 25.2755 19.8606 25.2755C20.8434 25.2755 21.7067 25.1165 22.4505 24.7987C23.1943 24.4808 23.8318 24.0702 24.3497 23.5537C24.8677 23.0372 25.2529 22.4544 25.5185 21.8187C25.7841 21.183 25.9037 20.5075 25.9037 19.7923C25.9037 19.183 25.8107 18.6665 25.6115 18.2559C25.4255 17.8454 25.1599 17.501 24.8279 17.2361C25.0005 17.0639 25.1865 16.852 25.3724 16.5871C25.5584 16.3222 25.7443 16.0309 25.9037 15.713C26.0631 15.3819 26.2091 15.0375 26.3154 14.6667C26.4349 14.2958 26.4881 13.9118 26.4881 13.5012C26.4881 12.6535 26.2756 11.9781 25.8638 11.4483C25.4521 10.9185 24.9341 10.4814 24.3232 10.1238C23.7122 9.76624 23.0482 9.46162 22.331 9.20998C21.627 8.94509 20.963 8.66695 20.3387 8.36233C19.7278 8.05771 19.2098 7.68687 18.7981 7.26304C18.3864 6.83922 18.1739 6.26971 18.1739 5.581C18.1739 5.14393 18.2668 4.7466 18.4661 4.389C18.652 4.0314 18.9043 3.74002 19.1965 3.48838C19.4887 3.23673 19.8341 3.05131 20.2192 2.91887C20.6044 2.78642 20.9895 2.7202 21.4013 2.7202C21.7997 2.7202 22.1716 2.78642 22.5036 2.91887C22.8357 3.05131 23.1411 3.23673 23.3935 3.44864C23.6458 3.6738 23.8716 3.92544 24.0576 4.20358C24.2435 4.49495 24.363 4.78633 24.4427 5.09095H24.788C24.8279 4.79958 24.9208 4.49495 25.0935 4.16384C25.2529 3.83273 25.4388 3.58109 25.6248 3.40891C25.2396 2.97184 24.7482 2.56127 24.124 2.20367C23.513 1.84607 22.7294 1.66064 21.7997 1.66064C20.9497 1.66064 20.2059 1.79309 19.5684 2.05798C18.9309 2.32287 18.3864 2.68047 17.9614 3.11753C17.5364 3.5546 17.2043 4.05789 16.9918 4.6274C16.7793 5.19691 16.6731 5.76642 16.6731 6.36242C16.6731 6.75975 16.6863 7.09087 16.7262 7.35575C16.766 7.62064 16.8192 7.83255 16.8856 8.03122C16.952 8.21664 17.0317 8.40206 17.1246 8.561C17.2176 8.71993 17.3239 8.89211 17.4434 9.06429C17.2574 9.18349 17.0449 9.34242 16.8059 9.55433C16.5801 9.76624 16.3543 10.0179 16.1551 10.3358C15.9559 10.6404 15.7832 10.9847 15.6504 11.3688C15.5176 11.7529 15.4512 12.1767 15.4512 12.627C15.4512 13.5674 15.677 14.3223 16.1152 14.9051C16.5934 15.4746 17.1512 15.9646 17.802 16.3355ZM17.2043 10.402C17.4434 10.0179 17.6825 9.72651 17.9348 9.5146C18.0543 9.60731 18.1739 9.70002 18.32 9.80598C18.4661 9.89869 18.6918 10.0311 19.0106 10.2033C19.3294 10.3755 19.7676 10.6006 20.3387 10.8655C20.9098 11.1304 21.6536 11.4748 22.5966 11.8986C23.0747 12.1105 23.4732 12.3092 23.8052 12.5078C24.1372 12.6933 24.3896 12.9052 24.5888 13.1038C24.7748 13.3158 24.9208 13.5542 25.0005 13.819C25.0935 14.0839 25.1334 14.4018 25.1334 14.7594C25.1334 15.2759 25.0537 15.6998 24.8943 16.0176C24.7349 16.3487 24.549 16.6401 24.363 16.905C24.0708 16.7196 23.606 16.4679 22.9552 16.1633C22.3044 15.8587 21.295 15.4084 19.927 14.8124C18.8379 14.3356 18.0411 13.872 17.5629 13.4217C17.0848 12.9714 16.8457 12.3886 16.8457 11.6602C16.8457 11.2099 16.9653 10.7861 17.2043 10.402Z" fill="black"/>
<path d="M37.8155 27.5803C37.8952 27.5008 38.453 27.0902 38.3866 26.9975C38.3202 26.9048 37.7491 26.9313 37.6296 26.9313C36.8061 26.9048 35.8897 27.077 35.1459 27.4213C35.5444 26.9975 35.9295 26.5604 36.2881 26.1101C36.7663 27.4611 39.3429 24.7062 39.6483 24.2824C39.821 24.044 40.0202 23.7791 40.153 23.5142C40.339 23.1699 40.1265 23.2891 39.8343 23.342C39.0374 23.501 38.3069 23.7923 37.6296 24.2294C37.8686 23.8453 38.0811 23.4612 38.2936 23.0639C39.0108 24.2029 40.9234 21.1832 41.1226 20.7196C41.2023 20.521 41.4281 20.1634 41.4546 19.9515C41.4812 19.6468 41.3085 19.819 41.0429 19.9117C40.339 20.1899 39.7015 20.6004 39.1569 21.117C39.3163 20.6931 39.4624 20.2561 39.5819 19.819C40.0866 20.1766 40.7241 19.3025 40.9499 18.9581C41.3484 18.3489 41.6671 17.6072 41.8265 16.892C41.8663 16.6933 42.0124 16.2828 41.9992 16.0841C41.9726 15.7795 41.8663 15.9516 41.614 16.1106C40.9898 16.5079 40.4718 17.0112 40.0335 17.6072C40.0866 17.1966 40.1265 16.7728 40.1397 16.3622C41.2155 16.9979 41.6538 13.7001 41.6538 13.2365C41.6538 13.1173 41.6937 12.4684 41.6406 12.4021C41.521 12.2432 41.4015 12.4816 41.2687 12.6008C40.764 13.1306 40.3523 13.7398 40.0866 14.4285C40.0468 14.0312 40.0069 13.6339 39.9405 13.2365C40.5249 13.263 40.7773 12.2829 40.8702 11.8591C41.0296 11.1572 41.0695 10.4287 40.9898 9.71351C40.9765 9.59431 40.9898 9.07778 40.8835 9.05129C40.8304 9.03804 40.4983 9.48835 40.4452 9.55457C40.0202 10.0844 39.6882 10.7731 39.5421 11.4353C39.3827 10.8923 39.1968 10.3492 38.9843 9.83271C39.5155 9.81946 39.5288 8.86586 39.5155 8.52151C39.489 7.85929 39.3429 7.19706 39.0905 6.58782C39.064 6.53484 38.9046 6.01831 38.8249 6.01831C38.7585 6.01831 38.6389 6.38915 38.5991 6.45538C38.36 7.01164 38.2538 7.66062 38.2538 8.26986C38.0678 7.91226 37.8686 7.56791 37.6428 7.22355C38.7585 7.17058 37.4967 4.46871 37.2444 4.08462C37.1913 4.00515 36.8991 3.46213 36.8327 3.48862C36.7663 3.51511 36.7264 3.81973 36.7131 3.91244C36.5803 4.54818 36.567 5.22364 36.7131 5.87262C36.5006 5.58124 36.2616 5.30311 36.0358 5.03822C36.9655 4.69386 35.478 2.53502 35.1592 2.15093C34.8936 1.84631 34.7608 1.5152 34.7076 2.05822C34.6545 2.66747 34.7209 3.28995 34.9201 3.85947C34.7076 3.6608 34.4951 3.46213 34.2826 3.27671C34.6944 2.99858 34.3623 2.16418 34.2162 1.83307C33.9772 1.29004 33.6717 0.826488 33.2998 0.376177C33.2467 0.309955 33.0209 -0.0476448 32.9279 0.00533295C32.8881 0.0318218 32.8748 0.495377 32.8748 0.548355C32.8482 1.17084 32.9678 1.85955 33.2334 2.42907C32.9146 2.19067 32.7951 1.8728 32.4763 1.60791C32.1576 1.34302 31.7592 1.1576 31.374 1.01191C31.0154 0.866222 30.6701 0.786755 30.2982 0.720533C30.2318 0.707288 29.8865 0.588088 29.8201 0.641066C29.7271 0.707288 29.8466 0.733777 29.8865 0.826488C30.1122 1.42249 30.8959 2.00524 31.4271 2.29662C31.799 2.49529 32.131 2.56151 32.5428 2.60124C32.7685 2.62773 32.5826 2.52178 32.8482 2.65422C33.0475 2.74693 33.2334 2.95884 33.3928 3.09129C32.8084 2.78667 32.0513 2.68071 31.4006 2.68071C31.3076 2.68071 30.5638 2.68071 30.5373 2.72044C30.4443 2.86613 30.6435 2.95884 30.7896 3.07804C31.281 3.50187 31.9052 3.83298 32.5428 3.97867C32.8349 4.04489 34.1897 4.19058 33.8709 3.48862C34.3092 3.88595 34.7342 4.30978 35.1194 4.74684C34.4951 4.45547 33.7115 4.34951 33.0342 4.376C32.9014 4.376 32.3834 4.34951 32.317 4.42898C32.2506 4.50844 32.5295 4.70711 32.6092 4.77333C33.074 5.17066 33.6717 5.50178 34.2693 5.66071C34.6412 5.75342 35.5444 5.93884 35.7037 5.42231C36.0225 5.81964 36.3147 6.23022 36.5936 6.65404C36.0491 6.36266 35.4116 6.17724 34.8006 6.09778C34.6545 6.08453 33.9904 5.95209 33.8709 6.01831C33.7115 6.11102 33.9107 6.21698 34.0037 6.33618C34.4022 6.78649 34.8537 7.17058 35.3983 7.46195C35.8233 7.70035 36.8061 8.13742 37.2178 7.68711C37.4569 8.11093 37.6827 8.56124 37.8819 9.01155C37.3772 8.62746 36.7397 8.3096 36.1287 8.13742C35.9694 8.09769 35.6241 7.952 35.4647 7.96524C35.2256 7.97849 35.3717 8.09769 35.4912 8.28311C35.81 8.81289 36.1952 9.28969 36.6733 9.67377C37.0585 9.9784 37.8686 10.5347 38.3733 10.23C38.5725 10.7863 38.7452 11.3691 38.878 11.9518C38.4663 11.422 37.9483 10.932 37.3905 10.5612C37.1913 10.4287 36.9256 10.23 36.6999 10.1373C36.3678 10.0181 36.5006 10.1903 36.567 10.4817C36.753 11.2366 37.085 11.9651 37.5764 12.5743C37.8819 12.9452 38.5991 13.7398 39.1569 13.4352C39.2233 13.9385 39.2765 14.455 39.2897 14.9716C38.8382 14.3093 38.2803 13.7663 37.6428 13.3028C37.4835 13.1836 37.1913 12.8127 37.0983 13.0511C37.0186 13.2763 37.2577 13.9252 37.3108 14.1239C37.5631 14.9053 37.9616 15.7 38.5991 16.243C38.7452 16.3622 38.9444 16.4284 39.0905 16.5476C39.3163 16.7331 39.1835 16.3622 39.2632 16.786C39.3429 17.2364 39.1436 17.8986 39.0507 18.3621C38.8249 17.6337 38.4132 16.9185 37.9217 16.3357C37.7889 16.1636 37.4967 15.753 37.3108 15.647C37.0452 15.5013 37.1249 15.6735 37.1116 15.9649C37.0585 16.7066 37.1514 17.435 37.3639 18.137C37.5366 18.6932 37.9882 19.8058 38.6921 19.819C38.5194 20.4018 38.3202 20.9845 38.0811 21.5408C37.9882 20.7991 37.7358 20.0309 37.3905 19.3819C37.2842 19.1965 37.085 18.7197 36.9389 18.5873C36.7131 18.3886 36.753 18.574 36.6733 18.8654C36.4741 19.5806 36.4209 20.3091 36.4874 21.0507C36.5538 21.6335 36.753 22.746 37.4171 22.9579C37.0983 23.5539 36.7397 24.1367 36.3545 24.7062C36.4475 23.8586 36.3147 22.9182 36.0491 22.1103C35.9561 21.8454 35.8631 21.4216 35.717 21.1964C35.5311 20.8918 35.5045 21.2097 35.3717 21.4613C35.0131 22.203 34.8006 23.0374 34.774 23.8586C34.7608 24.4148 34.8006 25.6466 35.4647 25.885C35.0928 26.3353 34.7076 26.7723 34.2959 27.1962C34.5483 26.4412 34.6545 25.5803 34.6147 24.7989C34.6014 24.5208 34.6147 24.0837 34.535 23.8321C34.4287 23.4745 34.2693 23.8453 34.0834 24.044C33.5389 24.6532 33.1271 25.4479 32.9014 26.2293C32.7553 26.7459 32.4896 27.9511 33.1006 28.3087C32.556 28.7723 31.9982 29.2093 31.4138 29.6199C31.8388 28.8252 32.1045 27.8716 32.1842 26.971C32.2107 26.7591 32.1974 26.5472 32.2107 26.3353C32.2107 26.2426 32.317 25.885 32.2638 25.8187C32.131 25.6068 31.9717 25.885 31.799 26.0307C31.1216 26.6134 30.5638 27.3551 30.1787 28.163C29.913 28.7325 29.4216 29.9643 30.0193 30.4808C29.1294 30.9841 28.1997 31.4079 27.2302 31.739C27.9474 31.1165 28.3989 30.1232 28.7044 29.2491C28.8505 28.8252 28.9036 28.3882 29.0232 27.9511C29.156 27.4611 29.063 27.514 28.6779 27.7657C27.8942 28.2425 27.2169 28.8782 26.6856 29.6464C26.3669 30.1232 25.5169 31.6066 26.3138 32.0304C25.3708 32.2953 24.4145 32.4675 23.445 32.5204C24.2418 32.0834 24.8661 31.2755 25.3575 30.5338C25.6098 30.1497 25.7692 29.7391 25.9817 29.3418C26.1809 28.9577 26.3138 28.812 25.7958 28.9842C24.8661 29.2888 24.0028 29.7656 23.2856 30.4411C22.8739 30.8384 21.7848 32.0171 22.4223 32.6131C21.7848 32.8648 21.3332 33.5535 20.9613 34.0965C20.5895 33.5535 20.1379 32.8648 19.5004 32.6131C20.1246 32.0304 19.1019 30.8914 18.7035 30.494C17.9863 29.7788 17.0831 29.302 16.1269 28.9842C15.7019 28.8385 15.7019 28.8782 15.9011 29.2755C16.1136 29.6729 16.2597 30.0835 16.512 30.4675C17.0035 31.249 17.6542 32.0701 18.4777 32.5337C17.5082 32.4807 16.5386 32.3085 15.6089 32.0436C16.3792 31.6198 15.5956 30.2027 15.2769 29.7259C14.7589 28.9312 14.0417 28.269 13.2448 27.7789C12.9261 27.5803 12.7667 27.4213 12.8729 27.8849C12.9659 28.3219 13.0456 28.7458 13.1784 29.1696C13.4839 30.0835 13.9487 31.1033 14.6792 31.7523C13.7097 31.4211 12.78 30.9973 11.8901 30.494C12.4745 29.9775 11.9964 28.7458 11.7307 28.1763C11.3456 27.3683 10.7877 26.6267 10.1104 26.0439C9.92444 25.885 9.79163 25.6201 9.64553 25.832C9.59241 25.8982 9.69866 26.2558 9.69866 26.3485C9.71194 26.5604 9.69866 26.7723 9.72522 26.9843C9.80491 27.8716 10.0705 28.8385 10.4955 29.6331C9.91116 29.2358 9.34006 28.7987 8.8088 28.3219C9.39319 27.9776 9.1674 26.8253 9.03459 26.322C8.82208 25.5141 8.38379 24.693 7.83926 24.0572C7.67988 23.8718 7.53378 23.5142 7.38769 23.7923C7.29472 23.9778 7.33456 24.5075 7.32128 24.7195C7.26815 25.5406 7.3744 26.428 7.64003 27.2094C7.22831 26.7856 6.84315 26.3618 6.47127 25.8982C7.13534 25.6598 7.17518 24.4281 7.1619 23.8718C7.13534 23.0507 6.92283 22.2163 6.56424 21.4746C6.4447 21.2362 6.40486 20.9051 6.21892 21.2097C6.0861 21.4481 5.97985 21.8587 5.88688 22.1236C5.63453 22.9315 5.50172 23.8718 5.58141 24.7195C5.19625 24.1632 4.83765 23.5804 4.51889 22.9712C5.16968 22.7593 5.38219 21.66 5.44859 21.064C5.52828 20.3223 5.46188 19.5939 5.26265 18.8787C5.18296 18.574 5.22281 18.4019 4.99702 18.6005C4.83765 18.733 4.63842 19.2098 4.54545 19.3952C4.20014 20.0574 3.94779 20.8123 3.85482 21.554C3.61575 20.9978 3.41653 20.415 3.24387 19.8323C3.94779 19.819 4.39936 18.7065 4.57202 18.1502C4.7978 17.4483 4.87749 16.7066 4.82437 15.9781C4.7978 15.6603 4.87749 15.5013 4.62514 15.6603C4.45248 15.7662 4.16029 16.19 4.0142 16.349C3.53606 16.9317 3.12434 17.6602 2.88527 18.3754C2.80558 17.9383 2.5798 17.2364 2.67277 16.7993C2.7923 16.2828 2.52667 16.8258 2.84543 16.5609C2.99152 16.4417 3.17747 16.3887 3.33684 16.2563C3.97435 15.7132 4.3728 14.9186 4.62514 14.1372C4.69155 13.9385 4.93062 13.2895 4.83765 13.0644C4.74468 12.826 4.46577 13.1968 4.29311 13.316C3.6556 13.7796 3.0845 14.3226 2.64621 14.9848C2.67277 14.4683 2.71261 13.965 2.77902 13.4484C3.33684 13.7398 4.05404 12.9584 4.35951 12.5876C4.85093 11.9783 5.18296 11.2499 5.3689 10.4949C5.43531 10.2565 5.56813 10.0711 5.28922 10.1108C5.10328 10.1373 4.71811 10.4552 4.54545 10.5744C3.98763 10.9452 3.46966 11.4353 3.05793 11.9651C3.19075 11.3823 3.36341 10.8128 3.56263 10.2433C4.06732 10.5612 4.90405 9.9784 5.28922 9.66053C5.76735 9.27644 6.16579 8.81289 6.45798 8.28311C6.57752 8.0712 6.71033 8.01822 6.47127 7.97849C6.28533 7.952 5.80719 8.15066 5.63453 8.20364C5.07671 8.38906 4.53217 8.6672 4.06732 9.0248C4.26654 8.57449 4.49233 8.13742 4.7314 7.70035C5.14312 8.15066 6.12595 7.70035 6.55095 7.4752C7.09549 7.18382 7.56034 6.79973 7.95879 6.33618C8.11817 6.15075 8.25098 6.12426 8.0252 6.0448C7.85254 5.97858 7.34784 6.09778 7.14862 6.11102C6.53767 6.19049 5.90016 6.37591 5.35562 6.66729C5.63453 6.24346 5.94001 5.83289 6.25876 5.43555C6.41814 5.95209 7.32128 5.76666 7.69316 5.67395C8.29082 5.51502 8.88849 5.18391 9.35334 4.78658C9.41975 4.7336 9.69866 4.52169 9.68538 4.45547C9.6721 4.38924 9.03459 4.38924 8.92834 4.38924C8.25098 4.36275 7.46737 4.46871 6.84315 4.76009C7.24159 4.32302 7.65331 3.8992 8.0916 3.50187C7.78613 4.16409 9.03459 4.05813 9.32678 4.00515C10.0041 3.87271 10.6549 3.51511 11.1596 3.07804C11.226 3.02507 11.5049 2.81315 11.4917 2.74693C11.4784 2.68071 10.8276 2.68071 10.7213 2.66747C10.0174 2.64098 9.19396 2.74693 8.56974 3.07804C8.72911 2.9456 8.92834 2.73369 9.11427 2.64098C9.526 2.44231 9.04787 2.62773 9.41975 2.588C9.83147 2.54827 10.1635 2.48204 10.5354 2.28338C11.0799 1.992 11.8503 1.40924 12.076 0.813244C12.0893 0.786755 12.2089 0.680799 12.1823 0.627822C12.1424 0.561599 11.7174 0.694044 11.6643 0.707288C11.2924 0.773511 10.9338 0.852977 10.5885 0.998666C10.2034 1.1576 9.80491 1.32978 9.48616 1.59467C9.18068 1.84631 9.06115 2.17742 8.72911 2.41582C8.98146 1.8728 9.10099 1.22382 9.08771 0.627822C9.08771 0.574844 9.08771 0.0847996 9.03459 0.0318218C8.92834 -0.0608892 8.74239 0.283466 8.66271 0.376177C8.30411 0.799999 8.01191 1.23707 7.77285 1.7536C7.61347 2.09795 7.24159 2.98533 7.67988 3.27671C7.46737 3.46213 7.25487 3.6608 7.04237 3.85947C7.24159 3.27671 7.29472 2.68071 7.25487 2.07147C7.21503 1.5152 7.06893 1.84631 6.8033 2.15093C6.47127 2.53502 4.99702 4.68062 5.92673 5.03822C5.68766 5.31635 5.46188 5.59449 5.24937 5.87262C5.38219 5.26338 5.39547 4.57467 5.26265 3.96542C5.24937 3.88595 5.19625 3.50187 5.12984 3.48862C5.03687 3.47538 4.75796 4.00515 4.71811 4.08462C4.46577 4.46871 3.20403 7.17058 4.31967 7.22355C4.14701 7.60764 3.94779 7.952 3.74857 8.3096C3.74857 7.70035 3.64232 7.06462 3.40325 6.49511C3.37669 6.41564 3.25715 6.05804 3.19075 6.05804C3.09778 6.0448 2.96496 6.54809 2.92512 6.62755C2.7259 7.09111 1.94229 9.84595 3.01809 9.87244C2.80558 10.4022 2.61964 10.932 2.46027 11.475C2.30089 10.8128 1.96885 10.1373 1.55713 9.59431C1.49072 9.51484 1.19853 9.07777 1.11884 9.09102C0.999307 9.10426 1.01259 9.64729 1.01259 9.75324C0.9329 10.4684 0.972744 11.1969 1.13212 11.8988C1.22509 12.3227 1.49072 13.3028 2.06182 13.2763C1.99542 13.6736 1.94229 14.0709 1.91573 14.4683C1.6501 13.7796 1.23837 13.1703 0.733678 12.6405C0.614145 12.5213 0.48133 12.2564 0.361797 12.4419C0.29539 12.5478 0.361798 13.1306 0.348516 13.2763C0.348516 13.7398 0.786804 17.0244 1.8626 16.402C1.87588 16.8258 1.91573 17.2364 1.96885 17.6469C1.54385 17.0509 1.01259 16.5609 0.414923 16.1503C0.149294 15.9781 0.0430424 15.7927 0.00319807 16.1106C-0.0233648 16.3225 0.122731 16.7198 0.175857 16.9185C0.335234 17.6204 0.640708 18.3224 1.02587 18.9316C1.23837 19.276 1.90245 20.2164 2.42042 19.8323C2.53996 20.2693 2.68605 20.7064 2.84543 21.1302C2.30089 20.6137 1.66338 20.2031 0.959463 19.925C0.707115 19.819 0.521175 19.6468 0.547738 19.9647C0.561019 20.1634 0.786804 20.5342 0.879774 20.7329C1.079 21.1964 2.99152 24.2162 3.70872 23.0771C3.92123 23.4745 4.13373 23.8586 4.3728 24.2294C3.69544 23.7923 2.95168 23.501 2.16807 23.342C1.90245 23.2891 1.67666 23.1566 1.80948 23.4612C1.90245 23.7129 2.19464 24.0572 2.35402 24.2691C2.65949 24.693 5.23609 27.4478 5.71422 26.0969C6.07282 26.5472 6.45798 26.9843 6.85643 27.4081C6.11267 27.0637 5.19625 26.8915 4.3728 26.918C4.26654 26.918 3.68216 26.8915 3.61575 26.9843C3.54935 27.077 4.06732 27.4611 4.14701 27.5273C4.77124 28.11 5.52828 28.5736 6.32517 28.9047C6.75018 29.0769 8.15801 29.5139 8.17129 28.6663C8.64942 29.0769 9.14084 29.4742 9.65881 29.8451C8.79552 29.5802 7.78613 29.5404 6.90955 29.6994C6.79002 29.7259 6.12595 29.8053 6.09938 29.9113C6.07282 30.0172 6.71033 30.3483 6.8033 30.4146C7.54706 30.9311 8.42364 31.3019 9.30022 31.5271C9.79163 31.6463 11.5713 31.8582 11.1995 30.8649C11.6643 31.1298 12.1292 31.3814 12.6073 31.6066C11.7706 31.6331 10.9737 31.792 10.1901 32.1231C9.85804 32.2555 9.87132 32.2688 10.2034 32.4277C10.5088 32.5734 10.8143 32.7323 11.1331 32.8515C11.7042 33.0767 15.4362 34.0435 15.1706 32.5734C15.5425 32.6794 15.9277 32.7721 16.3128 32.8383C15.5558 33.0635 14.8651 33.3946 14.2276 33.8581C13.9886 34.0303 13.8956 34.0568 14.2409 34.1363C14.5464 34.2157 14.8917 34.2819 15.2105 34.3349C15.9808 34.4541 16.8042 34.4409 17.5613 34.3349C18.0394 34.2687 19.341 34.0038 19.2082 33.2754C19.5004 33.4608 19.7262 33.7257 19.9387 33.9906C20.0582 34.1495 20.1777 34.3084 20.284 34.4806C20.4832 34.772 20.5363 34.7985 20.3504 35.0899C19.9785 35.7256 19.6332 36.3746 19.2082 36.9706C19.4472 36.9706 19.7394 37.0235 19.9652 36.9706C20.2176 36.9176 20.2441 36.7984 20.3902 36.56C20.5894 36.2421 20.7621 35.911 20.9613 35.5799C21.1738 35.9507 21.5059 36.8646 21.9043 36.9706C22.1301 37.0368 22.4754 36.9706 22.7145 36.9706C22.2895 36.3746 21.9442 35.7123 21.5723 35.0899C21.4129 34.825 21.4129 34.825 21.5856 34.5601C21.6918 34.3879 21.8113 34.229 21.9309 34.07C22.1567 33.7787 22.409 33.474 22.7278 33.2754C22.5949 33.9906 23.8965 34.2555 24.3747 34.3349C25.145 34.4541 25.9684 34.4674 26.7255 34.3349C27.031 34.2819 27.3364 34.2157 27.6286 34.1495C28.0005 34.07 28.0138 34.07 27.7083 33.8581C27.0708 33.3946 26.3802 33.0635 25.6231 32.8383C26.0083 32.7588 26.3802 32.6794 26.7653 32.5734C26.6192 33.3681 28.0005 33.3946 28.4786 33.3681C29.2622 33.3283 30.0724 33.1429 30.8029 32.8515C31.1216 32.7323 31.4271 32.5734 31.7326 32.4277C32.0646 32.2688 32.0779 32.2688 31.7459 32.1231C30.9755 31.8052 30.1787 31.6331 29.3286 31.6066C29.8068 31.3814 30.2849 31.1298 30.7365 30.8649C30.3646 31.8715 32.1576 31.6463 32.6357 31.5271C33.5123 31.3152 34.3889 30.9311 35.1326 30.4146C35.2256 30.3483 35.8631 30.0305 35.8366 29.9113C35.81 29.8053 35.1459 29.7259 35.0264 29.6994C34.1365 29.5404 33.1271 29.5934 32.2771 29.8451C32.7951 29.4742 33.2865 29.0769 33.7646 28.6663C33.8443 30.2556 37.4436 27.9511 37.8155 27.5803Z" fill="black"/>
</svg>
