<svg width="141" height="24" viewBox="0 0 141 24" fill="none" xmlns="http://www.w3.org/2000/svg">
<path d="M3.68944 8.7204H6.4679L5.11125 4.90143L3.68944 8.7204ZM2.61589 11.6478C2.56544 11.7977 2.52865 11.935 2.50342 12.0592C2.47854 12.1833 2.46663 12.2972 2.46663 12.4011C2.46663 12.7478 2.56789 12.9993 2.76935 13.1558C2.97187 13.3123 3.29737 13.3907 3.74515 13.3907H3.92279V13.8778H0V13.3907C0.317439 13.3907 0.591781 13.2851 0.822327 13.0722C1.05217 12.86 1.25469 12.5256 1.42953 12.0681L5.89644 0.33187H7.33157L11.8433 12.2645C12.0122 12.7083 12.1839 13.0072 12.3591 13.161C12.5343 13.3144 12.7655 13.3907 13.0528 13.3907V13.8778H6.17709V13.3907C6.85857 13.3907 7.29198 13.3405 7.47628 13.2387C7.66057 13.1376 7.75342 12.9401 7.75342 12.646C7.75342 12.5425 7.74186 12.4345 7.72049 12.3233C7.69876 12.2126 7.66548 12.1015 7.62168 11.9904L6.77728 9.56145H3.38181L2.61589 11.6478Z" fill="white"/>
<path d="M21.169 11.9812C20.7492 12.6744 20.2233 13.2003 19.5909 13.5595C18.9588 13.9189 18.2461 14.0992 17.4522 14.0992C16.8618 14.0992 16.3138 13.9956 15.8086 13.7903C15.303 13.5842 14.851 13.2784 14.4516 12.8708C14.0073 12.4339 13.6703 11.91 13.4415 11.3015C13.2127 10.6933 13.0984 10.0225 13.0984 9.29123C13.0984 7.90942 13.5119 6.78629 14.3384 5.92185C15.1646 5.05809 16.2346 4.6257 17.5475 4.6257C18.1081 4.6257 18.6606 4.72236 19.2048 4.91568C19.7489 5.10866 20.0397 5.20497 20.0772 5.20497C20.2019 5.20497 20.2969 5.17092 20.3634 5.10178C20.43 5.03298 20.4875 4.90364 20.5376 4.71479H20.8764V7.61359H20.5376C20.4216 6.89328 20.1623 6.3336 19.7598 5.9332C19.3582 5.53417 18.8523 5.33431 18.2426 5.33431C17.504 5.33431 16.9427 5.66386 16.5598 6.32328C16.1758 6.98237 15.9838 7.9507 15.9838 9.22552C15.9838 10.5575 16.1723 11.566 16.5507 12.2523C16.9291 12.9372 17.4855 13.2798 18.2202 13.2798C18.6848 13.2798 19.1322 13.1422 19.5621 12.8663C19.992 12.5908 20.3855 12.19 20.7418 11.6641L21.169 11.9812Z" fill="white"/>
<path d="M22.8276 6.48572C22.8276 6.02167 22.7435 5.69213 22.5757 5.49744C22.4085 5.30274 22.124 5.19644 21.7225 5.17924V4.84661H25.3191L29.4332 10.0935V6.48572C29.4332 6.02167 29.3512 5.69488 29.1876 5.50431C29.024 5.3134 28.7377 5.20745 28.3281 5.18544V4.84661H31.1234V5.17924C30.7222 5.19644 30.4381 5.30274 30.2702 5.49744C30.1024 5.69213 30.019 6.02167 30.019 6.48572V13.8777H29.046L23.4138 6.72651V12.2386C23.4138 12.7023 23.4961 13.0308 23.6615 13.2241C23.8272 13.4168 24.1124 13.5241 24.5185 13.5458V13.8777H21.7225V13.5458C22.124 13.5327 22.4085 13.4271 22.5757 13.23C22.7435 13.0332 22.8276 12.7023 22.8276 12.2386V6.48572Z" fill="white"/>
<path d="M31.7784 14.2095L31.5731 13.5456C31.9746 13.5329 32.2584 13.4283 32.4262 13.2336C32.5941 13.0382 32.6782 12.7114 32.6782 12.2522V6.49383C32.6782 6.02739 32.5941 5.69612 32.4262 5.49971C32.2584 5.30398 31.9746 5.19665 31.5731 5.17911V4.84681H39.1706V7.30427H38.8549C38.7596 6.6077 38.549 6.11992 38.2225 5.84129C37.8959 5.56231 37.3591 5.42231 36.6111 5.42231H35.383V8.96368H35.5263C35.9997 8.96368 36.3529 8.82092 36.5866 8.53473C36.8185 8.24887 36.9671 7.7721 37.0291 7.10442H37.3448V11.4428H37.0291C36.9671 10.7614 36.8168 10.2777 36.5799 9.99083C36.3431 9.70532 35.9794 9.56153 35.4896 9.56153H35.383V12.3561C35.383 12.7926 35.4475 13.0592 35.5754 13.1562C35.7043 13.2536 36.0253 13.3017 36.5393 13.3017C37.3416 13.3017 37.9579 13.1266 38.3868 12.7747C38.8157 12.4225 39.1296 11.8387 39.3286 11.0221H39.6891L39.3987 14.2095H31.7784Z" fill="white"/>
<path d="M42.1645 14.1899V9.2516H42.6463C42.8022 10.4277 43.3162 11.4043 44.1893 12.181C45.0618 12.9574 46.0652 13.3461 47.1997 13.3461C47.9292 13.3461 48.5192 13.17 48.9716 12.8153C49.4229 12.461 49.6492 12.0049 49.6492 11.4459C49.6492 10.5894 48.5858 9.67608 46.4573 8.70844L46.43 8.69846C46.2989 8.64033 46.102 8.55227 45.8406 8.43531C44.3694 7.7862 43.3887 7.11474 42.8957 6.41919C42.6775 6.10753 42.5124 5.7749 42.401 5.42059C42.2889 5.06697 42.2318 4.69546 42.2318 4.30537C42.2318 3.05841 42.6848 2.02954 43.5905 1.21738C44.4959 0.405563 45.6553 0 47.068 0C47.8332 0 48.6331 0.160643 49.4667 0.481241C50.3012 0.802871 50.7557 0.963514 50.8303 0.963514C51.0412 0.963514 51.1908 0.896093 51.2781 0.761249C51.3653 0.627781 51.421 0.379764 51.4466 0.0196071H51.9715V4.38208H51.5202C51.3401 3.34667 50.8657 2.50528 50.098 1.85754C49.3304 1.20947 48.4306 0.88543 47.398 0.88543C46.752 0.88543 46.232 1.04022 45.8406 1.34878C45.4493 1.65837 45.2531 2.06291 45.2531 2.5641C45.2531 3.29267 46.0775 4.0147 47.7267 4.73089L47.9327 4.81826C49.1194 5.33803 49.9484 5.73499 50.4197 6.01053C50.8923 6.2871 51.2466 6.56023 51.4838 6.83335C51.8457 7.24236 52.1193 7.68817 52.3036 8.17113C52.4876 8.65443 52.5804 9.17214 52.5804 9.72355C52.5804 11.0465 52.1162 12.1256 51.1891 12.9588C50.2624 13.7929 49.056 14.2095 47.5711 14.2095C46.7281 14.2095 45.8525 14.0554 44.9444 13.7489C44.0366 13.4421 43.545 13.2876 43.4704 13.2876C43.2507 13.2876 43.0713 13.3664 42.9311 13.5233C42.7906 13.6801 42.7079 13.902 42.6831 14.1899H42.1645Z" fill="white"/>
<path d="M57.3165 9.18513H57.4349C57.8981 9.18513 58.2387 9.02483 58.4559 8.70423C58.6735 8.38295 58.7825 7.8821 58.7825 7.20134C58.7825 6.56393 58.663 6.09301 58.4247 5.78926C58.1868 5.48587 57.8179 5.33451 57.3165 5.33451V9.18513ZM57.3165 12.2398C57.3165 12.7251 57.4079 13.0636 57.5901 13.2562C57.7716 13.4492 58.0926 13.5459 58.5526 13.5459H58.602V13.8778H53.5069V13.5459C53.9081 13.5328 54.1922 13.4272 54.3604 13.2301C54.5275 13.0333 54.6116 12.7031 54.6116 12.2398V6.47896C54.6116 6.0163 54.5275 5.68744 54.3604 5.4924C54.1922 5.29702 53.9081 5.19107 53.5069 5.17421V4.84673H58.2352C59.321 4.84673 60.1454 5.05209 60.7095 5.46213C61.2729 5.87182 61.5553 6.47105 61.5553 7.26016C61.5553 8.07129 61.2628 8.68703 60.6787 9.10739C60.0939 9.52809 59.2362 9.73861 58.1052 9.73861H57.3165V12.2398Z" fill="white"/>
<path d="M61.8479 13.8778V13.5459C62.2487 13.5328 62.5332 13.4282 62.7011 13.2335C62.8689 13.0385 62.953 12.7114 62.953 12.2521V6.49375C62.953 6.02731 62.8689 5.69604 62.7011 5.49962C62.5332 5.30389 62.2487 5.19657 61.8479 5.17903V4.84673H69.4454V7.30419H69.1297C69.0344 6.60761 68.8232 6.12018 68.4973 5.84121C68.1708 5.56257 67.6333 5.42223 66.8856 5.42223H65.6579V8.9636H65.8008C66.2742 8.9636 66.6277 8.82084 66.8604 8.53464C67.0934 8.24913 67.2405 7.77202 67.3039 7.10468H67.6189V11.4427H67.3039C67.2405 10.7613 67.0909 10.2776 66.8548 9.9911C66.6172 9.70559 66.2542 9.56145 65.7637 9.56145H65.6579V12.356C65.6579 12.7929 65.7216 13.0595 65.8502 13.1561C65.9781 13.2535 66.2994 13.302 66.8127 13.302C67.6165 13.302 68.2328 13.1266 68.6609 12.7747C69.0901 12.4228 69.4034 11.839 69.6027 11.0224H69.9633L69.4685 13.8778H61.8479Z" fill="white"/>
<path d="M78.8985 11.9812C78.4791 12.6744 77.9525 13.2003 77.3204 13.5595C76.6887 13.9189 75.975 14.0992 75.181 14.0992C74.591 14.0992 74.043 13.9956 73.5374 13.7903C73.0322 13.5842 72.5806 13.2784 72.1811 12.8708C71.7362 12.4339 71.3995 11.91 71.1707 11.3015C70.9419 10.6933 70.828 10.0225 70.828 9.29123C70.828 7.90942 71.2407 6.78629 72.0673 5.92185C72.8941 5.05809 73.9635 4.6257 75.2767 4.6257C75.8373 4.6257 76.3898 4.72236 76.9336 4.91568C77.4777 5.10866 77.7689 5.20497 77.8064 5.20497C77.9308 5.20497 78.0268 5.17092 78.093 5.10178C78.1592 5.03298 78.2174 4.90364 78.2671 4.71479H78.6052V7.61359H78.2671C78.1512 6.89328 77.8919 6.3336 77.4897 5.9332C77.0874 5.53417 76.5811 5.33431 75.9715 5.33431C75.2336 5.33431 74.6723 5.66386 74.289 6.32328C73.9046 6.98237 73.7133 7.9507 73.7133 9.22552C73.7133 10.5575 73.9025 11.566 74.2802 12.2523C74.6576 12.9372 75.2143 13.2798 75.9494 13.2798C76.4137 13.2798 76.8611 13.1422 77.291 12.8663C77.7213 12.5908 78.1144 12.19 78.4718 11.6641L78.8985 11.9812Z" fill="white"/>
<path d="M83.2851 12.2385C83.2851 12.7025 83.3674 13.0311 83.5328 13.224C83.6985 13.417 83.9837 13.5243 84.3894 13.5457V13.878H79.4744V13.5457C79.8805 13.5285 80.166 13.4215 80.3311 13.2268C80.4968 13.0321 80.5795 12.7025 80.5795 12.2385V6.48562C80.5795 6.02193 80.4957 5.69239 80.3279 5.49734C80.1601 5.30265 79.8759 5.1967 79.4744 5.17915V4.84686H84.3894V5.18534C83.9795 5.20736 83.6932 5.31331 83.53 5.50422C83.3667 5.69514 83.2851 6.02193 83.2851 6.48562V12.2385Z" fill="white"/>
<path d="M86.7635 10.447H88.6225L87.7147 7.89667L86.7635 10.447ZM86.0497 12.3864C86.0172 12.4869 85.9919 12.5777 85.9751 12.6602C85.9583 12.7421 85.9506 12.8188 85.9506 12.8876C85.9506 13.1181 86.0179 13.2849 86.152 13.3888C86.2869 13.4937 86.5024 13.5457 86.8006 13.5457H86.9187V13.878H84.3038V13.5457C84.5155 13.5457 84.6977 13.4755 84.8511 13.3341C85.0042 13.1931 85.1398 12.9705 85.2558 12.6664L88.241 4.84686H89.1968L92.2002 12.7968C92.3123 13.0919 92.4266 13.2908 92.5432 13.3922C92.6595 13.4951 92.8141 13.5457 93.0057 13.5457V13.878H88.4295V13.5457C88.8825 13.5457 89.1709 13.512 89.2942 13.4442C89.4165 13.3775 89.4778 13.2461 89.4778 13.05C89.4778 12.9815 89.4708 12.9103 89.4564 12.8357C89.4414 12.7624 89.4196 12.6884 89.3906 12.6145L88.8286 11.0001H86.5585L86.0497 12.3864Z" fill="white"/>
<path d="M96.7868 12.2318C96.7868 12.6326 96.8505 12.9102 96.976 13.0671C97.1021 13.2243 97.3225 13.302 97.6378 13.302C98.3042 13.302 98.8554 13.0457 99.2916 12.5321C99.7285 12.0186 100.014 11.2938 100.146 10.3578L100.507 10.4042L100.171 13.8778H92.9771V13.5459C93.3783 13.5325 93.6621 13.4272 93.8303 13.2284C93.9978 13.0299 94.0819 12.698 94.0819 12.2318V6.48206C94.0819 6.01974 93.9978 5.69123 93.8303 5.49687C93.6621 5.30286 93.3783 5.19657 92.9771 5.17937V4.84673H97.8915V5.17937C97.4854 5.20139 97.2002 5.30802 97.0348 5.50031C96.8691 5.69226 96.7868 6.01974 96.7868 6.48206V12.2318Z" fill="white"/>
<path d="M104.733 12.2385C104.733 12.7025 104.814 13.0311 104.98 13.224C105.146 13.417 105.431 13.5243 105.837 13.5457V13.878H100.922V13.5457C101.328 13.5285 101.613 13.4215 101.779 13.2268C101.945 13.0321 102.027 12.7025 102.027 12.2385V6.48562C102.027 6.02193 101.943 5.69239 101.776 5.49734C101.607 5.30265 101.324 5.1967 100.922 5.17915V4.84686H105.837V5.18534C105.427 5.20736 105.141 5.31331 104.977 5.50422C104.814 5.69514 104.733 6.02193 104.733 6.48562V12.2385Z" fill="white"/>
<path d="M106.743 14.0854V10.801H107.079C107.182 11.5832 107.525 12.2323 108.106 12.7487C108.688 13.2653 109.358 13.523 110.115 13.523C110.6 13.523 110.994 13.4057 111.296 13.1697C111.597 12.9337 111.748 12.6303 111.748 12.2581C111.748 11.6875 111.032 11.0803 109.603 10.4357L109.585 10.4288C109.497 10.3899 109.367 10.3318 109.192 10.2534C108.212 9.82063 107.558 9.37241 107.23 8.90837C107.086 8.7006 106.975 8.47838 106.9 8.2424C106.825 8.00643 106.788 7.75807 106.788 7.49767C106.788 6.66659 107.091 5.97964 107.695 5.4382C108.299 4.89642 109.073 4.6257 110.016 4.6257C110.527 4.6257 111.06 4.73027 111.617 4.93941C112.174 5.14856 112.477 5.25313 112.527 5.25313C112.668 5.25313 112.768 5.20979 112.826 5.12207C112.884 5.03401 112.922 4.87302 112.939 4.63842H113.281V7.52553H112.987C112.867 6.83686 112.549 6.27822 112.036 5.84686C111.523 5.41687 110.92 5.20119 110.23 5.20119C109.797 5.20119 109.449 5.30404 109.188 5.50941C108.926 5.71511 108.794 5.9848 108.794 6.31812C108.794 6.80315 109.348 7.28405 110.456 7.76047L110.595 7.81895C111.384 8.16604 111.935 8.43194 112.249 8.61598C112.563 8.8007 112.799 8.98404 112.957 9.16601C113.198 9.43949 113.38 9.73807 113.502 10.0607C113.626 10.3837 113.686 10.7305 113.686 11.0982C113.686 11.984 113.378 12.7046 112.762 13.2622C112.145 13.8202 111.343 14.0992 110.355 14.0992C109.794 14.0992 109.211 13.9963 108.608 13.7916C108.003 13.587 107.676 13.4848 107.627 13.4848C107.481 13.4848 107.362 13.5367 107.269 13.6417C107.175 13.7462 107.12 13.8938 107.104 14.0854H106.743Z" fill="white"/>
<path d="M122.391 4.84673V7.17107H122.075C122.017 6.54501 121.849 6.09748 121.574 5.82779C121.298 5.55776 120.869 5.42223 120.288 5.42223H119.73V12.2367C119.73 12.701 119.812 13.0299 119.975 13.2229C120.139 13.4165 120.425 13.5242 120.835 13.5459V13.8778H115.92V13.5459C116.317 13.5328 116.6 13.4272 116.77 13.2298C116.94 13.032 117.025 12.701 117.025 12.2367V5.42223H116.466C115.881 5.42223 115.451 5.55776 115.178 5.82779C114.905 6.09748 114.739 6.54501 114.68 7.17107H114.365V4.84673H122.391Z" fill="white"/>
<path d="M122.822 13.8778V13.5459C123.223 13.5328 123.507 13.4282 123.675 13.2335C123.842 13.0385 123.926 12.7114 123.926 12.2521V6.49375C123.926 6.02731 123.842 5.69604 123.675 5.49962C123.507 5.30389 123.223 5.19657 122.822 5.17903V4.84673H130.419V7.30419H130.103C130.008 6.60761 129.797 6.12018 129.471 5.84121C129.145 5.56257 128.608 5.42223 127.859 5.42223H126.631V8.9636H126.775C127.249 8.9636 127.602 8.82084 127.834 8.53464C128.067 8.24913 128.215 7.77202 128.277 7.10468H128.593V11.4427H128.277C128.215 10.7613 128.065 10.2776 127.828 9.9911C127.591 9.70559 127.228 9.56145 126.738 9.56145H126.631V12.356C126.631 12.7929 126.696 13.0595 126.824 13.1561C126.952 13.2535 127.274 13.302 127.787 13.302C128.59 13.302 129.207 13.1266 129.635 12.7747C130.064 12.4228 130.378 11.839 130.577 11.0224H130.937L130.442 13.8778H122.822Z" fill="white"/>
<path d="M132.704 6.48572C132.704 6.02167 132.62 5.69213 132.452 5.49744C132.285 5.30274 132 5.19644 131.599 5.17924V4.84661H135.196L139.309 10.0935V6.48572C139.309 6.02167 139.227 5.69488 139.064 5.50431C138.901 5.3134 138.613 5.20745 138.204 5.18544V4.84661H141V5.17924C140.598 5.19644 140.314 5.30274 140.146 5.49744C139.979 5.69213 139.895 6.02167 139.895 6.48572V13.8777H138.922L133.29 6.72651V12.2386C133.29 12.7023 133.372 13.0308 133.538 13.2241C133.703 13.4168 133.989 13.5241 134.394 13.5458V13.8777H131.599V13.5458C132 13.5327 132.285 13.4271 132.452 13.23C132.62 13.0332 132.704 12.7023 132.704 12.2386V6.48572Z" fill="white"/>
<path d="M0.590646 20.7017C32.4799 15.1273 76.9273 21.6387 83.3356 22.413C89.744 23.1873 111.43 27.3451 140.242 17.9841C115.43 24.628 87.0822 20.6927 83.4379 20.1981C79.7937 19.7037 24.6873 11.5409 0.590646 20.7017Z" fill="white"/>
</svg>
