<svg width="24" height="24" viewBox="0 0 24 24" fill="none" xmlns="http://www.w3.org/2000/svg">
<path d="M11 6.5C11 6.22386 10.7761 6 10.5 6C10.2239 6 10 6.22386 10 6.5H11ZM19 7.5C19 7.22386 18.7761 7 18.5 7C18.2239 7 18 7.22386 18 7.5H19ZM10 6.5V15.5H11V6.5H10ZM15 15.5V5.5H14V15.5H15ZM6 5.5V15.5H7V5.5H6ZM19 15.5V7.5H18V15.5H19ZM12.5 22C16.0899 22 19 19.0899 19 15.5H18C18 18.5376 15.5376 21 12.5 21V22ZM6 15.5C6 19.0898 8.91015 22 12.5 22V21C9.46243 21 7 18.5376 7 15.5H6ZM10.5 1C8.01472 1 6 3.01472 6 5.5H7C7 3.567 8.567 2 10.5 2V1ZM15 5.5C15 3.01472 12.9853 1 10.5 1V2C12.433 2 14 3.567 14 5.5H15ZM12.5 18C13.8807 18 15 16.8807 15 15.5H14C14 16.3284 13.3284 17 12.5 17V18ZM10 15.5C10 16.8807 11.1193 18 12.5 18V17C11.6716 17 11 16.3284 11 15.5H10Z" fill="#212F29"/>
</svg>
