<svg width="64" height="64" viewBox="0 0 64 64" fill="none" xmlns="http://www.w3.org/2000/svg">
<path d="M11.4999 55.0009L17.4999 54.0009L22.9999 52.5009M22.9999 52.5009L23.9999 57.0009L25.9999 62.5009M22.9999 52.5009L27.9999 48.0009V46.5009M18.9999 30.5009L10.9999 35.5009L3.99988 44.5009M18.9999 30.5009L14.4999 26.5009M18.9999 30.5009L25.4999 36.6398M14.4999 26.5009L5.99988 23.5009L3.99988 19.5009M14.4999 26.5009L21.4999 21.0009V15.5009M21.4999 15.5009L14.9999 14.9137L10.9999 10.0009M21.4999 15.5009L28.4999 13.5009L30.9999 11.7509M36.4999 1.50089L33.4999 10.0009L30.9999 11.7509M30.9999 11.7509L36.4999 22.0009V26.5009L36.3289 26.7575M36.3289 26.7575L34.4999 29.5009L25.4999 36.6398M36.3289 26.7575L43.9999 29.5009M25.4999 36.6398L27.9999 39.0009V46.5009M43.9999 29.5009L49.4999 27.0009V21.0009M43.9999 29.5009V38.0009L47.4999 42.0009M49.4999 21.0009L44.4999 15.0009L45.9999 5.00089M49.4999 21.0009L56.9999 22.0009L60.9999 21.0009M47.4999 42.0009L53.4999 38.5009L62.9999 35.0009M47.4999 42.0009L43.9999 49.0009M43.9999 49.0009L47.9999 52.5009L49.4999 57.0009M43.9999 49.0009L36.9999 46.5009H27.9999M32 63.001C14.8792 63.001 0.999999 49.1218 1 32.001C1 14.8801 14.8792 1.00098 32 1.00098C49.1208 1.00098 63 14.8802 63 32.001C63 49.1218 49.1208 63.001 32 63.001Z" stroke="black"/>
</svg>
