<svg width="620" height="560" viewBox="0 0 620 560" fill="none" xmlns="http://www.w3.org/2000/svg">
<path d="M558.229 417.431C559.405 416.228 567.64 410.014 566.659 408.611C565.679 407.208 557.248 407.609 555.484 407.609C543.328 407.208 529.8 409.814 518.821 415.025C524.703 408.611 530.388 401.996 535.682 395.18C542.74 415.627 580.776 373.932 585.285 367.517C587.834 363.909 590.775 359.9 592.735 355.891C595.48 350.679 592.343 352.483 588.03 353.285C576.266 355.69 565.483 360.1 555.484 366.715C559.013 360.902 562.15 355.089 565.287 349.075C575.874 366.315 604.107 320.611 607.048 313.595C608.224 310.588 611.557 305.175 611.949 301.968C612.341 297.358 609.792 299.963 605.871 301.367C595.48 305.576 586.069 311.79 578.031 319.608C580.383 313.194 582.54 306.579 584.305 299.963C591.755 305.376 601.166 292.146 604.499 286.934C610.381 277.713 615.086 266.487 617.439 255.663C618.027 252.656 620.184 246.442 619.987 243.435C619.595 238.824 618.027 241.43 614.302 243.836C605.087 249.849 597.441 257.467 590.971 266.487C591.755 260.273 592.343 253.859 592.539 247.644C608.42 257.266 614.89 207.353 614.89 200.337C614.89 198.533 615.478 188.71 614.694 187.708C612.929 185.302 611.165 188.911 609.204 190.715C601.754 198.733 595.676 207.954 591.755 218.378C591.167 212.364 590.579 206.35 589.598 200.337C598.225 200.738 601.95 185.904 603.322 179.489C605.675 168.865 606.263 157.84 605.087 147.015C604.891 145.211 605.087 137.393 603.518 136.992C602.734 136.792 597.833 143.607 597.049 144.61C590.775 152.628 585.873 163.052 583.716 173.075C581.364 164.856 578.619 156.637 575.482 148.819C583.324 148.619 583.52 134.186 583.324 128.974C582.932 118.951 580.776 108.929 577.05 99.7076C576.658 98.9057 574.306 91.0879 573.129 91.0879C572.149 91.0879 570.384 96.7007 569.796 97.703C566.267 106.122 564.699 115.945 564.699 125.166C561.954 119.753 559.013 114.541 555.68 109.329C572.149 108.528 553.523 67.6345 549.798 61.8213C549.014 60.6185 544.701 52.3998 543.72 52.8007C542.74 53.2017 542.152 57.8122 541.956 59.2154C539.995 68.8373 539.799 79.0605 541.956 88.8829C538.819 84.4729 535.29 80.2633 531.957 76.2541C545.681 71.0423 523.722 38.3679 519.017 32.5546C515.096 27.9442 513.135 22.9327 512.351 31.1515C511.567 40.3725 512.547 49.7939 515.488 58.4135C512.351 55.4067 509.214 52.3998 506.077 49.5934C512.155 45.3839 507.253 32.7551 505.097 27.7437C501.568 19.525 497.058 12.509 491.568 5.69349C490.784 4.69121 487.451 -0.721111 486.079 0.080715C485.491 0.481628 485.295 7.4976 485.295 8.29943C484.902 17.7209 486.667 28.1446 490.588 36.7642C485.883 33.156 484.118 28.3451 479.413 24.3359C474.707 20.3268 468.826 17.5204 463.14 15.3154C457.846 13.1104 452.749 11.9076 447.259 10.9054C446.279 10.7049 441.181 8.9008 440.201 9.70262C438.828 10.7049 440.593 11.1058 441.181 12.509C444.514 21.5296 456.082 30.3496 463.924 34.7597C469.414 37.7665 474.315 38.7688 480.393 39.3702C483.726 39.7711 480.981 38.1674 484.902 40.172C487.843 41.5752 490.588 44.7825 492.941 46.7871C484.314 42.1766 473.139 40.5729 463.532 40.5729C462.16 40.5729 451.18 40.5729 450.788 41.1743C449.416 43.3793 452.357 44.7825 454.513 46.5866C461.767 53.0012 470.982 58.0126 480.393 60.2176C484.706 61.2199 504.704 63.4249 499.999 52.8007C506.469 58.8144 512.743 65.229 518.429 71.8441C509.214 67.4341 497.646 65.8304 487.647 66.2313C485.687 66.2313 478.04 65.8304 477.06 67.0332C476.08 68.2359 480.197 71.2427 481.373 72.245C488.235 78.2587 497.058 83.2701 505.881 85.6756C511.37 87.0788 524.703 89.8852 527.055 82.0674C531.761 88.0811 536.074 94.2952 540.191 100.71C532.153 96.2998 522.742 93.4934 513.723 92.2907C511.567 92.0902 501.764 90.0856 499.999 91.0879C497.646 92.4911 500.587 94.0948 501.96 95.8989C507.841 102.714 514.507 108.528 522.546 112.938C528.82 116.546 543.328 123.161 549.406 116.345C552.935 122.76 556.268 129.576 559.209 136.391C551.759 130.578 542.348 125.767 533.329 123.161C530.976 122.56 525.879 120.355 523.526 120.555C519.997 120.755 522.154 122.56 523.918 125.366C528.624 133.384 534.309 140.601 541.368 146.414C547.053 151.024 559.013 159.444 566.463 154.833C569.404 163.252 571.953 172.072 573.914 180.892C567.836 172.874 560.189 165.457 551.955 159.844C549.014 157.84 545.093 154.833 541.76 153.43C536.858 151.626 538.819 154.232 539.799 158.642C542.544 170.068 547.445 181.093 554.7 190.314C559.209 195.927 569.796 207.954 578.031 203.344C579.011 210.961 579.795 218.779 579.991 226.596C573.325 216.574 565.091 208.355 555.68 201.339C553.327 199.535 549.014 193.922 547.642 197.53C546.465 200.938 549.994 210.76 550.779 213.767C554.504 225.594 560.385 237.622 569.796 245.84C571.953 247.644 574.894 248.647 577.05 250.451C580.383 253.257 578.423 247.644 579.599 254.059C580.776 260.874 577.835 270.897 576.462 277.913C573.129 266.888 567.051 256.064 559.797 247.243C557.837 244.638 553.523 238.423 550.779 236.82C546.857 234.615 548.034 237.221 547.838 241.631C547.053 252.856 548.426 263.881 551.563 274.506C554.112 282.925 560.778 299.763 571.169 299.963C568.62 308.784 565.679 317.604 562.15 326.023C560.778 314.797 557.052 303.171 551.955 293.348C550.386 290.542 547.445 283.326 545.289 281.321C541.956 278.314 542.544 281.121 541.368 285.531C538.427 296.355 537.642 307.38 538.623 318.606C539.603 327.426 542.544 344.264 552.347 347.472C547.642 356.492 542.348 365.312 536.662 373.932C538.035 361.103 536.074 346.87 532.153 334.642C530.78 330.633 529.408 324.219 527.251 320.811C524.507 316.2 524.114 321.011 522.154 324.82C516.86 336.046 513.723 348.674 513.331 361.103C513.135 369.522 513.723 388.164 523.526 391.773C518.036 398.588 512.351 405.203 506.273 411.618C509.998 400.192 511.567 387.162 510.978 375.335C510.782 371.126 510.978 364.51 509.802 360.702C508.234 355.289 505.881 360.902 503.136 363.909C495.098 373.13 489.02 385.157 485.687 396.984C483.53 404.802 479.609 423.044 488.628 428.456C480.589 435.472 472.355 442.087 463.728 448.301C470.002 436.274 473.923 421.841 475.099 408.21C475.492 405.003 475.296 401.795 475.492 398.588C475.492 397.185 477.06 391.773 476.276 390.77C474.315 387.563 471.963 391.773 469.414 393.978C459.415 402.798 451.18 414.023 445.494 426.251C441.573 434.871 434.319 453.513 443.142 461.331C430.006 468.948 416.282 475.363 401.969 480.374C412.556 470.953 419.222 455.919 423.732 442.688C425.889 436.274 426.673 429.659 428.437 423.044C430.398 415.627 429.025 416.429 423.34 420.237C411.772 427.454 401.773 437.076 393.931 448.702C389.225 455.919 376.678 478.37 388.441 484.784C374.521 488.793 360.405 491.399 346.092 492.201C357.856 485.586 367.071 473.358 374.325 462.133C378.05 456.319 380.403 450.105 383.54 444.092C386.481 438.278 388.441 436.073 380.795 438.679C367.071 443.29 354.327 450.506 343.74 460.73C337.662 466.743 321.585 484.584 330.996 493.604C321.585 497.413 314.919 507.837 309.429 516.056C303.939 507.837 297.273 497.413 287.863 493.604C297.077 484.784 281.981 467.545 276.099 461.531C265.512 450.707 252.18 443.49 238.063 438.679C231.79 436.474 231.79 437.076 234.73 443.089C237.867 449.103 240.024 455.317 243.749 461.13C251.003 472.957 260.61 485.386 272.766 492.402C258.454 491.6 244.141 488.994 230.417 484.985C241.789 478.57 230.221 457.121 225.516 449.905C217.869 437.878 207.282 427.855 195.519 420.438C190.813 417.431 188.46 415.025 190.029 422.041C191.401 428.657 192.578 435.071 194.538 441.486C199.048 455.317 205.91 470.752 216.693 480.575C202.381 475.563 188.656 469.149 175.521 461.531C184.147 453.714 177.089 435.071 173.168 426.451C167.482 414.224 159.248 402.998 149.249 394.178C146.504 391.773 144.543 387.763 142.386 390.971C141.602 391.973 143.171 397.385 143.171 398.788C143.367 401.996 143.171 405.203 143.563 408.41C144.739 421.841 148.66 436.474 154.934 448.502C146.308 442.488 137.877 435.873 130.035 428.656C138.661 423.445 135.328 406.005 133.368 398.388C130.231 386.16 123.761 373.731 115.722 364.11C113.37 361.303 111.213 355.891 109.056 360.1C107.684 362.907 108.272 370.925 108.076 374.132C107.292 386.561 108.86 399.991 112.781 411.818C106.704 405.404 101.018 398.989 95.5282 391.973C105.331 388.365 105.919 369.722 105.723 361.303C105.331 348.875 102.194 336.246 96.9006 325.021C95.1361 321.412 94.5479 316.401 91.8031 321.011C89.8425 324.62 88.274 330.834 86.9016 334.843C83.1765 347.071 81.2159 361.303 82.3922 374.132C76.7065 365.713 71.4129 356.893 66.7075 347.672C76.3144 344.465 79.4513 327.827 80.4316 318.806C81.608 307.581 80.6277 296.556 77.6868 285.731C76.5104 281.121 77.0986 278.515 73.7656 281.521C71.4129 283.526 68.472 290.742 67.0996 293.549C62.002 303.572 58.2769 314.998 56.9045 326.223C53.3754 317.804 50.4345 308.984 47.8857 300.164C58.2769 299.964 64.9429 283.125 67.4917 274.706C70.8247 264.082 72.0011 252.856 71.2168 241.831C70.8247 237.02 72.0011 234.615 68.2759 237.02C65.7271 238.624 61.4138 245.038 59.2572 247.444C52.199 256.264 46.1212 267.289 42.5921 278.114C41.4158 271.499 38.0828 260.874 39.4552 254.259C41.2197 246.442 37.2985 254.66 42.004 250.651C44.1606 248.847 46.9054 248.045 49.2582 246.041C58.669 237.822 64.5508 225.795 68.2759 213.968C69.2562 210.961 72.7853 201.138 71.4129 197.731C70.0405 194.122 65.9232 199.735 63.3744 201.539C53.9636 208.555 45.533 216.774 39.0631 226.797C39.4552 218.979 40.0434 211.362 41.0237 203.544C49.2582 207.954 59.8454 196.127 64.3547 190.514C71.6089 181.293 76.5104 170.268 79.2553 158.842C80.2356 155.234 82.1962 152.428 78.0789 153.029C75.3341 153.43 69.6483 158.241 67.0996 160.045C58.8651 165.658 51.2187 173.075 45.1409 181.093C47.1015 172.273 49.6503 163.653 52.5912 155.034C60.0414 159.844 72.3932 151.024 78.0789 146.213C85.137 140.4 91.0188 133.384 95.3321 125.366C97.0967 122.159 99.0573 121.357 95.5282 120.755C92.7834 120.355 85.7252 123.361 83.1764 124.163C74.9419 126.97 66.9035 131.179 60.0414 136.592C62.9823 129.776 66.3153 123.161 69.8444 116.546C75.9223 123.361 90.4307 116.546 96.7046 113.138C104.743 108.728 111.605 102.915 117.487 95.8989C119.84 93.0925 121.8 92.6916 118.467 91.4888C115.918 90.4866 108.468 92.2907 105.527 92.4911C96.5085 93.6939 87.0976 96.5003 79.0592 100.91C83.1765 94.4957 87.6858 88.2815 92.3913 82.2678C94.744 90.0856 108.076 87.2793 113.566 85.8761C122.388 83.4706 131.211 78.4592 138.073 72.4455C139.053 71.6437 143.171 68.4363 142.975 67.4341C142.779 66.4318 133.368 66.4318 131.799 66.4318C121.8 66.0309 110.233 67.6345 101.018 72.0446C106.9 65.4295 112.977 59.0149 119.447 53.0012C114.938 63.024 133.368 61.4204 137.681 60.6185C147.68 58.614 157.287 53.2017 164.737 46.5866C165.718 45.7848 169.835 42.5775 169.639 41.5752C169.443 40.5729 159.836 40.5729 158.267 40.3725C147.876 39.9715 135.72 41.5752 126.506 46.5866C128.858 44.582 131.799 41.3747 134.544 39.9715C140.622 36.9647 133.564 39.7711 139.053 39.1697C145.131 38.5683 150.033 37.5661 155.522 34.5592C163.561 30.1492 174.932 21.3291 178.265 12.3086C178.461 11.9076 180.226 10.304 179.834 9.50217C179.246 8.49988 172.972 10.5044 172.187 10.7049C166.698 11.7072 161.404 12.9099 156.307 15.1149C150.621 17.5204 144.739 20.1264 140.034 24.1355C135.524 27.9442 133.76 32.9556 128.858 36.5638C132.583 28.3451 134.348 18.5227 134.152 9.50217C134.152 8.70034 134.152 1.28345 133.368 0.481628C131.799 -0.921567 129.054 4.2903 127.878 5.69349C122.584 12.1081 118.271 18.7232 114.742 26.541C112.389 31.7528 106.9 45.1834 113.37 49.5934C110.233 52.3998 107.096 55.4067 103.959 58.4135C106.9 49.5934 107.684 40.5729 107.096 31.3519C106.508 22.9327 104.351 27.9442 100.43 32.5546C95.5282 38.3679 73.7656 70.8418 87.4898 76.2541C83.9607 80.4637 80.6277 84.6733 77.4907 88.8829C79.4513 79.6619 79.6474 69.2382 77.6868 60.0172C77.4907 58.8144 76.7065 53.0012 75.7262 52.8007C74.3538 52.6003 70.2365 60.6185 69.6484 61.8213C65.9232 67.6345 47.2976 108.528 63.7666 109.329C61.2178 115.143 58.2769 120.355 55.336 125.767C55.336 116.546 53.7675 106.924 50.2385 98.3044C49.8463 97.1016 48.0818 91.6893 47.1015 91.6893C45.7291 91.4888 43.7685 99.1062 43.1803 100.309C40.2394 107.325 28.6719 149.02 44.5527 149.421C41.4158 157.439 38.6709 165.457 36.3182 173.676C33.9655 163.653 29.064 153.43 22.9862 145.211C22.0059 144.008 17.6926 137.393 16.5162 137.594C14.7517 137.794 14.9477 146.013 14.9477 147.617C13.7714 158.441 14.3596 169.466 16.7123 180.091C18.0847 186.505 22.0059 201.339 30.4364 200.938C29.4561 206.952 28.6719 212.965 28.2798 218.979C24.3586 208.555 18.2807 199.334 10.8305 191.316C9.06595 189.512 7.10535 185.503 5.34082 188.309C4.36052 189.913 5.34082 198.733 5.14476 200.938C5.14476 207.954 11.6147 257.667 27.4955 248.246C27.6916 254.66 28.2798 260.874 29.064 267.089C22.7901 258.068 14.9477 250.651 6.12506 244.437C2.20387 241.831 0.635388 239.025 0.0472096 243.836C-0.34491 247.043 1.81174 253.057 2.59598 256.064C4.9487 266.688 9.45807 277.312 15.1438 286.533C18.2807 291.745 28.0837 305.977 35.73 300.164C37.4946 306.779 39.6512 313.394 42.004 319.809C33.9655 311.991 24.5547 305.777 14.1635 301.567C10.4384 299.964 7.69354 297.358 8.08566 302.169C8.28171 305.175 11.6147 310.788 12.9871 313.795C15.928 320.811 44.1606 366.515 54.7478 349.276C57.8848 355.289 61.0217 361.103 64.5508 366.715C54.5518 360.1 43.5724 355.69 32.0049 353.285C28.0837 352.483 24.7507 350.478 26.7113 355.089C28.0837 358.898 32.397 364.11 34.7497 367.317C39.2591 373.731 77.2947 415.426 84.3528 394.98C89.6464 401.795 95.3321 408.41 101.214 414.825C90.2346 409.613 76.7065 407.007 64.5508 407.408C62.9823 407.408 54.3557 407.007 53.3754 408.41C52.3951 409.814 60.0414 415.627 61.2178 416.629C70.4326 425.449 81.608 432.465 93.3716 437.477C99.6455 440.083 120.428 446.698 120.624 433.868C127.682 440.083 134.936 446.096 142.583 451.709C129.839 447.7 114.938 447.099 101.998 449.504C100.234 449.905 90.4306 451.108 90.0385 452.711C89.6464 454.315 99.0573 459.326 100.43 460.329C111.409 468.146 124.349 473.759 137.289 477.167C144.543 478.971 170.815 482.178 165.325 467.144C172.187 471.153 179.05 474.962 186.108 478.37C173.756 478.771 161.992 481.176 150.425 486.188C145.523 488.192 145.719 488.392 150.621 490.798C155.13 493.003 159.64 495.409 164.345 497.213C172.776 500.62 227.868 515.254 223.947 493.003C229.437 494.607 235.123 496.01 240.808 497.012C229.633 500.42 219.438 505.431 210.027 512.447C206.498 515.053 205.125 515.454 210.223 516.657C214.732 517.86 219.83 518.862 224.535 519.664C235.907 521.468 248.063 521.267 259.238 519.664C266.296 518.661 285.51 514.652 283.549 503.627C287.863 506.434 291.196 510.443 294.333 514.452C296.097 516.857 297.862 519.263 299.43 521.869C302.371 526.279 303.155 526.68 300.41 531.09C294.921 540.712 289.823 550.534 283.549 559.555C287.078 559.555 291.392 560.356 294.725 559.555C298.45 558.753 298.842 556.949 300.999 553.34C303.939 548.529 306.488 543.518 309.429 538.507C312.566 544.119 317.468 557.951 323.349 559.555C326.682 560.557 331.78 559.555 335.309 559.555C329.035 550.534 323.938 540.511 318.448 531.09C316.095 527.081 316.095 527.081 318.644 523.071C320.212 520.466 321.977 518.06 323.741 515.655C327.074 511.245 330.8 506.634 335.505 503.627C333.544 514.452 352.758 518.461 359.816 519.664C371.188 521.468 383.344 521.668 394.519 519.664C399.028 518.862 403.538 517.86 407.851 516.857C413.341 515.655 413.537 515.655 409.027 512.447C399.617 505.431 389.421 500.42 378.246 497.012C383.932 495.809 389.421 494.607 395.107 493.003C392.951 505.03 413.341 505.431 420.399 505.03C431.966 504.429 443.926 501.623 454.709 497.213C459.415 495.409 463.924 493.003 468.433 490.798C473.335 488.392 473.531 488.393 468.629 486.188C457.258 481.377 445.494 478.771 432.947 478.37C440.005 474.962 447.063 471.153 453.729 467.144C448.239 482.379 474.707 478.971 481.765 477.167C494.705 473.96 507.645 468.146 518.625 460.329C519.997 459.326 529.408 454.515 529.016 452.711C528.624 451.108 518.821 449.905 517.056 449.504C503.92 447.099 489.02 447.9 476.472 451.709C484.118 446.096 491.372 440.083 498.431 433.868C499.607 457.923 552.739 423.044 558.229 417.431Z" fill="#F5F5F5"/>
</svg>
