<svg width="180" height="32" viewBox="0 0 180 32" fill="none" xmlns="http://www.w3.org/2000/svg">
<path d="M4.70992 11.6272H8.25689L6.525 6.53524L4.70992 11.6272ZM3.33943 15.5303C3.27503 15.7303 3.22806 15.9133 3.19586 16.0789C3.1641 16.2445 3.14889 16.3963 3.14889 16.5348C3.14889 16.9971 3.27816 17.3324 3.53535 17.5411C3.79388 17.7498 4.20941 17.8543 4.78104 17.8543H5.00781V18.5038H0V17.8543C0.405241 17.8543 0.755466 17.7135 1.04978 17.4296C1.3432 17.1466 1.60173 16.7008 1.82493 16.0908L7.52737 0.442493H9.35945L15.1192 16.3527C15.3347 16.9444 15.5539 17.3429 15.7776 17.548C16.0012 17.7525 16.2964 17.8543 16.6632 17.8543V18.5038H7.88565V17.8543C8.75562 17.8543 9.30891 17.7874 9.54418 17.6516C9.77946 17.5168 9.89799 17.2535 9.89799 16.8613C9.89799 16.7233 9.88323 16.5793 9.85594 16.4311C9.82821 16.2834 9.78572 16.1353 9.72981 15.9872L8.65185 12.7486H4.3172L3.33943 15.5303Z" fill="#489A84"/>
<path d="M27.0242 15.975C26.4883 16.8992 25.817 17.6004 25.0096 18.0793C24.2027 18.5586 23.2929 18.7989 22.2794 18.7989C21.5257 18.7989 20.8262 18.6608 20.1812 18.387C19.5357 18.1123 18.9587 17.7045 18.4488 17.161C17.8817 16.5786 17.4514 15.88 17.1593 15.0687C16.8672 14.2578 16.7214 13.3634 16.7214 12.3883C16.7214 10.5459 17.2492 9.04839 18.3044 7.8958C19.3591 6.74412 20.7251 6.1676 22.401 6.1676C23.1167 6.1676 23.8221 6.29648 24.5167 6.55424C25.2113 6.81154 25.5826 6.93997 25.6305 6.93997C25.7897 6.93997 25.9109 6.89456 25.9959 6.80237C26.0809 6.71064 26.1542 6.53819 26.2182 6.28639H26.6507V10.1515H26.2182C26.0701 9.19104 25.7391 8.44481 25.2252 7.91093C24.7126 7.3789 24.0667 7.11242 23.2885 7.11242C22.3456 7.11242 21.629 7.55181 21.1402 8.43105C20.6499 9.30983 20.4048 10.6009 20.4048 12.3007C20.4048 14.0766 20.6455 15.4214 21.1285 16.3364C21.6116 17.2496 22.3219 17.7064 23.2598 17.7064C23.8529 17.7064 24.4241 17.5229 24.9729 17.1551C25.5218 16.7877 26.0241 16.2534 26.479 15.5521L27.0242 15.975Z" fill="#489A84"/>
<path d="M29.1416 8.64762C29.1416 8.0289 29.0343 7.58951 28.82 7.32991C28.6066 7.07032 28.2435 6.92859 27.7309 6.90566V6.46214H32.3223L37.5743 13.458V8.64762C37.5743 8.0289 37.4696 7.59318 37.2607 7.33909C37.0519 7.08453 36.6864 6.94327 36.1635 6.91392V6.46214H39.732V6.90566C39.2198 6.92859 38.8571 7.07032 38.6428 7.32991C38.4286 7.58951 38.3221 8.0289 38.3221 8.64762V18.5036H37.08L29.8899 8.96868V16.3181C29.8899 16.9364 29.995 17.3744 30.2061 17.6322C30.4177 17.889 30.7818 18.0321 31.3002 18.061V18.5036H27.7309V18.061C28.2435 18.0436 28.6066 17.9028 28.82 17.64C29.0343 17.3776 29.1416 16.9364 29.1416 16.3181V8.64762Z" fill="#489A84"/>
<path d="M40.5682 18.946L40.306 18.0608C40.8186 18.0439 41.1809 17.9044 41.3952 17.6448C41.6094 17.3843 41.7168 16.9486 41.7168 16.3363V8.65845C41.7168 8.03652 41.6094 7.59483 41.3952 7.33294C41.1809 7.07197 40.8186 6.92887 40.306 6.90548V6.46242H50.005V9.73903H49.602C49.4803 8.81026 49.2115 8.15989 48.7946 7.78838C48.3778 7.41642 47.6925 7.22974 46.7376 7.22974H45.1698V11.9516H45.3528C45.9571 11.9516 46.4079 11.7612 46.7063 11.3796C47.0024 10.9985 47.192 10.3628 47.2712 9.47256H47.6742V15.2571H47.2712C47.192 14.3485 47.0001 13.7036 46.6978 13.3211C46.3954 12.9404 45.9311 12.7487 45.3058 12.7487H45.1698V16.4748C45.1698 17.0568 45.2521 17.4123 45.4154 17.5416C45.58 17.6714 45.9897 17.7356 46.6459 17.7356C47.6702 17.7356 48.4569 17.5022 49.0044 17.033C49.5519 16.5633 49.9527 15.785 50.2067 14.6962H50.667L50.2962 18.946H40.5682Z" fill="#489A84"/>
<path d="M53.827 18.9199V12.3355H54.4421C54.6411 13.9036 55.2973 15.2057 56.4119 16.2414C57.5256 17.2765 58.8067 17.7948 60.255 17.7948C61.1862 17.7948 61.9395 17.56 62.5169 17.0871C63.093 16.6147 63.382 16.0065 63.382 15.2612C63.382 14.1192 62.0244 12.9014 59.3072 11.6113L59.2723 11.598C59.105 11.5204 58.8536 11.403 58.52 11.2471C56.6418 10.3816 55.3899 9.48632 54.7605 8.55892C54.4819 8.14338 54.2712 7.69986 54.129 7.22745C53.9858 6.75596 53.9129 6.26061 53.9129 5.7405C53.9129 4.07788 54.4913 2.70605 55.6475 1.62317C56.8033 0.540751 58.2833 0 60.0868 0C61.0637 0 62.0848 0.21419 63.1489 0.641655C64.2143 1.0705 64.7945 1.28469 64.8898 1.28469C65.159 1.28469 65.35 1.19479 65.4614 1.015C65.5728 0.837042 65.6439 0.506352 65.6765 0.0261428H66.3466V5.84278H65.7705C65.5406 4.46223 64.9349 3.34037 63.9549 2.47672C62.9749 1.61262 61.8263 1.18057 60.5081 1.18057C59.6833 1.18057 59.0196 1.38697 58.52 1.79838C58.0203 2.21116 57.7699 2.75054 57.7699 3.4188C57.7699 4.39022 58.8223 5.35294 60.9277 6.30785L61.1907 6.42435C62.7057 7.11737 63.7639 7.64666 64.3655 8.01404C64.9689 8.3828 65.4211 8.74697 65.7239 9.11114C66.186 9.65648 66.5353 10.2509 66.7706 10.8948C67.0054 11.5392 67.1239 12.2295 67.1239 12.9647C67.1239 14.7287 66.5313 16.1675 65.3478 17.2784C64.1647 18.3906 62.6247 18.946 60.7291 18.946C59.6529 18.946 58.5352 18.7406 57.3758 18.3319C56.2169 17.9228 55.5893 17.7168 55.4941 17.7168C55.2136 17.7168 54.9846 17.8219 54.8057 18.031C54.6263 18.2402 54.5208 18.536 54.489 18.9199H53.827Z" fill="#489A84"/>
<path d="M73.17 12.2468H73.3212C73.9125 12.2468 74.3472 12.0331 74.6246 11.6056C74.9023 11.1773 75.0414 10.5095 75.0414 9.60179C75.0414 8.7519 74.8889 8.12401 74.5848 7.71902C74.281 7.31449 73.8101 7.11268 73.17 7.11268V12.2468ZM73.17 16.3197C73.17 16.9668 73.2867 17.4182 73.5193 17.675C73.751 17.9323 74.1607 18.0612 74.748 18.0612H74.8111V18.5038H68.3067V18.0612C68.8188 18.0438 69.1815 17.9029 69.3962 17.6401C69.6096 17.3778 69.7169 16.9375 69.7169 16.3197V8.63862C69.7169 8.02173 69.6096 7.58326 69.3962 7.3232C69.1815 7.06269 68.8188 6.92142 68.3067 6.89895V6.46231H74.3428C75.7289 6.46231 76.7814 6.73613 77.5015 7.28284C78.2207 7.8291 78.5813 8.62807 78.5813 9.68022C78.5813 10.7617 78.2078 11.5827 77.4622 12.1432C76.7156 12.7041 75.6207 12.9848 74.1768 12.9848H73.17V16.3197Z" fill="#489A84"/>
<path d="M78.9548 18.5038V18.0612C79.4665 18.0438 79.8297 17.9043 80.0439 17.6447C80.2582 17.3847 80.3655 16.9485 80.3655 16.3362V8.65834C80.3655 8.03641 80.2582 7.59472 80.0439 7.33283C79.8297 7.07186 79.4665 6.92876 78.9548 6.90537V6.46231H88.6537V9.73893H88.2507C88.1291 8.81015 87.8593 8.16024 87.4434 7.78828C87.0265 7.41677 86.3404 7.22964 85.3859 7.22964H83.8186V11.9515H84.0011C84.6053 11.9515 85.0566 11.7611 85.3536 11.3795C85.6511 10.9988 85.8389 10.3627 85.9199 9.47291H86.322V15.257H85.9199C85.8389 14.3484 85.648 13.7035 85.3465 13.3215C85.0432 12.9408 84.5798 12.7486 83.9536 12.7486H83.8186V16.4747C83.8186 17.0572 83.9 17.4126 84.0641 17.5415C84.2274 17.6713 84.6376 17.736 85.2928 17.736C86.3189 17.736 87.1057 17.5021 87.6522 17.0329C88.2002 16.5637 88.6 15.7853 88.8546 14.6965H89.3148L88.6832 18.5038H78.9548Z" fill="#489A84"/>
<path d="M100.721 15.975C100.186 16.8992 99.5138 17.6004 98.7069 18.0793C97.9005 18.5586 96.9893 18.7989 95.9758 18.7989C95.2226 18.7989 94.523 18.6608 93.8776 18.387C93.2326 18.1123 92.656 17.7045 92.1461 17.161C91.5781 16.5786 91.1482 15.88 90.8562 15.0687C90.5641 14.2578 90.4187 13.3634 90.4187 12.3883C90.4187 10.5459 90.9456 9.04839 92.0008 7.8958C93.0564 6.74412 94.4215 6.1676 96.0979 6.1676C96.8136 6.1676 97.5189 6.29648 98.2131 6.55424C98.9078 6.81154 99.2794 6.93997 99.3273 6.93997C99.4861 6.93997 99.6086 6.89456 99.6932 6.80237C99.7777 6.71064 99.852 6.53819 99.9155 6.28639H100.347V10.1515H99.9155C99.7674 9.19104 99.4364 8.44481 98.923 7.91093C98.4095 7.3789 97.7631 7.11242 96.9849 7.11242C96.0429 7.11242 95.3263 7.55181 94.837 8.43105C94.3463 9.30983 94.1021 10.6009 94.1021 12.3007C94.1021 14.0766 94.3436 15.4214 94.8258 16.3364C95.3075 17.2496 96.0183 17.7064 96.9567 17.7064C97.5493 17.7064 98.1205 17.5229 98.6693 17.1551C99.2186 16.7877 99.7205 16.2534 100.177 15.5521L100.721 15.975Z" fill="#489A84"/>
<path d="M106.321 16.318C106.321 16.9367 106.426 17.3747 106.638 17.6321C106.849 17.8894 107.213 18.0325 107.731 18.0609V18.504H101.457V18.0609C101.975 18.038 102.34 17.8953 102.55 17.6357C102.762 17.3761 102.867 16.9367 102.867 16.318V8.6475C102.867 8.02924 102.761 7.58985 102.546 7.32979C102.332 7.07019 101.969 6.92893 101.457 6.90554V6.46248H107.731V6.91379C107.208 6.94315 106.842 7.08441 106.634 7.33897C106.426 7.59352 106.321 8.02924 106.321 8.6475V16.318Z" fill="#489A84"/>
<path d="M110.762 13.9293H113.135L111.976 10.5289L110.762 13.9293ZM109.851 16.5152C109.809 16.6492 109.777 16.7702 109.755 16.8803C109.734 16.9895 109.724 17.0918 109.724 17.1835C109.724 17.4908 109.81 17.7132 109.981 17.8517C110.154 17.9916 110.429 18.0609 110.809 18.0609H110.96V18.504H107.622V18.0609C107.892 18.0609 108.125 17.9673 108.321 17.7788C108.516 17.5908 108.689 17.294 108.837 16.8886L112.648 6.46248H113.868L117.702 17.0624C117.846 17.4559 117.991 17.721 118.14 17.8563C118.289 17.9935 118.486 18.0609 118.731 18.0609V18.504H112.889V18.0609C113.467 18.0609 113.835 18.0159 113.993 17.9256C114.149 17.8366 114.227 17.6614 114.227 17.4C114.227 17.3087 114.218 17.2138 114.2 17.1142C114.18 17.0165 114.153 16.9179 114.116 16.8193L113.398 14.6669H110.5L109.851 16.5152Z" fill="#489A84"/>
<path d="M123.558 16.3091C123.558 16.8435 123.639 17.2136 123.799 17.4227C123.96 17.6323 124.241 17.736 124.644 17.736C125.495 17.736 126.198 17.3943 126.755 16.7095C127.313 16.0248 127.677 15.0584 127.846 13.8104L128.306 13.8723L127.878 18.5038H118.694V18.0612C119.206 18.0433 119.569 17.9029 119.783 17.6378C119.997 17.3732 120.105 16.9306 120.105 16.3091V8.64275C120.105 8.02632 119.997 7.5883 119.783 7.32916C119.569 7.07048 119.206 6.92876 118.694 6.90583V6.46231H124.968V6.90583C124.449 6.93518 124.085 7.07736 123.874 7.33375C123.663 7.58968 123.558 8.02632 123.558 8.64275V16.3091Z" fill="#489A84"/>
<path d="M133.701 16.318C133.701 16.9367 133.806 17.3747 134.017 17.6321C134.228 17.8894 134.593 18.0325 135.111 18.0609V18.504H128.837V18.0609C129.355 18.038 129.719 17.8953 129.93 17.6357C130.142 17.3761 130.247 16.9367 130.247 16.318V8.6475C130.247 8.02924 130.14 7.58985 129.926 7.32979C129.712 7.07019 129.349 6.92893 128.837 6.90554V6.46248H135.111V6.91379C134.587 6.94315 134.223 7.08441 134.014 7.33897C133.806 7.59352 133.701 8.02924 133.701 8.6475V16.318Z" fill="#489A84"/>
<path d="M136.267 18.7805V14.4013H136.696C136.828 15.4443 137.266 16.3098 138.008 16.9982C138.751 17.6871 139.606 18.0307 140.572 18.0307C141.192 18.0307 141.695 17.8743 142.08 17.5596C142.464 17.245 142.657 16.8404 142.657 16.3442C142.657 15.5833 141.743 14.7738 139.919 13.9142L139.896 13.9051C139.784 13.8532 139.617 13.7757 139.394 13.6712C138.143 13.0942 137.308 12.4965 136.89 11.8778C136.705 11.6008 136.564 11.3045 136.469 10.9899C136.373 10.6752 136.325 10.3441 136.325 9.99689C136.325 8.88878 136.711 7.97285 137.483 7.25093C138.255 6.52855 139.242 6.16759 140.445 6.16759C141.098 6.16759 141.779 6.30703 142.489 6.58589C143.201 6.86475 143.587 7.00418 143.651 7.00418C143.832 7.00418 143.959 6.94639 144.033 6.82943C144.107 6.71202 144.156 6.49737 144.177 6.18457H144.614V10.034H144.239C144.085 9.11582 143.68 8.37096 143.024 7.79581C142.37 7.2225 141.6 6.93492 140.719 6.93492C140.167 6.93492 139.723 7.07206 139.389 7.34587C139.054 7.62015 138.887 7.97973 138.887 8.42417C138.887 9.07087 139.593 9.71206 141.008 10.3473L141.185 10.4253C142.192 10.8881 142.896 11.2426 143.297 11.488C143.697 11.7343 143.999 11.9787 144.201 12.2214C144.508 12.586 144.74 12.9841 144.897 13.4143C145.054 13.845 145.132 14.3073 145.132 14.7976C145.132 15.9786 144.738 16.9395 143.952 17.683C143.164 18.4269 142.14 18.7989 140.879 18.7989C140.162 18.7989 139.419 18.6618 138.648 18.3889C137.877 18.116 137.459 17.9797 137.396 17.9797C137.21 17.9797 137.058 18.049 136.939 18.1889C136.819 18.3283 136.749 18.5251 136.728 18.7805H136.267Z" fill="#489A84"/>
<path d="M156.243 6.46231V9.56143H155.84C155.767 8.72668 155.552 8.12997 155.201 7.77039C154.848 7.41035 154.301 7.22964 153.56 7.22964H152.846V16.3155C152.846 16.9347 152.951 17.3732 153.16 17.6305C153.368 17.8887 153.735 18.0323 154.258 18.0612V18.5038H147.983V18.0612C148.49 18.0438 148.852 17.9029 149.068 17.6397C149.285 17.376 149.394 16.9347 149.394 16.3155V7.22964H148.68C147.934 7.22964 147.385 7.41035 147.036 7.77039C146.687 8.12997 146.475 8.72668 146.401 9.56143H145.998V6.46231H156.243Z" fill="#489A84"/>
<path d="M156.793 18.5038V18.0612C157.306 18.0438 157.669 17.9043 157.883 17.6447C158.096 17.3847 158.204 16.9485 158.204 16.3362V8.65834C158.204 8.03641 158.096 7.59472 157.883 7.33283C157.669 7.07186 157.306 6.92876 156.793 6.90537V6.46231H166.492V9.73893H166.089C165.968 8.81015 165.698 8.16024 165.282 7.78828C164.866 7.41677 164.18 7.22964 163.225 7.22964H161.657V11.9515H161.84C162.445 11.9515 162.896 11.7611 163.193 11.3795C163.49 10.9988 163.679 10.3627 163.758 9.47291H164.161V15.257H163.758C163.679 14.3484 163.488 13.7035 163.185 13.3215C162.882 12.9408 162.418 12.7486 161.793 12.7486H161.657V16.4747C161.657 17.0572 161.739 17.4126 161.903 17.5415C162.067 17.6713 162.477 17.736 163.133 17.736C164.158 17.736 164.945 17.5021 165.491 17.0329C166.039 16.5637 166.44 15.7853 166.694 14.6965H167.153L166.522 18.5038H156.793Z" fill="#489A84"/>
<path d="M169.409 8.64762C169.409 8.0289 169.302 7.58951 169.088 7.32991C168.875 7.07032 168.511 6.92859 167.998 6.90566V6.46214H172.59L177.841 13.458V8.64762C177.841 8.0289 177.737 7.59318 177.528 7.33909C177.32 7.08453 176.953 6.94327 176.431 6.91392V6.46214H180V6.90566C179.487 6.92859 179.125 7.07032 178.91 7.32991C178.697 7.58951 178.59 8.0289 178.59 8.64762V18.5036H177.347L170.157 8.96868V16.3181C170.157 16.9364 170.263 17.3744 170.474 17.6322C170.685 17.889 171.049 18.0321 171.567 18.061V18.5036H167.998V18.061C168.511 18.0436 168.875 17.9028 169.088 17.64C169.302 17.3776 169.409 16.9364 169.409 16.3181V8.64762Z" fill="#489A84"/>
<path d="M0.754017 27.6022C41.4637 20.1697 98.2051 28.8516 106.386 29.884C114.567 30.9164 142.252 36.4602 179.033 23.9789C147.357 32.8373 111.169 27.5903 106.517 26.9307C101.864 26.2717 31.5156 15.3878 0.754017 27.6022Z" fill="#489A84"/>
</svg>
